<svg width="49" height="45" viewBox="0 0 49 45" fill="none" xmlns="http://www.w3.org/2000/svg">
<path fill-rule="evenodd" clip-rule="evenodd" d="M2.34693 2.23027C2.01252 3.45722 1.32806 5.7987 0.82645 7.43424C-0.35782 11.2941 -0.357218 11.3 1.40445 11.3H2.90809V27.9527V44.6054H24.2598H45.6116V27.9527V11.3H47.1152C48.8769 11.3 48.8775 11.2941 47.6932 7.43424C47.1916 5.7987 46.5071 3.45722 46.1727 2.23027L45.5652 0H24.2598H2.95441L2.34693 2.23027ZM45.881 3.84677C46.4067 5.63515 46.9961 7.88564 47.191 8.84853L47.5446 10.5988L38.8211 10.6702L30.097 10.7422L27.213 6.85793C25.6263 4.72163 24.2977 2.97369 24.2598 2.97369C24.2219 2.97369 22.8933 4.72163 21.3067 6.85793L18.4227 10.7422L9.69855 10.6702L0.975009 10.5988L1.32867 8.84853C1.52354 7.88564 2.11297 5.63515 2.63864 3.84677L3.59496 0.594739H24.2598H44.9247L45.881 3.84677ZM27.8541 9.06977L28.8387 10.7053H24.2586C19.2094 10.7053 19.3207 10.9426 22.3701 6.67416L24.1877 4.12927L25.5289 5.78205C26.2663 6.69081 27.3128 8.17052 27.8541 9.06977ZM45.0101 27.6554V44.0107H39.0226H33.0357L32.6231 41.8381C32.3963 40.6427 32.3584 36.4944 32.5395 32.6196L32.8673 25.5738H24.2598H15.6524L15.9802 32.6196C16.1612 36.4944 16.1233 40.6427 15.8966 41.8381L15.484 44.0107H9.49706H3.50955V27.6554V11.3H24.2598H45.0101V27.6554ZM9.62878 14.4605C8.52029 15.6274 8.32121 16.5337 8.32121 20.4079V24.979H11.3285H14.3358V20.3246C14.3358 16.2286 14.1686 15.5155 12.944 14.3772C11.2232 12.7792 11.2268 12.7792 9.62878 14.4605ZM22.2407 14.881C21.107 16.3969 20.9254 17.3021 21.0751 20.6797L21.2525 24.6817H24.2598H27.2671L27.4445 20.6797C27.5943 17.3021 27.4127 16.3969 26.2789 14.881C25.5403 13.8925 24.6315 13.0843 24.2598 13.0843C23.8881 13.0843 22.9793 13.8925 22.2407 14.881ZM35.4914 14.4605C34.383 15.6274 34.1839 16.5337 34.1839 20.4079V24.979H37.1912H40.1984V20.3246C40.1984 16.2286 40.0312 15.5155 38.8067 14.3772C37.0859 12.7792 37.0895 12.7792 35.4914 14.4605ZM13.6086 20.1991L13.4336 24.0869L11.1781 24.2713L8.92267 24.4563V20.5173C8.92267 17.6965 9.22159 16.1817 9.97522 15.1789L11.0278 13.7789L12.4057 15.0451C13.6146 16.1555 13.762 16.7877 13.6086 20.1991ZM26.3649 20.0159V24.3843H24.2598H22.1547V20.1194C22.1547 16.9774 22.4182 15.5667 23.1543 14.762C24.089 13.7408 24.2267 13.7343 25.2594 14.6585C26.1412 15.4472 26.3649 16.5314 26.3649 20.0159ZM39.597 20.4995V24.4563L37.3415 24.2713L35.0861 24.0869L34.905 20.2919C34.7504 17.0601 34.9195 16.2911 36.04 15.1111L37.356 13.726L38.4765 15.1343C39.3143 16.1876 39.597 17.5406 39.597 20.4995ZM32.3795 27.358C32.3795 28.4886 31.9783 28.5475 24.2598 28.5475C16.5413 28.5475 16.1402 28.4886 16.1402 27.358C16.1402 26.2274 16.5413 26.1685 24.2598 26.1685C31.9783 26.1685 32.3795 26.2274 32.3795 27.358ZM31.1766 35.6843V42.2265H29.6729C28.1807 42.2265 28.1693 42.1866 28.1693 36.8738V31.5212H24.2598H20.3504V36.8738C20.3504 42.1866 20.3389 42.2265 18.8467 42.2265H17.3431V35.6843V29.1422H24.2598H31.1766V35.6843ZM8.32121 35.0896V39.8475H11.3285H14.3358V35.0896V30.3317H11.3285H8.32121V35.0896ZM34.1839 35.0896V39.8475H37.1912H40.1984V35.0896V30.3317H37.1912H34.1839V35.0896ZM13.7343 35.0896V39.2528H11.3285H8.92267V35.0896V30.9264H11.3285H13.7343V35.0896ZM39.597 35.0896V39.2528H37.1912H34.7853V35.0896V30.9264H37.1912H39.597V35.0896ZM27.4415 37.3199L27.6166 42.2265H24.2839H20.9518V37.5679C20.9518 35.0051 21.1449 32.7184 21.3807 32.4852C21.6164 32.2521 23.0371 32.1403 24.5383 32.2372L27.2671 32.4133L27.4415 37.3199ZM32.3795 43.4159C32.3795 43.7829 29.2718 44.0107 24.2598 44.0107C19.2479 44.0107 16.1402 43.7829 16.1402 43.4159C16.1402 43.049 19.2479 42.8212 24.2598 42.8212C29.2718 42.8212 32.3795 43.049 32.3795 43.4159Z" fill="black"/>
</svg>
