<svg width="48" height="45" viewBox="0 0 48 45" fill="none" xmlns="http://www.w3.org/2000/svg">
<path fill-rule="evenodd" clip-rule="evenodd" d="M31.0132 1.3398C30.9963 2.5361 30.9288 2.56825 30.3808 1.63754C29.1813 -0.398963 25.9668 1.09983 26.5894 3.40548C26.9273 4.65417 27.0411 4.67918 28.658 3.85208C30.8108 2.75165 35.2899 2.72486 37.8252 3.7973C38.8911 4.24806 40.4911 5.38719 41.3805 6.32803C46.5943 11.8415 44.6571 20.627 37.5415 23.7401C35.4959 24.6351 35.3875 24.8024 36.1764 25.854C36.902 26.8216 37.2645 26.8919 38.5484 26.3137C39.4818 25.8927 40.0641 25.14 40.0641 24.354C40.0641 23.2667 40.2032 23.1917 41.0005 23.8455C41.7822 24.4874 42.1459 24.4064 43.2088 23.3554C44.2717 22.3044 44.3536 21.9448 43.7044 21.1718C43.0372 20.3763 43.1401 20.2459 44.4367 20.2459C45.4923 20.2459 46.0548 19.8434 46.3089 18.9061C46.8424 16.9357 46.781 16.6731 45.785 16.6731C45.2882 16.6731 44.8817 16.4051 44.8817 16.0776C44.8817 15.7501 45.4237 15.4822 46.0861 15.4822C47.0231 15.4822 47.2905 15.085 47.2905 13.6958C47.2905 12.3065 47.0231 11.9093 46.0861 11.9093C45.4237 11.9093 44.8817 11.6414 44.8817 11.3139C44.8817 10.9864 45.3195 10.7184 45.8554 10.7184C46.5708 10.7184 46.7328 10.3635 46.4654 9.37861C46.2661 8.64142 46.0987 7.83814 46.0945 7.59221C46.0897 7.34628 45.3755 7.14561 44.5071 7.14561C43.1468 7.14561 43.0354 7.01699 43.7044 6.21966C44.3536 5.44674 44.2717 5.08708 43.2088 4.03608C42.1459 2.98508 41.7822 2.90409 41.0005 3.54601C40.2032 4.19983 40.0641 4.1248 40.0641 3.03748C40.0641 2.25146 39.4818 1.49879 38.5484 1.0778C37.2651 0.500193 36.899 0.570458 36.1589 1.5375C35.3116 2.64507 35.2845 2.63911 35.2658 1.3398C35.2496 0.209009 34.9178 0 33.1389 0C31.36 0 31.0282 0.209009 31.0132 1.3398ZM34.6444 1.19093C34.6444 1.51844 34.1024 1.7864 33.44 1.7864C32.7776 1.7864 32.2356 1.51844 32.2356 1.19093C32.2356 0.863428 32.7776 0.595467 33.44 0.595467C34.1024 0.595467 34.6444 0.863428 34.6444 1.19093ZM28.9555 2.51883C28.3918 2.83085 27.7547 2.91362 27.5409 2.70164C27.011 2.17762 28.726 1.18379 29.424 1.61014C29.7305 1.79772 29.5197 2.2068 28.9555 2.51883ZM39.4619 2.49501C39.4619 3.28579 37.5078 2.83859 37.2194 1.98231C37.07 1.53869 37.435 1.40113 38.2232 1.60478C38.9043 1.78104 39.4619 2.18179 39.4619 2.49501ZM9.65334 7.20932C4.68524 9.84069 0.349442 12.2809 0.0182354 12.6322C-0.312971 12.9836 3.90781 10.9643 9.39801 8.14421C18.1949 3.6258 19.5173 3.10894 20.5386 3.79015C23.1642 5.54023 38.2569 13.117 38.2473 12.6799C38.2383 12.2815 19.5203 2.34019 18.8976 2.40331C18.7814 2.41522 14.6214 4.57795 9.65334 7.20932ZM29.5257 4.44457C27.3904 5.41161 28.4051 5.63789 30.8144 4.73218C36.9502 2.42534 44.2765 9.45364 42.5078 15.9496C41.8472 18.3743 38.8905 21.6006 36.451 22.5575C35.6229 22.882 35.352 23.1637 35.8488 23.1833C37.3826 23.2435 40.6163 20.9509 41.8743 18.9114C45.1539 13.5957 43.1696 7.29209 37.4018 4.70181C34.5011 3.39952 32.0134 3.31794 29.5257 4.44457ZM42.9625 5.32229C43.113 5.76889 42.8872 5.99219 42.4356 5.84332C42.0008 5.69981 41.5263 5.23059 41.3817 4.80125C41.2312 4.35465 41.457 4.13135 41.9086 4.28022C42.3428 4.42313 42.8174 4.89236 42.9625 5.32229ZM45.6675 8.96595C45.8735 9.74542 45.7344 10.1063 45.2858 9.9586C44.4198 9.67337 43.9675 7.74108 44.7673 7.74108C45.084 7.74108 45.4893 8.29248 45.6675 8.96595ZM46.6883 13.6958C46.6883 14.3508 46.4173 14.8867 46.0861 14.8867C45.7549 14.8867 45.4839 14.3508 45.4839 13.6958C45.4839 13.0407 45.7549 12.5048 46.0861 12.5048C46.4173 12.5048 46.6883 13.0407 46.6883 13.6958ZM4.6744 29.029L4.53469 44.0646H18.9873H33.44L33.3003 29.029L33.1612 13.9935L32.989 28.7313L32.8167 43.4691H18.9873H5.15796L4.98573 28.7313L4.81351 13.9935L4.6744 29.029ZM10.3561 17.0703C10.1351 17.2882 9.95443 21.1736 9.95443 25.7045V33.9416H18.9873H28.0203V25.3074V16.6731H19.389C14.6413 16.6731 10.5765 16.8517 10.3561 17.0703ZM27.285 25.4562L27.453 33.3462H19.3059H11.1588V25.2901V17.234L19.1379 17.4002L27.117 17.5663L27.285 25.4562ZM45.6585 18.4595C45.4851 19.1145 45.1039 19.6504 44.8112 19.6504C44.1892 19.6504 44.097 18.2433 44.6811 17.6657C45.4706 16.8851 45.968 17.2888 45.6585 18.4595ZM19.1036 21.288L18.9873 25.0096L15.5247 25.1067L12.0621 25.2038L15.3742 25.5533L18.6862 25.9028L19.0433 28.8802L19.4004 31.8575L19.495 28.7623L19.5895 25.6676L22.7511 25.4485L25.9126 25.23L22.78 25.1198L19.6467 25.0096L19.433 21.288L19.2192 17.5663L19.1036 21.288ZM43.0751 21.9972C43.0751 22.6998 41.9008 23.4513 41.469 23.0249C41.0379 22.598 41.7978 21.4368 42.5084 21.4368C42.8204 21.4368 43.0751 21.6887 43.0751 21.9972ZM39.4619 24.94C39.4619 25.2294 38.92 25.6063 38.2575 25.7778C37.0736 26.0839 36.6653 25.592 37.4548 24.8113C38.039 24.2337 39.4619 24.3248 39.4619 24.94Z" fill="black"/>
</svg>
