<svg width="51" height="43" viewBox="0 0 51 43" fill="none" xmlns="http://www.w3.org/2000/svg">
<path fill-rule="evenodd" clip-rule="evenodd" d="M34.9754 0.0957975C31.9895 0.365846 29.332 1.29803 27.4381 2.73977C25.4714 4.23687 24.2768 6.65744 24.0928 9.51824C24.0546 10.1104 24.0737 10.6896 24.139 10.9237C24.2452 11.3047 24.2203 11.3731 23.5692 12.4933C23.1947 13.1376 22.8884 13.6798 22.8884 13.6982C22.8884 13.7167 22.577 14.2676 22.1965 14.9223L21.5045 16.1129L22.3609 18.7104C23.2097 21.2849 23.2161 21.313 23.097 21.8871C22.8989 22.8412 22.0157 23.6113 21.1125 23.6174L20.7679 23.6197V25.8334C20.7679 27.4778 20.7338 28.0737 20.6353 28.1512C20.5625 28.2087 20.0734 28.4005 19.5486 28.5776C19.0237 28.7547 16.9721 29.4799 14.9894 30.1891C11.8652 31.3066 6.09469 33.3585 2.10726 34.7697C1.38914 35.0238 0.794333 35.3023 0.660316 35.4472C0.535099 35.5826 0.326227 36.0128 0.196239 36.4035C-0.41161 38.23 0.39525 39.7434 2.58056 40.8756C5.61004 42.4452 6.01676 42.5984 7.15495 42.5984C7.47314 42.5984 7.89597 42.5306 8.09456 42.4476C8.59097 42.2402 9.06905 41.5485 9.15683 40.9108L9.22777 40.3949L10.2001 39.9452C10.7349 39.6979 12.6039 38.8162 14.3533 37.9858C20.6495 34.9972 21.8061 34.4496 23.8426 33.4929C24.9798 32.9587 26.4111 32.2721 27.0234 31.9672L28.1367 31.4127L28.1654 29.243L28.1943 27.0735L28.7516 26.5394C29.5183 25.8049 29.9171 25.1746 30.2371 24.1913C30.8341 22.3569 30.8813 21.8803 30.8969 17.5232C30.9055 15.1022 30.9616 13.1134 31.0374 12.54C31.2198 11.1596 31.6436 9.71683 32.2052 8.56454C32.6111 7.7317 32.8515 7.40101 33.597 6.64981C34.9035 5.33371 36.1785 4.67157 38.9758 3.85687C41.1584 3.22124 42.2893 3.03092 43.9876 3.01353C45.7435 2.99562 46.3765 3.13334 47.4078 3.75773C48.6634 4.51783 49.1026 5.52933 49.6101 8.82907C49.8744 10.5477 49.9405 14.4794 49.7292 15.9141C49.5405 17.195 49.1883 18.5193 48.85 19.2196C48.0764 20.8214 47.7542 21.1092 45.525 22.1905C44.5337 22.6713 42.1242 23.8403 40.1707 24.7881C38.2171 25.7359 34.809 27.3883 32.5971 28.4599C30.3851 29.5317 28.5568 30.427 28.5342 30.4497C28.4651 30.5189 28.9347 31.3703 29.0154 31.3223C29.057 31.2977 29.8782 30.8967 30.8404 30.4314C31.8026 29.9659 34.5937 28.6066 37.0429 27.4106C43.6256 24.196 45.4052 23.3311 46.6285 22.7521C47.5341 22.3236 47.8575 22.1024 48.431 21.5199C49.2883 20.6492 49.8389 19.6393 50.2514 18.1809C50.766 16.3618 50.9089 14.9041 50.846 12.1159C50.7937 9.79264 50.7217 9.09562 50.2984 6.81458C49.94 4.8831 48.9205 3.37137 47.5123 2.68337C47.161 2.51171 46.8945 2.31652 46.9203 2.24951C46.9835 2.08464 46.647 1.87874 45.5778 1.42823C42.914 0.305835 38.6201 -0.233838 34.9754 0.0957975ZM38.3026 1.01579C38.3318 1.06286 37.8455 1.18702 37.2221 1.29177C35.1009 1.64813 32.6053 2.41979 31.1064 3.18275C30.3109 3.58767 29.1983 4.39972 28.6838 4.95085C27.7671 5.93275 26.9231 8.02667 26.6964 9.88107L26.5572 11.0204L26.0746 10.9509C25.0413 10.802 25.115 10.8963 25.115 9.72288C25.115 5.85324 27.2068 3.22993 31.4082 1.83092C32.9023 1.33334 34.1994 1.1234 36.3007 1.03879C37.2921 0.998823 38.1361 0.958109 38.1764 0.948143C38.2167 0.938282 38.2736 0.968606 38.3026 1.01579ZM43.6165 1.81894C44.0322 1.94659 44.0153 1.95179 42.7785 2.07955C41.5118 2.21039 38.8819 2.78388 37.8911 3.14543C37.5995 3.25188 37.1701 3.39958 36.9369 3.47379C35.5634 3.91041 33.9622 4.89518 32.898 5.95767C31.5293 7.32424 30.7778 8.91792 30.219 11.6388C30.165 11.9012 30.1158 12.0123 30.1095 11.8857C30.0973 11.6394 30.071 11.63 28.8259 11.4278C27.5023 11.2129 27.6225 11.3341 27.6894 10.2813C27.7622 9.13432 28.0604 7.98245 28.5527 6.94467C29.6538 4.6245 32.8052 3.01947 37.8381 2.21537C41.2335 1.67294 42.7932 1.56596 43.6165 1.81894ZM41.2309 6.64345C41.2309 7.17082 41.2393 7.18567 41.5379 7.18567C41.7067 7.18567 42.148 7.28173 42.5186 7.3991C44.7861 8.11711 46.1276 10.4855 46.1509 13.8123C46.1682 16.2775 45.5418 17.8698 43.9893 19.3071C42.601 20.5925 40.8949 21.0566 39.3318 20.5741C38.8719 20.4323 38.5957 20.2485 38.0968 19.7524C37.7434 19.4011 37.3505 18.8971 37.2235 18.6325C36.3721 16.8573 36.2263 13.8003 36.9016 11.879C37.586 9.93154 38.6354 8.49795 39.9123 7.76606C40.2002 7.60097 40.4472 7.45911 40.4611 7.45063C40.526 7.4115 40.1273 6.54951 40.0443 6.54951C39.788 6.54951 39.0806 7.02514 38.4012 7.65409C37.2661 8.70513 36.3091 10.3203 35.7577 12.1159C35.5052 12.9379 35.4719 16.3351 35.7072 17.2582C36.1144 18.8556 36.8325 20.1179 37.7243 20.8041C38.4379 21.3531 38.825 21.5261 39.7466 21.7079C41.4905 22.0517 43.8132 21.0645 45.3391 19.331C45.9991 18.5813 46.7955 16.9206 46.9964 15.8754C47.4307 13.6158 47.0234 10.8688 45.9795 9.01791C45.1703 7.58295 43.4457 6.43341 41.7121 6.17343L41.2309 6.10134V6.64345ZM39.4385 9.20886C39.3656 9.45166 39.3456 9.68725 39.3938 9.73242C39.4421 9.77759 39.8632 9.96695 40.3297 10.1532C41.5976 10.6596 44.9608 11.9568 45.0058 11.9568C45.1008 11.9568 45.3626 11.1699 45.2889 11.106C45.228 11.0532 40.7866 9.23388 39.7108 8.82102C39.6188 8.78571 39.5253 8.91877 39.4385 9.20886ZM26.4403 12.0066C26.9651 12.0993 27.6464 12.2253 27.9542 12.2863L28.514 12.3973L28.1764 12.9988C26.3474 16.2569 25.9224 16.9414 25.7614 16.889C23.503 16.1538 22.8393 15.8995 22.866 15.7802C22.8828 15.7048 23.4076 14.7666 24.0323 13.6953C24.8359 12.3168 25.2145 11.7606 25.327 11.7926C25.4145 11.8175 25.9154 11.9138 26.4403 12.0066ZM37.6998 12.4605C37.6113 12.6792 37.5704 12.8909 37.609 12.9311C37.6475 12.9712 38.3232 13.2515 39.1104 13.5538C39.8977 13.8562 41.5131 14.4794 42.7001 14.9387C43.8872 15.398 44.9005 15.7738 44.9517 15.7738C45.0357 15.7738 45.366 15.1063 45.366 14.9366C45.366 14.8987 44.9961 14.7314 44.5443 14.565C44.0924 14.3986 42.444 13.7677 40.8813 13.1627C39.3187 12.5578 37.9997 12.0629 37.9504 12.0629C37.9011 12.0629 37.7884 12.2418 37.6998 12.4605ZM30.0683 12.8831C30.0439 13.0443 30.0233 12.9376 30.0225 12.646C30.0217 12.3544 30.0417 12.2226 30.0668 12.353C30.0919 12.4834 30.0926 12.7219 30.0683 12.8831ZM29.8923 20.9691C29.8334 21.6397 29.7587 22.3315 29.726 22.5065C29.629 23.0269 29.2378 24.1684 28.9792 24.6851C28.6971 25.2491 27.7966 26.1643 27.5237 26.1643C27.3624 26.1644 26.1967 25.7623 25.3373 25.4103L25.0824 25.3059L25.3373 25.1357C25.887 24.7686 26.2144 24.3886 26.5065 23.7788C26.6741 23.4289 26.8113 23.0433 26.8113 22.9218C26.8114 22.8003 26.8364 22.6758 26.8669 22.6453C26.8976 22.6146 27.2241 22.6618 27.5928 22.75C28.245 22.9061 28.2691 22.9042 28.4914 22.6819C28.617 22.5563 28.8153 22.4534 28.9319 22.4534C29.0485 22.4534 29.1439 22.4176 29.1441 22.3739C29.1441 22.3302 29.3106 20.4336 29.514 18.1594C29.7174 15.8851 29.8956 13.8812 29.9099 13.7063C29.9242 13.5313 29.9501 14.8196 29.9676 16.569C29.9849 18.3184 29.9511 20.2985 29.8923 20.9691ZM28.8778 14.1569C28.8511 14.3172 28.7045 15.856 28.5522 17.5762C28.3999 19.2965 28.2655 20.7144 28.2536 20.727C28.2152 20.7679 26.8114 17.6037 26.8114 17.476C26.8114 17.408 27.067 16.9137 27.3794 16.3775C27.6917 15.8413 28.1331 15.0572 28.3601 14.6348C28.7954 13.8247 28.9585 13.6742 28.8778 14.1569ZM37.6885 16.0991C37.591 16.3429 37.5251 16.5544 37.5421 16.569C37.5591 16.5836 38.1694 16.8213 38.8984 17.0972C39.6273 17.3732 40.8201 17.8376 41.549 18.1294C42.278 18.4212 42.9285 18.6815 42.9947 18.7079C43.0622 18.7348 43.1865 18.546 43.2781 18.2772L43.4412 17.7985L42.4156 17.4078C41.5698 17.0855 40.6545 16.7331 37.9845 15.7016C37.9193 15.6764 37.7861 15.8552 37.6885 16.0991ZM24.5092 17.505L25.8649 17.9473L26.711 19.7922C27.1763 20.8069 27.537 21.6571 27.5126 21.6816C27.4881 21.7061 26.7097 21.5278 25.7827 21.2857L24.0972 20.8452L23.4929 19.0219C23.1604 18.0191 22.8884 17.1643 22.8884 17.1224C22.8884 16.9951 23.0984 17.0446 24.5092 17.505ZM25.0619 22.1174C25.7222 22.2858 25.8077 22.3369 25.8366 22.5807C25.9353 23.4146 24.6901 24.6789 23.7684 24.6805C23.456 24.6811 22.4633 24.3618 22.4656 24.2614C22.4663 24.2293 22.6297 24.0975 22.8286 23.9687C23.2676 23.6844 23.7835 22.9579 23.9693 22.3624C24.0446 22.1208 24.1544 21.9244 24.213 21.9258C24.2717 21.927 24.6537 22.0133 25.0619 22.1174ZM25.221 26.4298L27.1825 27.1819L27.2117 28.7936C27.2278 29.6801 27.2203 30.4054 27.1951 30.4054C27.1698 30.4054 26.0881 29.9021 24.7911 29.2871C23.4941 28.6719 22.2731 28.1018 22.0776 28.0201L21.7221 27.8716V26.4943V25.1169L22.4908 25.3973C22.9136 25.5514 24.1422 26.016 25.221 26.4298ZM23.556 29.7825C24.5593 30.2563 25.6132 30.7615 25.8982 30.905L26.4163 31.1658L25.3315 31.6857L24.2466 32.2055L23.2353 31.6021L22.2241 30.9986L21.9736 31.3117C21.8359 31.4838 21.723 31.6818 21.7226 31.7514C21.7223 31.8211 22.0385 32.0675 22.4253 32.2992L23.1284 32.7203L22.6108 32.9816C22.3261 33.1254 21.5526 33.4896 20.8918 33.7909L19.6904 34.3389L19.1331 34.0243C18.8264 33.8514 18.2718 33.5135 17.9006 33.2734L17.2255 32.8371L16.9827 33.2382C16.8493 33.4588 16.7397 33.6634 16.7394 33.693C16.7391 33.7226 17.144 33.985 17.6393 34.2761C18.1345 34.5673 18.5384 34.8294 18.5369 34.8585C18.5332 34.927 14.1747 36.9793 14.0349 36.9783C13.9768 36.978 13.3328 36.6205 12.6039 36.1838C11.8749 35.7472 11.2475 35.3897 11.2095 35.3894C11.1483 35.3888 10.6954 36.0855 10.6954 36.18C10.6954 36.2005 11.1725 36.4931 11.7556 36.8305C12.3388 37.1678 12.8159 37.4733 12.8159 37.5096C12.8159 37.5458 11.8995 38.015 10.7796 38.5524L8.74312 39.5294L6.35297 38.1649C5.03835 37.4145 3.593 36.5927 3.14101 36.3385C2.68902 36.0845 2.31931 35.8457 2.31931 35.808C2.31931 35.7402 2.91305 35.5244 10.8544 32.706C13.0704 31.9195 16.3386 30.7518 18.1172 30.1111C19.8958 29.4704 21.4368 28.9406 21.5415 28.9336C21.6463 28.9267 22.5528 29.3087 23.556 29.7825ZM3.94798 37.9751C5.414 38.8144 6.80422 39.6064 7.03748 39.7349C8.18001 40.3648 8.1797 40.3644 8.11619 40.8373C8.00581 41.6604 7.33096 41.849 6.02121 41.4229C5.33618 41.1999 2.81191 39.9328 2.08913 39.4489C1.28502 38.9106 0.862508 37.8854 1.06184 36.9559C1.12164 36.6771 1.19585 36.4489 1.2266 36.4489C1.25746 36.4489 2.48206 37.1356 3.94798 37.9751Z" fill="black"/>
</svg>
