<svg width="77" height="46" viewBox="0 0 77 46" fill="none" xmlns="http://www.w3.org/2000/svg">
<path fill-rule="evenodd" clip-rule="evenodd" d="M0.142319 0.118039C0.131335 0.18378 0.108733 0.327041 0.0920192 0.436397C0.00956462 0.975057 0.32235 1.15016 1.67855 1.32525C3.42411 1.55065 4.17814 1.95735 4.65901 2.93295C5.00857 3.64241 5.01908 3.81783 5.09676 10.2657L5.17635 16.8716L8.07165 16.9149L10.9669 16.9584L11.0265 10.4682C11.0925 3.28983 11.1172 3.09341 12.0802 2.13054C12.8706 1.34021 13.9573 1.11816 16.3984 1.24805C18.1168 1.33958 19.628 1.67099 20.5821 2.16587C22.0797 2.94235 23.339 4.64779 23.8862 6.64039C24.4158 8.56836 24.4273 12.315 23.9096 14.2268C23.7108 14.961 23.4162 15.8347 23.2549 16.1687C23.0935 16.5025 23.001 16.8153 23.0493 16.8635C23.0975 16.9117 24.1154 16.9512 25.3112 16.9512C27.8036 16.9512 27.629 17.0383 28.7993 15.2126C29.8314 13.6025 30.2911 11.9726 30.3065 9.86774C30.322 7.7739 29.9594 6.39621 29.006 4.92651C27.3006 2.29736 24.5919 0.794548 20.3779 0.139846C19.4049 -0.0113742 0.16731 -0.0320664 0.142319 0.118039ZM38.5711 0.186009C38.5314 0.289157 38.5227 0.538747 38.5515 0.740744C38.5988 1.072 38.7319 1.12628 39.9017 1.29198C41.648 1.53951 42.26 1.76235 42.7312 2.32234C43.4661 3.19576 43.5077 3.5953 43.5772 10.4682L43.643 16.9584L46.5354 16.9149L49.428 16.8716L49.4409 10.8228C49.4575 3.09739 49.5983 2.36994 51.2231 1.61941C51.8955 1.30886 52.2272 1.27352 54.3626 1.28561C56.9721 1.30058 58.0121 1.49605 59.8033 2.30818C61.9411 3.27742 63.5171 5.49749 64.0827 8.33596C64.4451 10.1552 64.3324 14.1552 63.8748 15.7136C63.7017 16.3022 63.5979 16.8216 63.644 16.8676C63.69 16.9136 64.8965 16.9512 66.3252 16.9512H68.9228L69.3804 16.0359C70.3751 14.0462 70.5999 13.0747 70.5867 10.8228C70.5765 9.10607 70.5132 8.57712 70.2145 7.71882C68.7682 3.56187 64.9922 0.9975 59.0583 0.142551C57.5636 -0.0728174 38.6551 -0.0327027 38.5711 0.186009ZM4.76582 20.8113C4.72635 21.4346 4.81294 24.9741 4.87136 25.1266C4.91895 25.2504 5.32406 25.2826 6.14781 25.2277C7.16894 25.1597 7.40134 25.0897 7.65826 24.7724C8.05971 24.2766 8.04554 23.5678 7.62627 23.1771C7.31189 22.8843 7.30679 22.8413 7.54668 22.4989C7.93459 21.9449 7.86949 21.3246 7.38336 20.9423C7.05163 20.6812 6.73566 20.6123 5.87116 20.6123C5.10981 20.6123 4.77458 20.6726 4.76582 20.8113ZM10.4192 20.8197C10.3754 20.9337 10.3598 21.9545 10.3845 23.088L10.4292 25.1489L11.9812 25.1944C12.9753 25.2237 13.5332 25.1807 13.5332 25.075C13.5332 24.9775 13.0915 24.9101 12.4508 24.9101C11.2011 24.9101 10.9864 24.7667 10.9864 23.9326C10.9864 23.2263 11.1495 23.0991 12.1006 23.0648C13.1555 23.0267 13.2149 23.0148 13.2149 22.8408C13.2149 22.751 12.7649 22.6816 12.1832 22.6816C11.2272 22.6816 11.1446 22.6536 11.0558 22.2999C11.0031 22.09 10.9838 21.7496 11.013 21.5438C11.0615 21.2013 11.1594 21.1627 12.1678 21.0898C12.8468 21.0408 13.2946 20.9338 13.3351 20.8113C13.4309 20.5201 10.531 20.5284 10.4192 20.8197ZM15.7087 20.7185C15.4561 20.9709 15.6498 21.0898 16.3141 21.0898H17.0256L17.0702 23.1194C17.112 25.0279 17.1337 25.1489 17.4331 25.1489C17.7341 25.1489 17.7519 25.0402 17.7591 23.1592L17.7666 21.1694L18.1571 21.1249C18.9036 21.0397 19.2637 20.9237 19.2637 20.7685C19.2637 20.5938 15.881 20.5462 15.7087 20.7185ZM21.4435 20.714C21.2324 20.9251 21.5323 21.0898 22.1276 21.0898C22.8991 21.0898 22.9595 21.2506 22.9225 23.2053C22.884 25.2423 22.882 25.2285 23.2431 25.2285C23.5451 25.2285 23.5615 25.1223 23.5615 23.1682V21.1081L24.2256 21.0591C24.5909 21.0322 24.9193 20.9208 24.9553 20.8113C25.0049 20.6602 24.6019 20.6123 23.2829 20.6123C22.3272 20.6123 21.4995 20.6581 21.4435 20.714ZM27.3345 20.7127C27.1249 20.9222 27.2049 25.0177 27.4216 25.1723C27.6785 25.3555 30.247 25.2509 30.247 25.0572C30.247 24.9763 29.7957 24.9101 29.2442 24.9101C28.0795 24.9101 27.8593 24.7548 27.8593 23.9326C27.8593 23.2515 27.979 23.1378 28.6971 23.1374C29.4411 23.1369 30.0878 22.9965 30.0878 22.8354C30.0878 22.7588 29.6042 22.6749 29.0134 22.6491L27.9389 22.602V21.8857V21.1694L29.0157 21.0898C29.6081 21.0461 30.092 20.9386 30.0912 20.8511C30.0896 20.6698 27.507 20.54 27.3345 20.7127ZM32.9 20.7185C32.8416 20.7767 32.7938 21.8154 32.7938 23.0266C32.7938 25.1223 32.8091 25.2285 33.1122 25.2285C33.392 25.2285 33.4306 25.1223 33.4306 24.353C33.4306 23.5038 33.4438 23.4775 33.8683 23.4783C34.2247 23.4789 34.4097 23.6416 34.8632 24.353C35.1898 24.8654 35.5355 25.2272 35.6989 25.2277C36.0335 25.2286 36.0655 24.863 35.7533 24.6039C35.6301 24.5017 35.4139 24.175 35.2731 23.8782C35.0239 23.3532 35.0279 23.3273 35.4176 22.9376C36.0844 22.2708 35.9196 21.2485 35.0727 20.7974C34.7018 20.6 33.0775 20.5408 32.9 20.7185ZM41.4591 20.8197C41.4153 20.9337 41.3997 21.9535 41.4244 23.0861C41.4637 24.8995 41.5024 25.1513 41.7477 25.1984C41.9856 25.2441 42.0262 25.1244 42.0262 24.378C42.0262 23.0277 42.5693 23.0465 43.4556 24.4277C43.7761 24.927 44.0831 25.2285 44.2713 25.2285C44.6753 25.2285 44.6541 25.1137 44.0955 24.2734C43.8337 23.8794 43.6191 23.5066 43.6186 23.4449C43.6183 23.3833 43.7971 23.1537 44.0159 22.9349C44.7205 22.2304 44.4855 21.1315 43.5548 20.7777C42.9264 20.5388 41.5563 20.5663 41.4591 20.8197ZM47.02 20.8113C46.9437 20.9208 46.9031 21.9593 46.9299 23.1194L46.9784 25.2285H48.3929C50.1216 25.2285 50.4808 24.9439 48.8362 24.8773L47.6771 24.8305V23.9606V23.0907L48.6186 23.0851C49.226 23.0815 49.5839 23.0089 49.6267 22.8806C49.6755 22.7348 49.4131 22.6816 48.6453 22.6816H47.5975V21.893V21.1043L48.6592 21.0574C49.3314 21.0274 49.7451 20.9372 49.7868 20.8113C49.8358 20.6626 49.5121 20.6123 48.5057 20.6123C47.6085 20.6123 47.1126 20.6787 47.02 20.8113ZM53.7044 20.8791C53.6493 21.0387 53.2915 21.9644 52.9089 22.9358C52.5266 23.9075 52.2136 24.8267 52.2136 24.9787C52.2136 25.4193 52.5866 25.1782 52.8914 24.5405C53.1678 23.9622 53.1829 23.9551 54.1263 23.9551H55.0814L55.3363 24.5918C55.5077 25.0204 55.6893 25.2285 55.8921 25.2285C56.0577 25.2285 56.1931 25.1809 56.1931 25.1226C56.1931 24.9294 55.2135 22.4567 54.7847 21.5674C54.3482 20.662 53.8817 20.3648 53.7044 20.8791ZM58.5625 20.7997C58.5525 20.9155 58.5512 21.7624 58.5599 22.6816C58.5687 23.6009 58.5768 24.5501 58.5783 24.7907L58.5808 25.2285H60.0134C60.8623 25.2285 61.446 25.1637 61.446 25.0693C61.446 24.9784 60.9701 24.9101 60.3364 24.9101H59.2267L59.1823 22.8029C59.1432 20.9434 59.1051 20.6895 58.8594 20.6424C58.7062 20.6129 58.5725 20.6838 58.5625 20.7997ZM63.0378 20.8511C63.0378 21.0278 63.2229 21.0898 63.7493 21.0898H64.4609L64.5054 23.1194C64.5487 25.0873 64.5608 25.1505 64.9081 25.1998C65.2639 25.2503 65.2663 25.2366 65.2663 23.1703V21.0898H65.886C66.29 21.0898 66.5375 21.0067 66.5974 20.8511C66.6755 20.6473 66.4207 20.6123 64.8634 20.6123C63.3468 20.6123 63.0378 20.6527 63.0378 20.8511ZM68.7682 20.7734C68.7682 20.862 69.1086 21.4461 69.5243 22.0715C70.1482 23.0097 70.2839 23.3435 70.3003 23.9797C70.3317 25.1941 70.342 25.2285 70.6784 25.2285C70.962 25.2285 70.9967 25.1223 70.9967 24.2538C70.9967 23.3788 71.0704 23.1577 71.7159 22.0944C72.3685 21.0196 72.4806 20.6123 72.1242 20.6123C72.0543 20.6123 71.7318 21.0421 71.4076 21.5674C71.0833 22.0927 70.7688 22.5205 70.7085 22.518C70.6481 22.5156 70.3127 22.0858 69.963 21.5629C69.5891 21.0039 69.2122 20.6123 69.0478 20.6123C68.894 20.6123 68.7682 20.6847 68.7682 20.7734ZM6.82782 21.2334C7.14745 21.4357 7.09715 22.2219 6.74823 22.4772C6.58412 22.5974 6.23488 22.6746 5.97224 22.6488C5.5232 22.6049 5.49184 22.5568 5.44615 21.8459L5.3976 21.0898L6.00328 21.0922C6.33644 21.0937 6.70749 21.1572 6.82782 21.2334ZM34.93 21.3942C35.5698 22.1011 34.8196 23.1834 33.8573 22.9419C33.4683 22.8443 33.4306 22.7668 33.4306 22.0685C33.4306 21.647 33.4783 21.2543 33.5367 21.196C33.7618 20.9708 34.6629 21.0991 34.93 21.3942ZM43.5612 21.5C43.9395 22.0777 43.7008 22.7028 43.0281 22.8957C42.2029 23.1323 42.0262 22.9691 42.0262 21.9703V21.0898H42.6593C43.1639 21.0898 43.3468 21.1731 43.5612 21.5ZM54.556 22.6816C54.8376 23.4669 54.8317 23.4775 54.1238 23.4775C53.379 23.4775 53.3128 23.2454 53.7617 22.2093C54.0647 21.5094 54.155 21.5631 54.556 22.6816ZM7.12071 23.4178C7.6312 24.116 7.18279 24.7931 6.19541 24.8149L5.4947 24.8305L5.44488 24.1359C5.36895 23.077 5.46732 22.9438 6.2481 23.0484C6.61644 23.0979 7.00785 23.2636 7.12071 23.4178ZM5.19481 29.4561C5.14085 29.5967 5.09676 31.9227 5.09676 34.6253C5.09676 40.0628 5.00204 40.8805 4.27619 41.7073C3.78751 42.2638 2.56995 42.7381 1.63 42.7381C0.771074 42.7381 0.173994 42.9279 0.0776912 43.2314C-0.171742 44.0173 -0.451736 43.9941 10.1136 44.0647C15.7379 44.1025 20.596 44.066 21.4126 43.9801C26.6725 43.4263 30.8436 40.7562 32.631 36.7987C33.3564 35.1926 33.6389 33.5847 33.5597 31.5132C33.5153 30.3529 33.4162 29.6213 33.2819 29.4594C33.1057 29.2471 32.6216 29.2079 30.169 29.2079H27.2648L27.2551 31.5558C27.2407 35.0694 26.595 37.3436 25.1041 39.1324C23.1849 41.4351 20.1196 42.5933 15.8413 42.6323C13.8904 42.6501 13.5237 42.6114 12.8965 42.3206C12.0565 41.9311 11.7367 41.6034 11.3568 40.7425C11.1158 40.1967 11.0668 39.383 10.9926 34.6996L10.9068 29.2875L8.09982 29.2441C5.64465 29.2062 5.28045 29.2328 5.19481 29.4561ZM43.7242 29.3141C43.6658 29.3724 43.6166 31.5035 43.6148 34.0497C43.6115 38.9734 43.5001 40.3344 43.0235 41.275C42.6238 42.0642 41.6278 42.5498 40.0452 42.7273C39.366 42.8036 38.7405 42.9358 38.655 43.0213C38.5693 43.107 38.5229 43.3707 38.5517 43.6076L38.6039 44.0383L46.4832 44.0382H54.3626L54.4106 43.4893C54.4549 42.9858 54.4168 42.932 53.953 42.8392C53.6749 42.7837 53.217 42.7381 52.9354 42.7381C52.1107 42.7381 50.9332 42.3135 50.4353 41.8364C49.5805 41.0176 49.4783 40.2526 49.4748 34.6539C49.4732 31.8842 49.4365 29.526 49.3932 29.4131C49.333 29.2567 48.6632 29.2079 46.5724 29.2079C45.0641 29.2079 43.7824 29.2557 43.7242 29.3141ZM61.8249 29.4391C61.7762 29.5663 61.7787 29.739 61.8306 29.8232C61.8826 29.9072 62.4162 32.1849 63.0165 34.8846C64.2601 40.4781 64.7081 41.7493 65.9103 43.0982C67.2822 44.6375 69.4349 45.3292 71.7235 44.9663C73.4197 44.6973 74.3914 44.173 75.7105 42.8149C77.0076 41.4794 77.2345 41.0415 76.7958 40.7207C76.3289 40.3794 76.1503 40.4601 75.1809 41.4509C73.124 43.553 71.162 42.9529 70.246 39.9412C70.0616 39.3346 69.3981 36.7131 68.7716 34.1156C67.9778 30.8243 67.5594 29.3649 67.3915 29.3004C67.2589 29.2497 65.9721 29.2079 64.532 29.2079C62.3898 29.2079 61.8974 29.25 61.8249 29.4391Z" fill="white"/>
</svg>
