<svg width="79" height="46" viewBox="0 0 79 46" fill="none" xmlns="http://www.w3.org/2000/svg">
<path fill-rule="evenodd" clip-rule="evenodd" d="M0.144578 0.119913C0.13342 0.186697 0.110459 0.332232 0.0934799 0.443324C0.00971645 0.990536 0.327467 1.16841 1.7052 1.34629C3.47846 1.57527 4.24446 1.98842 4.73297 2.97951C5.08808 3.70023 5.09875 3.87844 5.17766 10.4286L5.25852 17.1394L8.19978 17.1834L11.141 17.2276L11.2015 10.6343C11.2686 3.34206 11.2937 3.14251 12.272 2.16436C13.0749 1.36149 14.1788 1.13591 16.6588 1.26786C18.4044 1.36084 19.9396 1.69751 20.9089 2.20025C22.4302 2.98905 23.7095 4.72157 24.2654 6.7458C24.8034 8.70438 24.815 12.5104 24.2892 14.4527C24.0872 15.1985 23.7879 16.0861 23.6241 16.4253C23.4601 16.7644 23.3662 17.0822 23.4151 17.1312C23.4641 17.1802 24.4983 17.2203 25.713 17.2203C28.245 17.2203 28.0676 17.3087 29.2564 15.4541C30.3049 13.8185 30.7719 12.1626 30.7876 10.0244C30.8033 7.8973 30.4349 6.49774 29.4665 5.00472C27.734 2.33383 24.9822 0.807161 20.7014 0.142066C19.7129 -0.0115547 0.169966 -0.0325754 0.144578 0.119913ZM39.1834 0.188962C39.1431 0.293747 39.1342 0.547299 39.1635 0.752503C39.2115 1.08901 39.3467 1.14416 40.5351 1.31249C42.3092 1.56394 42.9309 1.79033 43.4096 2.35921C44.1561 3.24649 44.1984 3.65237 44.269 10.6343L44.3358 17.2276L47.2742 17.1834L50.2127 17.1394L50.2258 10.9946C50.2426 3.14656 50.3857 2.40756 52.0362 1.64512C52.7193 1.32963 53.0563 1.29373 55.2255 1.30602C57.8765 1.32122 58.933 1.5198 60.7526 2.34482C62.9243 3.32945 64.5254 5.58476 65.0999 8.46829C65.4681 10.3164 65.3537 14.3799 64.8887 15.963C64.713 16.561 64.6075 17.0887 64.6543 17.1354C64.701 17.1821 65.9267 17.2203 67.378 17.2203H70.0169L70.4818 16.2905C71.4923 14.2692 71.7206 13.2823 71.7072 10.9946C71.6969 9.25062 71.6325 8.71327 71.3292 7.84135C69.8599 3.61841 66.0239 1.01333 59.9959 0.144814C58.4774 -0.0739734 39.2688 -0.0332219 39.1834 0.188962ZM4.84148 21.1416C4.80138 21.7749 4.88934 25.3706 4.94869 25.5255C4.99704 25.6513 5.40858 25.6839 6.24541 25.6282C7.28275 25.5591 7.51884 25.488 7.77983 25.1657C8.18765 24.662 8.17326 23.9419 7.74733 23.5451C7.42796 23.2475 7.42279 23.2039 7.66648 22.856C8.06055 22.2933 7.99442 21.6631 7.50057 21.2747C7.16357 21.0095 6.84259 20.9395 5.96436 20.9395C5.19093 20.9395 4.85037 21.0008 4.84148 21.1416ZM10.5846 21.1502C10.5401 21.266 10.5243 22.303 10.5494 23.4545L10.5948 25.5481L12.1714 25.5944C13.1813 25.6241 13.7481 25.5805 13.7481 25.4731C13.7481 25.374 13.2993 25.3056 12.6485 25.3056C11.3789 25.3056 11.1608 25.1599 11.1608 24.3125C11.1608 23.595 11.3265 23.4658 12.2927 23.4309C13.3643 23.3923 13.4247 23.3801 13.4247 23.2034C13.4247 23.1122 12.9675 23.0417 12.3766 23.0417C11.4054 23.0417 11.3215 23.0132 11.2313 22.6539C11.1778 22.4406 11.1582 22.0949 11.1878 21.8858C11.2371 21.5378 11.3365 21.4987 12.361 21.4246C13.0508 21.3748 13.5057 21.2662 13.5467 21.1416C13.6441 20.8459 10.6981 20.8543 10.5846 21.1502ZM15.9581 21.0474C15.7015 21.3038 15.8983 21.4246 16.5731 21.4246H17.2959L17.3412 23.4864C17.3837 25.4252 17.4057 25.5481 17.7098 25.5481C18.0156 25.5481 18.0337 25.4377 18.041 23.5268L18.0486 21.5055L18.4453 21.4602C19.2037 21.3737 19.5695 21.2558 19.5695 21.0981C19.5695 20.9207 16.1331 20.8724 15.9581 21.0474ZM21.7839 21.0428C21.5694 21.2573 21.8741 21.4246 22.4789 21.4246C23.2627 21.4246 23.3239 21.5879 23.2864 23.5737C23.2473 25.643 23.2452 25.629 23.6121 25.629C23.9189 25.629 23.9355 25.5211 23.9355 23.536V21.4432L24.6102 21.3934C24.9813 21.3661 25.3149 21.2529 25.3514 21.1416C25.4019 20.9882 24.9924 20.9395 23.6525 20.9395C22.6817 20.9395 21.8408 20.9861 21.7839 21.0428ZM27.7684 21.0415C27.5555 21.2543 27.6368 25.4149 27.8569 25.5719C28.1179 25.758 30.7271 25.6518 30.7271 25.455C30.7271 25.3728 30.2687 25.3056 29.7084 25.3056C28.5252 25.3056 28.3016 25.1477 28.3016 24.3125C28.3016 23.6206 28.4232 23.5051 29.1526 23.5046C29.9084 23.5042 30.5654 23.3615 30.5654 23.1979C30.5654 23.1201 30.0742 23.0349 29.4739 23.0087L28.3824 22.9608V22.2332V21.5055L29.4764 21.4246C30.0781 21.3802 30.5696 21.271 30.5688 21.1821C30.5672 20.9979 27.9437 20.8661 27.7684 21.0415ZM33.4223 21.0474C33.3629 21.1065 33.3144 22.1617 33.3144 23.3921C33.3144 25.5211 33.33 25.629 33.6379 25.629C33.9221 25.629 33.9613 25.5211 33.9613 24.7396C33.9613 23.8769 33.9747 23.8502 34.406 23.851C34.768 23.8517 34.9559 24.0169 35.4166 24.7396C35.7484 25.2601 36.0997 25.6277 36.2656 25.6282C36.6055 25.6291 36.638 25.2577 36.3209 24.9944C36.1957 24.8906 35.9761 24.5588 35.833 24.2572C35.5799 23.7239 35.584 23.6976 35.9798 23.3017C36.6572 22.6243 36.4899 21.5858 35.6294 21.1276C35.2526 20.9271 33.6026 20.8669 33.4223 21.0474ZM42.1172 21.1502C42.0727 21.266 42.0569 22.302 42.082 23.4526C42.1219 25.2947 42.1612 25.5505 42.4104 25.5984C42.6521 25.6448 42.6934 25.5232 42.6934 24.765C42.6934 23.3932 43.2451 23.4123 44.1455 24.8154C44.471 25.3227 44.7829 25.629 44.9741 25.629C45.3845 25.629 45.363 25.5124 44.7955 24.6587C44.5295 24.2585 44.3116 23.8798 44.3111 23.8171C44.3107 23.7545 44.4923 23.5213 44.7147 23.299C45.4304 22.5832 45.1917 21.467 44.2462 21.1075C43.6078 20.8648 42.216 20.8928 42.1172 21.1502ZM47.7664 21.1416C47.6889 21.2529 47.6477 22.3079 47.6749 23.4864L47.7242 25.629H49.1611C50.9172 25.629 51.2822 25.3398 49.6115 25.2722L48.4339 25.2247V24.341V23.4573L49.3904 23.4516C50.0075 23.4479 50.371 23.3741 50.4145 23.2438C50.4641 23.0957 50.1975 23.0417 49.4176 23.0417H48.3531V22.2406V21.4393L49.4316 21.3916C50.1145 21.3612 50.5348 21.2695 50.5772 21.1416C50.627 20.9906 50.2981 20.9395 49.2757 20.9395C48.3642 20.9395 47.8605 21.0069 47.7664 21.1416ZM54.5569 21.2105C54.5009 21.3727 54.1374 22.313 53.7489 23.2999C53.3604 24.287 53.0425 25.2208 53.0425 25.3753C53.0425 25.8229 53.4214 25.5779 53.7311 24.9301C54.0118 24.3426 54.0271 24.3353 54.9856 24.3353H55.9558L56.2147 24.9821C56.3889 25.4176 56.5734 25.629 56.7794 25.629C56.9476 25.629 57.0852 25.5806 57.0852 25.5214C57.0852 25.3251 56.09 22.8132 55.6544 21.9097C55.211 20.99 54.737 20.6881 54.5569 21.2105ZM59.4921 21.1298C59.482 21.2476 59.4807 22.1078 59.4896 23.0417C59.4985 23.9755 59.5067 24.9398 59.5082 25.1843L59.5107 25.629H60.9661C61.8285 25.629 62.4214 25.5632 62.4214 25.4673C62.4214 25.3749 61.9379 25.3056 61.2942 25.3056H60.1669L60.1218 23.1649C60.0821 21.2759 60.0434 21.0179 59.7937 20.9701C59.6382 20.9402 59.5023 21.0121 59.4921 21.1298ZM64.0385 21.1821C64.0385 21.3616 64.2266 21.4246 64.7613 21.4246H65.4841L65.5294 23.4864C65.5734 25.4855 65.5857 25.5497 65.9385 25.5999C66.3 25.6511 66.3024 25.6372 66.3024 23.5381V21.4246H66.9319C67.3423 21.4246 67.5938 21.3402 67.6546 21.1821C67.734 20.9751 67.4751 20.9395 65.8931 20.9395C64.3524 20.9395 64.0385 20.9806 64.0385 21.1821ZM69.8599 21.1032C69.8599 21.1932 70.2056 21.7865 70.628 22.4219C71.2617 23.375 71.3997 23.7141 71.4163 24.3604C71.4482 25.594 71.4587 25.629 71.8004 25.629C72.0885 25.629 72.1238 25.5211 72.1238 24.6388C72.1238 23.75 72.1987 23.5253 72.8544 22.4451C73.5174 21.3533 73.6312 20.9395 73.2691 20.9395C73.1982 20.9395 72.8705 21.3761 72.5411 21.9097C72.2117 22.4434 71.8922 22.878 71.8309 22.8754C71.7697 22.873 71.4289 22.4364 71.0737 21.9052C70.6938 21.3373 70.3109 20.9395 70.1439 20.9395C69.9876 20.9395 69.8599 21.0131 69.8599 21.1032ZM6.93621 21.5705C7.26092 21.776 7.20982 22.5747 6.85536 22.834C6.68864 22.9561 6.33386 23.0346 6.06705 23.0084C5.61087 22.9637 5.57902 22.9149 5.53261 22.1927L5.48329 21.4246L6.09858 21.4271C6.43703 21.4285 6.81396 21.493 6.93621 21.5705ZM35.4845 21.7338C36.1344 22.4519 35.3723 23.5514 34.3948 23.3061C33.9996 23.2069 33.9613 23.1282 33.9613 22.4188C33.9613 21.9906 34.0098 21.5917 34.0691 21.5325C34.2978 21.3037 35.2132 21.434 35.4845 21.7338ZM44.2527 21.8413C44.6371 22.4282 44.3945 23.0632 43.7111 23.2592C42.8729 23.4995 42.6934 23.3337 42.6934 22.319V21.4246H43.3365C43.8491 21.4246 44.0349 21.5092 44.2527 21.8413ZM55.422 23.0417C55.7081 23.8394 55.7021 23.8502 54.983 23.8502C54.2264 23.8502 54.1591 23.6144 54.6151 22.5619C54.923 21.8509 55.0147 21.9054 55.422 23.0417ZM7.23375 23.7896C7.75234 24.4988 7.29682 25.1867 6.29376 25.2089L5.58193 25.2247L5.53131 24.519C5.45418 23.4434 5.55412 23.308 6.34728 23.4142C6.72147 23.4645 7.1191 23.6329 7.23375 23.7896ZM5.27728 29.9237C5.22246 30.0665 5.17766 32.4295 5.17766 35.1749C5.17766 40.6988 5.08145 41.5295 4.34407 42.3694C3.84764 42.9347 2.61075 43.4166 1.65588 43.4166C0.783314 43.4166 0.176756 43.6093 0.0789246 43.9177C-0.174468 44.716 -0.458908 44.6924 10.2741 44.7642C15.9877 44.8026 20.9229 44.7655 21.7525 44.6782C27.0959 44.1156 31.3332 41.4032 33.149 37.3829C33.8859 35.7513 34.1729 34.1179 34.0924 32.0134C34.0473 30.8348 33.9467 30.0916 33.8102 29.9271C33.6312 29.7114 33.1395 29.6716 30.6479 29.6716H27.6976L27.6877 32.0568C27.6732 35.6261 27.0171 37.9364 25.5026 39.7536C23.5529 42.0929 20.439 43.2694 16.0928 43.3091C14.1109 43.3272 13.7384 43.2879 13.1012 42.9924C12.2479 42.5967 11.9231 42.2638 11.5371 41.3893C11.2922 40.8348 11.2424 40.0082 11.1671 35.2505L11.0799 29.7525L8.2284 29.7083C5.73425 29.6698 5.36427 29.6968 5.27728 29.9237ZM44.4183 29.7795C44.3589 29.8386 44.309 32.0036 44.3072 34.5902C44.3038 39.5921 44.1906 40.9747 43.7065 41.9302C43.3004 42.7319 42.2886 43.2253 40.6809 43.4056C39.9909 43.483 39.3554 43.6174 39.2686 43.7043C39.1816 43.7913 39.1344 44.0592 39.1637 44.2998L39.2167 44.7374L47.2211 44.7372H55.2255L55.2744 44.1797C55.3193 43.6682 55.2807 43.6135 54.8095 43.5193C54.527 43.4628 54.0617 43.4166 53.7757 43.4166C52.9379 43.4166 51.7418 42.9852 51.2359 42.5005C50.3676 41.6687 50.2638 40.8916 50.2602 35.204C50.2586 32.3904 50.2212 29.9947 50.1773 29.88C50.1161 29.7211 49.4357 29.6716 47.3117 29.6716C45.7795 29.6716 44.4775 29.7201 44.4183 29.7795ZM62.8063 29.9064C62.7568 30.0356 62.7594 30.2111 62.8121 30.2966C62.865 30.382 63.407 32.6958 64.0168 35.4384C65.2802 41.1207 65.7353 42.4121 66.9566 43.7824C68.3502 45.3461 70.5371 46.0488 72.8621 45.6801C74.5853 45.4069 75.5723 44.8742 76.9124 43.4945C78.2301 42.1378 78.4605 41.693 78.0149 41.3671C77.5406 41.0204 77.3592 41.1024 76.3744 42.1089C74.2848 44.2444 72.2916 43.6347 71.3612 40.5753C71.1738 39.959 70.4998 37.2959 69.8633 34.6572C69.0569 31.3136 68.6319 29.831 68.4613 29.7656C68.3266 29.714 67.0194 29.6716 65.5564 29.6716C63.3802 29.6716 62.88 29.7143 62.8063 29.9064Z" fill="white"/>
</svg>
