<svg width="23" height="23" viewBox="0 0 23 23" fill="none" xmlns="http://www.w3.org/2000/svg">
<path fill-rule="evenodd" clip-rule="evenodd" d="M7.01034 0.0671507C8.20379 0.0122092 8.58431 0 11.6244 0C14.6645 0 15.045 0.0132266 16.2375 0.0671507C17.4299 0.121075 18.2438 0.311335 18.956 0.58706C19.7018 0.86889 20.3784 1.30944 20.938 1.8792C21.5078 2.43778 21.9473 3.11335 22.2281 3.86015C22.5049 4.57236 22.6941 5.3863 22.749 6.5767C22.804 7.77219 22.8162 8.15271 22.8162 11.1918C22.8162 14.2319 22.803 14.6124 22.749 15.8059C22.6951 16.9963 22.5049 17.8102 22.2281 18.5224C21.9473 19.2693 21.507 19.946 20.938 20.5054C20.3784 21.0752 19.7018 21.5147 18.956 21.7955C18.2438 22.0722 17.4299 22.2615 16.2395 22.3164C15.045 22.3714 14.6645 22.3836 11.6244 22.3836C8.58431 22.3836 8.20379 22.3704 7.01034 22.3164C5.81994 22.2625 5.00599 22.0722 4.29379 21.7955C3.54691 21.5147 2.87021 21.0744 2.3108 20.5054C1.74143 19.9465 1.30081 19.2701 1.01968 18.5234C0.743952 17.8112 0.554709 16.9973 0.499768 15.8069C0.444826 14.6114 0.432617 14.2309 0.432617 11.1918C0.432617 8.15169 0.445844 7.77117 0.499768 6.57874C0.553692 5.3863 0.743952 4.57236 1.01968 3.86015C1.30123 3.11344 1.74218 2.43708 2.31182 1.87819C2.87043 1.30893 3.54645 0.868324 4.29277 0.58706C5.00497 0.311335 5.81892 0.122092 7.00932 0.0671507H7.01034ZM16.1469 2.08167C14.9667 2.02775 14.6126 2.01656 11.6244 2.01656C8.6362 2.01656 8.28213 2.02775 7.10191 2.08167C6.0102 2.13153 5.41805 2.31365 5.02329 2.46728C4.50134 2.67077 4.12794 2.9119 3.73623 3.30361C3.36491 3.66486 3.07915 4.10462 2.8999 4.59067C2.74627 4.98543 2.56414 5.57758 2.51429 6.66929C2.46037 7.84951 2.44917 8.20358 2.44917 11.1918C2.44917 14.18 2.46037 14.5341 2.51429 15.7143C2.56414 16.806 2.74627 17.3981 2.8999 17.7929C3.07897 18.2782 3.36487 18.7188 3.73623 19.08C4.09742 19.4513 4.53797 19.7372 5.02329 19.9163C5.41805 20.0699 6.0102 20.2521 7.10191 20.3019C8.28213 20.3558 8.63518 20.367 11.6244 20.367C14.6136 20.367 14.9667 20.3558 16.1469 20.3019C17.2386 20.2521 17.8308 20.0699 18.2255 19.9163C18.7475 19.7128 19.1209 19.4717 19.5126 19.08C19.884 18.7188 20.1698 18.2782 20.3489 17.7929C20.5026 17.3981 20.6847 16.806 20.7345 15.7143C20.7885 14.5341 20.7996 14.18 20.7996 11.1918C20.7996 8.20358 20.7885 7.84951 20.7345 6.66929C20.6847 5.57758 20.5026 4.98543 20.3489 4.59067C20.1454 4.06872 19.9043 3.69533 19.5126 3.30361C19.1513 2.93232 18.7116 2.64656 18.2255 2.46728C17.8308 2.31365 17.2386 2.13153 16.1469 2.08167ZM10.1949 14.6419C10.9933 14.9742 11.8822 15.0191 12.7099 14.7688C13.5377 14.5185 14.2528 13.9886 14.7333 13.2696C15.2137 12.5506 15.4297 11.6872 15.3442 10.8266C15.2587 9.96613 14.8772 9.16198 14.2647 8.55155C13.8742 8.16133 13.4021 7.86255 12.8823 7.6767C12.3625 7.49085 11.808 7.42256 11.2586 7.47674C10.7093 7.53093 10.1788 7.70624 9.70533 7.99005C9.23186 8.27387 8.82722 8.65913 8.52052 9.11811C8.21382 9.57708 8.0127 10.0983 7.93164 10.6444C7.85058 11.1904 7.89159 11.7476 8.05172 12.2759C8.21186 12.8042 8.48713 13.2904 8.85772 13.6995C9.22831 14.1086 9.685 14.4305 10.1949 14.6419ZM7.5567 7.12408C8.09088 6.5899 8.72504 6.16617 9.42298 5.87708C10.1209 5.58798 10.869 5.43918 11.6244 5.43918C12.3799 5.43918 13.1279 5.58798 13.8258 5.87708C14.5238 6.16617 15.1579 6.5899 15.6921 7.12408C16.2263 7.65826 16.65 8.29243 16.9391 8.99036C17.2282 9.6883 17.377 10.4363 17.377 11.1918C17.377 11.9472 17.2282 12.6953 16.9391 13.3932C16.65 14.0912 16.2263 14.7253 15.6921 15.2595C14.6133 16.3383 13.1501 16.9444 11.6244 16.9444C10.0987 16.9444 8.63552 16.3383 7.5567 15.2595C6.47788 14.1807 5.8718 12.7175 5.8718 11.1918C5.8718 9.66611 6.47788 8.20291 7.5567 7.12408ZM18.6529 6.29589C18.7852 6.17102 18.8912 6.02086 18.9645 5.8543C19.0378 5.68774 19.0769 5.50816 19.0796 5.3262C19.0822 5.14425 19.0484 4.96361 18.9799 4.79498C18.9115 4.62635 18.81 4.47317 18.6813 4.34449C18.5526 4.21581 18.3994 4.11426 18.2308 4.04585C18.0622 3.97744 17.8815 3.94356 17.6996 3.94621C17.5176 3.94886 17.3381 3.988 17.1715 4.06129C17.0049 4.13459 16.8548 4.24056 16.7299 4.37294C16.487 4.63038 16.3541 4.97233 16.3593 5.3262C16.3644 5.68008 16.5073 6.01801 16.7575 6.26826C17.0078 6.51851 17.3457 6.66138 17.6996 6.66654C18.0535 6.6717 18.3954 6.53874 18.6529 6.29589Z" fill="white"/>
</svg>
