<svg width="28" height="23" viewBox="0 0 28 23" fill="none" xmlns="http://www.w3.org/2000/svg">
<path d="M0.865234 6.79146V17.884C0.865234 19.0698 1.33628 20.207 2.17476 21.0455C3.01324 21.884 4.15045 22.355 5.33624 22.355H23.2203C24.406 22.355 25.5433 21.884 26.3817 21.0455C27.2202 20.207 27.6913 19.0698 27.6913 17.884V4.471C27.6913 3.28522 27.2202 2.148 26.3817 1.30953C25.5433 0.471051 24.406 0 23.2203 0H5.33624C4.15045 0 3.01324 0.471051 2.17476 1.30953C1.33628 2.148 0.865234 3.28522 0.865234 4.471V6.79146ZM5.33624 2.2355H23.2203C23.8131 2.2355 24.3818 2.47103 24.801 2.89027C25.2202 3.3095 25.4558 3.87811 25.4558 4.471V6.12528L14.2782 12.1432L3.10074 6.12528V4.471C3.10074 3.87811 3.33626 3.3095 3.7555 2.89027C4.17474 2.47103 4.74335 2.2355 5.33624 2.2355ZM3.10074 8.66481L13.7484 14.3966C13.9113 14.4843 14.0933 14.5302 14.2782 14.5302C14.4632 14.5302 14.6452 14.4843 14.8081 14.3966L25.4558 8.66481V17.884C25.4558 18.4769 25.2202 19.0455 24.801 19.4648C24.3818 19.884 23.8131 20.1195 23.2203 20.1195H5.33624C4.74335 20.1195 4.17474 19.884 3.7555 19.4648C3.33626 19.0455 3.10074 18.4769 3.10074 17.884V8.66481Z" fill="white"/>
</svg>
