<?xml version="1.0" standalone="no"?>
<!DOCTYPE svg PUBLIC "-//W3C//DTD SVG 1.1//EN" "http://www.w3.org/Graphics/SVG/1.1/DTD/svg11.dtd" >
<svg>
<metadata>
Created by FontForge 20090914 at Sun Aug 21 14:20:08 2022
 By www-data
Data by Eraman, Ltd., and Type Solutions, Inc. &#194;&#169; 1993. Microsoft Corporation. All rights reserved.
</metadata>
<defs>
<font id="Haettenschweiler" horiz-adv-x="356" >
  <font-face 
    font-family="Haettenschweiler"
    font-weight="500"
    font-stretch="normal"
    units-per-em="1000"
    panose-1="2 11 7 6 4 9 2 6 2 4"
    ascent="800"
    descent="-200"
    x-height="567"
    cap-height="700"
    bbox="-62 -120.002 788 919.999"
    underline-thickness="80"
    underline-position="-50"
    unicode-range="U+0020-U+F002"
  />
<missing-glyph horiz-adv-x="353" 
d="M338 0h-320v570h320v-570zM322 16v538h-288v-538h288z" />
    <glyph glyph-name=".notdef" horiz-adv-x="353" 
d="M338 0h-320v570h320v-570zM322 16v538h-288v-538h288z" />
    <glyph glyph-name="space" unicode=" " horiz-adv-x="178" 
 />
    <glyph glyph-name="space" unicode="&#xa0;" horiz-adv-x="178" 
 />
    <glyph glyph-name="exclam" unicode="!" horiz-adv-x="168" 
d="M157 133h-139v567h139v-567zM157 0h-139v102h139v-102z" />
    <glyph glyph-name="quotedbl" unicode="&#x22;" horiz-adv-x="374" 
d="M363 700l-142 -243l-59 10l65 233h136zM211 700l-142 -243l-59 10l65 233h136z" />
    <glyph glyph-name="numbersign" unicode="#" horiz-adv-x="803" 
d="M785 562l-24 -139h-139l-25 -146h138l-25 -139h-138l-24 -138h-139l24 138h-146l-24 -138h-139l24 138h-138l25 139h137l26 146h-137l24 139h138l24 138h139l-24 -138h146l24 138h139l-24 -138h138zM483 423h-146l-25 -146h145z" />
    <glyph glyph-name="dollar" unicode="$" horiz-adv-x="379" 
d="M367 132c0 -36.667 -7.33398 -65.3369 -22.001 -86.0039c-17.333 -24 -45.666 -40 -84.999 -48v-46h-139v48c-37.333 8.66699 -65 26 -83 52c-14 20 -21 42.333 -21 67v160h140v-161c0 -7.33301 2.83301 -13.166 8.5 -17.499s12.5 -6.5 20.5 -6.5
c9.33301 0 16.333 2 21 6s7 10 7 18v83c0 19.333 -4.33301 34.666 -13 45.999l-75 79c-44 46.667 -68.667 73.334 -74 80.001c-23.333 30 -35 58 -35 84v79c0 34.667 8 62.834 24 84.501s42.667 36.5 80 44.5v48h139v-48c32.667 -8 57 -23 73 -45
c14 -19.333 21 -43.333 21 -72v-121h-140v129c0 6.66699 -2.16699 11.834 -6.5 15.501s-9.83301 5.5 -16.5 5.5c-16 0 -24 -7 -24 -21v-65c0 -22.667 10 -44.667 30 -66l79 -81c32 -33.333 52.667 -56.666 62 -69.999c19.333 -27.333 29 -56 29 -86v-89z" />
    <glyph glyph-name="percent" unicode="%" horiz-adv-x="346" 
d="M160 471c0 -14.667 -6.33301 -25.834 -19 -33.501s-29 -11.5 -49 -11.5c-18.667 0 -34.667 3.83301 -48 11.5s-20 18.834 -20 33.501v185c0 16 5.5 28.167 16.5 36.5s28.167 12.5 51.5 12.5c45.333 0 68 -16.333 68 -49v-185zM331 700l-253 -700h-67l253 700h67zM327 37
c0 -14.667 -6.33301 -25.834 -19 -33.501s-29 -11.5 -49 -11.5c-18.667 0 -34.667 3.83301 -48 11.5s-20 18.834 -20 33.501v185c0 16 5.5 28.167 16.5 36.5s28.167 12.5 51.5 12.5c45.333 0 68 -16.333 68 -49v-185zM101 469v193c0 5.33301 -3 8 -9 8
c-6.66699 0 -10 -2.66699 -10 -8v-193c0 -5.33301 3.33301 -8 10 -8c6 0 9 2.66699 9 8zM268 35v193c0 5.33301 -3 8 -9 8c-6.66699 0 -10 -2.66699 -10 -8v-193c0 -5.33301 3.33301 -8 10 -8c6 0 9 2.66699 9 8z" />
    <glyph glyph-name="ampersand" unicode="&#x26;" horiz-adv-x="426" 
d="M414 194h-49.998v-89c0 -32 -15.667 -58.833 -47 -80.5s-73 -32.5 -125 -32.5c-57.333 0 -101.333 14 -132 42c-28 25.333 -42 58 -42 98v131c1.33301 30 6.66602 52 15.999 66c16 24 41.333 40 76 48c-36.667 12.667 -61.334 29 -74.001 49
c-8.66699 13.333 -13 30.333 -13 51v103c0 36 15.5 65.833 46.5 89.5s69.5 35.5 115.5 35.5c51.333 0 92.333 -12.667 123 -38c28 -23.333 42 -53 42 -89v-86h-132v88c0 9.33301 -2.5 16.5 -7.5 21.5s-11.833 7.5 -20.5 7.5c-7.33301 0 -13.833 -2.5 -19.5 -7.5
s-8.5 -12.167 -8.5 -21.5v-111c0 -20 3.33301 -33 10 -39s22.667 -9 48 -9v-85c-25.333 0 -41 -2.66699 -47 -8s-9 -19 -9 -41v-168c0 -9.33301 2.5 -16.5 7.5 -21.5s11.833 -7.5 20.5 -7.5c9.33301 0 16.333 2.5 21 7.5s7 12.167 7 21.5v155h194v-80z" />
    <glyph glyph-name="quotesingle" unicode="'" horiz-adv-x="147" 
d="M145 629c0 -27.333 -8.33301 -51 -25 -71c-11.333 -13.333 -29.666 -28.333 -54.999 -45l-28 23c8 8 13.667 14.333 17 19c11.333 14.667 17.666 28.667 18.999 42h-55v102h127v-70z" />
    <glyph glyph-name="parenleft" unicode="(" horiz-adv-x="247" 
d="M238 -8l-89 -0.000976562c-56.667 0 -94 13.333 -112 40c-12.667 18.667 -19 51 -19 97v439c0 58.667 6 95.334 18 110.001c15.333 18 53 27 113 27h89v-76c-22 0 -37.667 -1 -47 -3c-22.667 -4.66699 -34 -15 -34 -31v-493c0 -14 7.66699 -23.667 23 -29
c10 -3.33301 24.333 -5 43 -5h15v-76z" />
    <glyph glyph-name="parenright" unicode=")" horiz-adv-x="247" 
d="M238 129c0 -46.667 -6 -78.667 -18 -96c-18.667 -27.333 -56.334 -41 -113.001 -41h-89v76h15c18 0 32 1.66699 42 5c16 5.33301 24 15 24 29v493c0 15.333 -8.66699 24.833 -26 28.5s-35.666 5.5 -54.999 5.5v76h89c60 0 97.333 -8.66699 112 -26
c12.667 -15.333 19 -52.333 19 -111v-439z" />
    <glyph glyph-name="asterisk" unicode="*" horiz-adv-x="421" 
d="M409 528l-133 -43l82 -112l-65 -47l-81 112l-81 -112l-65 47l82 112l-133 43l25 76l132 -43v139h80v-139l132 43z" />
    <glyph glyph-name="plus" unicode="+" horiz-adv-x="373" 
d="M369 136h-136v-136h-79v136h-136v79h136v136h79v-136h136v-79z" />
    <glyph glyph-name="comma" unicode="," horiz-adv-x="157" 
d="M144 32c0 -27.333 -8.33301 -51 -25 -71c-11.333 -13.333 -29.666 -28.333 -54.999 -45l-28 23c8 8 13.667 14.333 17 19c11.333 14.667 17.666 28.667 18.999 42h-55v102h127v-70z" />
    <glyph glyph-name="hyphen" unicode="-" horiz-adv-x="225" 
d="M217 136h-199v79h199v-79z" />
    <glyph glyph-name="hyphen" unicode="&#xad;" horiz-adv-x="225" 
d="M217 136h-199v79h199v-79z" />
    <glyph glyph-name="period" unicode="." horiz-adv-x="154" 
d="M145 0h-127v102h127v-102z" />
    <glyph glyph-name="slash" unicode="/" horiz-adv-x="334" 
d="M318 700l-224 -700h-83l224 700h83z" />
    <glyph glyph-name="zero" unicode="0" horiz-adv-x="388" 
d="M377 119c0 -40.667 -16.833 -72 -50.5 -94s-76.5 -33 -128.5 -33s-94.333 10.333 -127 31c-35.333 22.667 -53 54.334 -53 95.001v451c0 44 13.333 77 40 99c30 24.667 77 37 141 37c58.667 0 103 -11.833 133 -35.5s45 -56.834 45 -99.501v-451zM223 111v477
c0 7.33301 -2 12.666 -6 15.999s-10.333 5 -19 5s-15.167 -1.66699 -19.5 -5s-6.5 -8.66602 -6.5 -15.999v-477c0 -6.66699 2.16699 -11.834 6.5 -15.501s10.833 -5.5 19.5 -5.5s15 1.83301 19 5.5s6 8.83398 6 15.501z" />
    <glyph glyph-name="one" unicode="1" horiz-adv-x="244" 
d="M231 0h-154v513h-59v102c19.333 0 37.5 9.33301 54.5 28s25.5 37.667 25.5 57h133v-700z" />
    <glyph glyph-name="two" unicode="2" horiz-adv-x="376" 
d="M369 0l-351 0.000976562v93l173 317c12 22 19.667 42.5 23 61.5s5 41.833 5 68.5v27c0 9.33301 -2.83301 16.5 -8.5 21.5s-13.167 7.5 -22.5 7.5c-8.66699 0 -16.167 -2.5 -22.5 -7.5s-9.5 -12.167 -9.5 -21.5v-118h-138v120c0 43.333 14.333 76.666 43 99.999
s72.334 35 131.001 35c63.333 0 109.666 -15.333 138.999 -46c25.333 -26 38 -62.667 38 -110v-54c0 -14.667 -2.33301 -31 -7 -49c-1.33301 -6 -4 -14 -8 -24l-173 -331h188v-90z" />
    <glyph glyph-name="three" unicode="3" horiz-adv-x="375" 
d="M367 138c0 -59.333 -19.999 -100.333 -59.999 -123c-26.667 -15.333 -64.334 -23 -113.001 -23c-62 0 -106.833 10.833 -134.5 32.5s-41.5 55.167 -41.5 100.5v167h141v-166c0 -8 2.66699 -14.333 8 -19s12 -7 20 -7c9.33301 0 16.333 2.16699 21 6.5s7 10.833 7 19.5
v162c0 18.667 -6 31.5 -18 38.5s-24.667 10.5 -38 10.5l-10 -1v79c14.667 0 25.667 0.666992 33 2c22 5.33301 33 18.333 33 39v124c0 7.33301 -2.5 12.666 -7.5 15.999s-11.833 5 -20.5 5c-9.33301 0 -16.5 -1.66699 -21.5 -5s-7.5 -8.66602 -7.5 -15.999v-129h-136v130
c0 38 14.833 68.167 44.5 90.5s72.167 33.5 127.5 33.5c54 0 96 -11.167 126 -33.5s45 -52.5 45 -90.5v-96c0 -26 -4 -46.667 -12 -62c-12 -22 -34.667 -39 -68 -51c36.667 -10.667 61 -31 73 -61c6 -15.333 9 -38.333 9 -69v-104z" />
    <glyph glyph-name="four" unicode="4" horiz-adv-x="441" 
d="M438 90h-76v-90h-150v90h-208v99l151 511h207v-505h76v-105zM212 195v276l-70 -276h70z" />
    <glyph glyph-name="five" unicode="5" horiz-adv-x="376" 
d="M373 700l-23.999 -105.999h-174l-7 -144c15.333 15.333 42 23 80 23c33.333 0 60.666 -7.33301 81.999 -22c26 -18 39 -45.333 39 -82v-250c0 -40.667 -16.167 -72 -48.5 -94s-74.5 -33 -126.5 -33s-94.333 10.667 -127 32s-49 52.666 -49 93.999v176h150v-181
c0 -7.33301 2.16699 -13 6.5 -17s10.833 -6 19.5 -6c6.66699 0 12.5 1.83301 17.5 5.5s7.5 9.5 7.5 17.5v234c0 7.33301 -2.66699 13.333 -8 18s-12 7 -20 7c-17.333 0 -26 -9 -26 -27l-1 -16l-144 4l8 367h345z" />
    <glyph glyph-name="six" unicode="6" horiz-adv-x="375" 
d="M369 119c0 -40.667 -16.168 -72 -48.501 -94s-74.5 -33 -126.5 -33s-94.333 10.667 -127 32s-49 52.666 -49 93.999v451c0 44.667 12.667 77.667 38 99c28.667 24.667 75 37 139 37c58.667 0 102.334 -11.667 131.001 -35s43 -56.666 43 -99.999v-71h-150v88
c0 6.66699 -2.5 12.167 -7.5 16.5s-10.833 6.5 -17.5 6.5c-8.66699 0 -15.167 -1.83301 -19.5 -5.5s-6.5 -9.5 -6.5 -17.5v-137c5.33301 7.33301 14.5 13 27.5 17s28.167 6 45.5 6c34 0 62.667 -7.66699 86 -23c28 -18.667 42 -45.667 42 -81v-250zM218.999 113v229
c0 6.66699 -2.5 12.167 -7.5 16.5s-10.833 6.5 -17.5 6.5c-8.66699 0 -15.167 -1.83301 -19.5 -5.5s-6.5 -9.5 -6.5 -17.5v-229c0 -7.33301 2.16699 -13 6.5 -17s10.833 -6 19.5 -6c6.66699 0 12.5 1.83301 17.5 5.5s7.5 9.5 7.5 17.5z" />
    <glyph glyph-name="seven" unicode="7" horiz-adv-x="376" 
d="M368 600l-192 -600h-166l192 602h-181v98h347v-100z" />
    <glyph glyph-name="eight" unicode="8" horiz-adv-x="378" 
d="M369 125c0 -44.667 -13.833 -78.002 -41.5 -100.002s-72.5 -33 -134.5 -33c-62.667 0 -107.5 10.833 -134.5 32.5s-40.5 55.167 -40.5 100.5v144c0 34 6.5 58.833 19.5 74.5s33.5 26.834 61.5 33.501c-27.333 9.33301 -47 22.833 -59 40.5s-18 47.834 -18 90.501v73
c0 38 14.833 68.167 44.5 90.5s72.167 33.5 127.5 33.5c54 0 96 -11.167 126 -33.5s45 -52.5 45 -90.5v-73c0 -33.333 -2.66699 -57 -8 -71c-10.667 -28 -33.667 -48 -69 -60c35.333 -8.66699 59 -24.667 71 -48c6.66699 -13.333 10 -33.333 10 -60v-144zM219 441.998v146
c0 7.33301 -2 12.666 -6 15.999s-10.333 5 -19 5s-15.167 -1.66699 -19.5 -5s-6.5 -8.66602 -6.5 -15.999v-146c0 -6.66699 2.16699 -11.834 6.5 -15.501s10.833 -5.5 19.5 -5.5s15 1.83301 19 5.5s6 8.83398 6 15.501zM219 110.998v204c0 14 -8.33301 21 -25 21
c-17.333 0 -26 -7 -26 -21v-204c0 -6.66699 2.16699 -11.834 6.5 -15.501s10.833 -5.5 19.5 -5.5s15 1.83301 19 5.5s6 8.83398 6 15.501z" />
    <glyph glyph-name="nine" unicode="9" horiz-adv-x="379" 
d="M369 128c0 -44.667 -12.668 -77.667 -38.001 -99c-28.667 -24.667 -75 -37 -139 -37c-58.667 0 -102.334 11.667 -131.001 35s-43 56.666 -43 99.999v164h150v-178c0 -7.33301 2.16699 -13 6.5 -17s10.833 -6 19.5 -6c6.66699 0 12.5 1.83301 17.5 5.5s7.5 9.5 7.5 17.5
v208c-5.33301 -6 -13.166 -10.5 -23.499 -13.5s-23.166 -4.5 -38.499 -4.5c-35.333 0 -66 8.33301 -92 25c-31.333 20 -47 49 -47 87v163c0 40.667 16.167 72 48.5 94s74.5 33 126.5 33s94.333 -10.667 127 -32s49 -52.666 49 -93.999v-451zM218.999 419v168
c0 6.66699 -2.5 12.167 -7.5 16.5s-10.833 6.5 -17.5 6.5c-8.66699 0 -15.167 -1.83301 -19.5 -5.5s-6.5 -9.5 -6.5 -17.5v-168c0 -7.33301 2.16699 -13 6.5 -17s10.833 -6 19.5 -6c6.66699 0 12.5 1.83301 17.5 5.5s7.5 9.5 7.5 17.5z" />
    <glyph glyph-name="colon" unicode=":" horiz-adv-x="155" 
d="M145 336h-127v102h127v-102zM145 -1h-127v102h127v-102z" />
    <glyph glyph-name="semicolon" unicode=";" horiz-adv-x="155" 
d="M145 336h-127v102h127v-102zM144 32c0 -27.333 -8.33301 -51 -25 -71c-11.333 -13.333 -29.666 -28.333 -54.999 -45l-28 23c8 8 13.667 14.333 17 19c11.333 14.667 17.666 28.667 18.999 42h-55v102h127v-70z" />
    <glyph glyph-name="less" unicode="&#x3c;" horiz-adv-x="382" 
d="M368 7l-351 129v79l351 128v-79l-243 -89l243 -89v-79z" />
    <glyph glyph-name="equal" unicode="=" horiz-adv-x="382" 
d="M368 215h-351v79h351v-79zM368 57h-351v79h351v-79z" />
    <glyph glyph-name="greater" unicode="&#x3e;" horiz-adv-x="381" 
d="M368 136l-351 -129v79l243 89l-243 89v79l351 -128v-79z" />
    <glyph glyph-name="question" unicode="?" horiz-adv-x="355" 
d="M342 479c0 -42 -13.001 -81 -39.001 -117c-6 -8.66699 -23 -29.334 -51 -62.001c-16.667 -20 -27.167 -39.167 -31.5 -57.5s-6.5 -44.166 -6.5 -77.499v-34h-139c0 61.333 3.33301 105.166 10 131.499s17.334 48.5 32.001 66.5l52 63c18.667 24.667 28 48.334 28 71.001
v126c0 7.33301 -1.83301 12.666 -5.5 15.999s-9.5 5 -17.5 5c-7.33301 0 -13 -1.66699 -17 -5s-6 -8.66602 -6 -15.999v-179h-134v171c0 37.333 11.333 66.333 34 87c26.667 24.667 68 37 124 37c64 0 108.667 -12 134 -36c22 -20.667 33 -54 33 -100v-90zM213.999 0h-139
v102h139v-102z" />
    <glyph glyph-name="at" unicode="@" horiz-adv-x="801" 
d="M788 295c0 -60.667 -17.6689 -112.667 -53.002 -156c-39.333 -48 -91 -72 -155 -72c-23.333 0 -44.666 3.33301 -63.999 10c-24 8.66699 -42.333 21.334 -55 38.001c-17.333 -20 -34.666 -32.833 -51.999 -38.5s-43.333 -8.5 -78 -8.5
c-41.333 0 -70.666 7.33301 -87.999 22s-26 37 -26 67v251c0 30 8.66699 52.333 26 67s46.666 22 87.999 22c30 0 51 -2.66699 63 -8s20.667 -12.666 26 -21.999v26h123v-278c0 -20.667 1.33301 -35 4 -43c5.33301 -16 17.333 -24 36 -24c38 0 67.333 13 88 39s31 63 31 111
c0 100 -24.667 178.667 -74 236c-52 60 -125.667 90 -221 90c-96.667 0 -172.667 -29.667 -228 -89s-83 -138.333 -83 -237c0 -99.333 27.667 -179.666 83 -240.999s131.333 -92 228 -92c50.667 0 91 1.66699 121 5s64 9.66602 102 18.999v-84
c-36 -8.66699 -69.167 -14.834 -99.5 -18.501s-70.833 -5.5 -121.5 -5.5c-112.667 0 -206.5 40.167 -281.5 120.5s-112.5 178.166 -112.5 293.499s37.5 212.5 112.5 291.5s168.833 118.5 281.5 118.5c112 0 203.667 -39.667 275 -119c69.333 -77.333 104 -174.333 104 -291z
M403.998 182l0.000976562 199c0 9.33301 -2 16.333 -6 21s-10 7 -18 7c-6.66699 0 -12.334 -2.33301 -17.001 -7s-7 -11.667 -7 -21v-199c0 -8.66699 2.16699 -15.167 6.5 -19.5s10.5 -6.5 18.5 -6.5c6.66699 0 12.167 2.16699 16.5 6.5s6.5 10.833 6.5 19.5z" />
    <glyph glyph-name="A" unicode="A" horiz-adv-x="440" 
d="M432 0h-152l-26 188h-69l-26 -188h-152l115 700h195zM241 285l-22 209l-21 -209h43z" />
    <glyph glyph-name="B" unicode="B" horiz-adv-x="379" 
d="M364 138c0 -39.333 -12.333 -71.334 -37 -96.001c-27.333 -28 -66 -42 -116 -42h-194v700h181c50.667 0 90.167 -11.333 118.5 -34s42.5 -52.667 42.5 -90v-97c0 -21.333 -4.33301 -39 -13 -53c-14 -21.333 -39.667 -38.333 -77 -51c39.333 -10 66.333 -25.333 81 -46
c9.33301 -13.333 14 -31.666 14 -54.999v-136zM214 453.999v119.001c0 17.333 -3.66699 27.833 -11 31.5s-18 5.5 -32 5.5v-193c14.667 0 24 1 28 3c10 5.33301 15 16.666 15 33.999zM214 127v177.001c0 17.333 -3.66699 27.833 -11 31.5s-18 5.5 -32 5.5v-251
c14.667 0 24 1 28 3c10 5.33301 15 16.666 15 33.999z" />
    <glyph glyph-name="C" unicode="C" horiz-adv-x="370" 
d="M354 102c0 -27.333 -13.3311 -51.668 -39.998 -73.001c-30.667 -24.667 -70.334 -37 -119.001 -37c-52 0 -94 10.333 -126 31c-34.667 22.667 -52 54.334 -52 95.001v451c0 44.667 12.667 77.667 38 99c29.333 24.667 76 37 140 37c55.333 0 96.666 -12.333 123.999 -37
c23.333 -21.333 35 -50.333 35 -87v-127h-140v139c0 6 -1.66699 10.333 -5 13s-8.66602 4 -15.999 4s-12.833 -1.33301 -16.5 -4s-5.5 -7 -5.5 -13v-486c0 -5.33301 2.16699 -9.5 6.5 -12.5s9.5 -4.5 15.5 -4.5c7.33301 0 12.666 1.5 15.999 4.5s5 7.16699 5 12.5v173h140
v-178z" />
    <glyph glyph-name="D" unicode="D" horiz-adv-x="382" 
d="M370 138c0 -38.667 -13.333 -70.668 -40 -96.001c-29.333 -28 -69 -42 -119 -42h-194v700h193c50 0 89.667 -13.667 119 -41c27.333 -25.333 41 -57.666 41 -96.999v-424zM215 126.999v446.001c0 16.667 -5 27.667 -15 33c-5.33301 2.66699 -15 4 -29 4v-520
c15.333 0 25 1 29 3c10 5.33301 15 16.666 15 33.999z" />
    <glyph glyph-name="E" unicode="E" horiz-adv-x="326" 
d="M318 0h-301v700h299v-90h-145v-189h131v-85h-131v-246h147v-90z" />
    <glyph glyph-name="F" unicode="F" horiz-adv-x="313" 
d="M305 610h-134v-189h120v-85h-120v-336h-154v700h288v-90z" />
    <glyph glyph-name="G" unicode="G" horiz-adv-x="370" 
d="M356 0h-73.999l-20 37c-16.667 -14.667 -30.334 -24.667 -41.001 -30c-19.333 -10 -41.333 -15 -66 -15c-38 0 -69.333 9 -94 27c-29.333 21.333 -44 52.333 -44 93v457c0 44.667 12 77.667 36 99c28 24.667 74 37 138 37c56 0 98.333 -12.333 127 -37
c25.333 -22 38 -51 38 -87v-130h-139v142c0 6 -1.83301 10.333 -5.5 13s-9.5 4 -17.5 4c-7.33301 0 -13 -1.33301 -17 -4s-6 -7 -6 -13v-486c0 -5.33301 2.16699 -9.5 6.5 -12.5s9.83301 -4.5 16.5 -4.5c6 0 11.333 1.33301 16 4s7 7 7 13v131h-32v107h171v-345z" />
    <glyph glyph-name="H" unicode="H" horiz-adv-x="380" 
d="M366 0h-154v336h-41v-336h-154v700h154v-279h41v279h154v-700z" />
    <glyph glyph-name="I" unicode="I" horiz-adv-x="182" 
d="M171 0h-154v700h154v-700z" />
    <glyph glyph-name="J" unicode="J" horiz-adv-x="363" 
d="M350 118c0 -41.333 -15.998 -72.666 -47.998 -93.999s-74 -32 -126 -32c-48.667 0 -88.334 12.333 -119.001 37c-26.667 21.333 -40 45.666 -40 72.999v178h136v-173c0 -5.33301 2.16699 -9.5 6.5 -12.5s9.5 -4.5 15.5 -4.5c7.33301 0 12.666 1.5 15.999 4.5
s5 7.16699 5 12.5v591h154v-580z" />
    <glyph glyph-name="K" unicode="K" horiz-adv-x="406" 
d="M401 0h-169l-59 260v-260h-154v700h154v-233l67 233h143l-95 -319z" />
    <glyph glyph-name="L" unicode="L" horiz-adv-x="314" 
d="M307 0h-290v700h155v-610h135v-90z" />
    <glyph glyph-name="M" unicode="M" horiz-adv-x="570" 
d="M553 0h-137v393l-80 -393h-106l-92 393v-393h-120v700h198l70 -363l61 363h206v-700z" />
    <glyph glyph-name="N" unicode="N" horiz-adv-x="425" 
d="M409 0h-158l-105 373v-373h-128v700h175l88 -319v319h128v-700z" />
    <glyph glyph-name="O" unicode="O" horiz-adv-x="382" 
d="M368 119c0 -40.667 -16.168 -72 -48.501 -94s-74.5 -33 -126.5 -33s-94.333 10.667 -127 32s-49 52.666 -49 93.999v451c0 44.667 12.667 77.667 38 99c28.667 24.667 75 37 139 37c58.667 0 102.334 -11.667 131.001 -35s43 -56.666 43 -99.999v-451zM217.999 111v477
c0 7.33301 -2 12.666 -6 15.999s-10.333 5 -19 5s-15.167 -1.66699 -19.5 -5s-6.5 -8.66602 -6.5 -15.999v-477c0 -6.66699 2.16699 -11.834 6.5 -15.501s10.833 -5.5 19.5 -5.5s15 1.83301 19 5.5s6 8.83398 6 15.501z" />
    <glyph glyph-name="P" unicode="P" horiz-adv-x="379" 
d="M368 382c0 -42.667 -10.001 -72.167 -30.001 -88.5s-36.167 -26.666 -48.5 -30.999s-53.166 -5.83301 -122.499 -4.5v-258h-150v700h150c66 0 111 -4.66699 135 -14c44 -16.667 66 -53.334 66 -110.001v-194zM217.999 395l-0.000976562 168.001
c0 16.667 -6 27.667 -18 33c-6.66699 2.66699 -17.667 4 -33 4v-242c16.667 0 27.334 1 32.001 3c12.667 5.33301 19 16.666 19 33.999z" />
    <glyph glyph-name="Q" unicode="Q" horiz-adv-x="383" 
d="M368 -97l-61 0.000976562c-34 0 -58.167 7.83301 -72.5 23.5s-21.5 37.5 -21.5 65.5h-20c-52 0 -94.333 10.667 -127 32s-49 52.666 -49 93.999v451c0 44.667 12.667 77.667 38 99c28.667 24.667 75 37 139 37c58.667 0 102.334 -11.667 131.001 -35
s43 -56.666 43 -99.999v-451c0 -34.667 -12.667 -63.334 -38 -86.001c-8 -7.33301 -21 -15.333 -39 -24c0 -10 3.16699 -16.667 9.5 -20s15.166 -5 26.499 -5h41v-81zM218 111.001v477c0 7.33301 -2 12.666 -6 15.999s-10.333 5 -19 5s-15.167 -1.66699 -19.5 -5
s-6.5 -8.66602 -6.5 -15.999v-477c0 -6.66699 2.16699 -11.834 6.5 -15.501s10.833 -5.5 19.5 -5.5s15 1.83301 19 5.5s6 8.83398 6 15.501z" />
    <glyph glyph-name="R" unicode="R" horiz-adv-x="401" 
d="M397 -1l-154 0.000976562c-8.66699 10 -14.667 24.833 -18 44.5s-5 47.5 -5 83.5v172c0 17.333 -4.16699 27.833 -12.5 31.5s-19.833 5.5 -34.5 5.5v-336h-154v700h190c50.667 0 90.167 -11.333 118.5 -34s42.5 -52.667 42.5 -90v-84c0 -23.333 -3.66699 -41.333 -11 -54
c-13.333 -23.333 -41.333 -42 -84 -56c39.333 -10 66.333 -25.667 81 -47c9.33301 -14 14 -33.333 14 -58v-151c1.33301 -24.667 2.66602 -43.334 3.99902 -56.001c4.66699 -39.333 12.334 -63 23.001 -71zM220 458.001v115.001c0 17.333 -4.16699 27.833 -12.5 31.5
s-19.833 5.5 -34.5 5.5v-189c15.333 0 25.333 1 30 3c11.333 5.33301 17 16.666 17 33.999z" />
    <glyph glyph-name="S" unicode="S" horiz-adv-x="383" 
d="M367 132c0 -46 -12 -80.0039 -36 -102.004c-28 -25.333 -75.333 -38 -142 -38c-63.333 0 -109.666 15 -138.999 45c-22 22 -33 49.333 -33 82v160h140v-161c0 -7.33301 2.83301 -13.166 8.5 -17.499s12.5 -6.5 20.5 -6.5c9.33301 0 16.333 2 21 6s7 10 7 18v83
c0 19.333 -4.33301 34.666 -13 45.999l-75 79c-44 46.667 -68.667 73.334 -74 80.001c-23.333 30 -35 58 -35 84v79c0 44.667 12.667 77.667 38 99c29.333 24.667 76 37 140 37c55.333 0 96.666 -12.333 123.999 -37c23.333 -21.333 35 -50.333 35 -87v-121h-140v129
c0 6.66699 -2.16699 11.834 -6.5 15.501s-9.83301 5.5 -16.5 5.5c-8 0 -14 -1.66699 -18 -5s-6 -8.66602 -6 -15.999v-65c0 -22.667 10 -44.667 30 -66l79 -81c32 -33.333 52.667 -56.666 62 -69.999c19.333 -27.333 29 -56 29 -86v-89z" />
    <glyph glyph-name="T" unicode="T" horiz-adv-x="350" 
d="M339 609h-86v-609h-154v609h-86v91h326v-91z" />
    <glyph glyph-name="U" unicode="U" horiz-adv-x="391" 
d="M376 119c0 -40.667 -16.833 -72.001 -50.5 -94.001s-76.5 -33 -128.5 -33s-94.333 10.333 -127 31c-35.333 22.667 -53 54.334 -53 95.001v582h154v-589c0 -6.66699 2.16699 -11.834 6.5 -15.501s10.833 -5.5 19.5 -5.5s15 1.83301 19 5.5s6 8.83398 6 15.501v589h154
v-581z" />
    <glyph glyph-name="V" unicode="V" horiz-adv-x="413" 
d="M410 700l-94 -700h-218l-94 700h150l53 -489l53 489h150z" />
    <glyph glyph-name="W" unicode="W" horiz-adv-x="629" 
d="M627 700l-90 -700h-182l-55 386l-52 -386h-157l-87 700h138l39 -323l53 323h173l42 -323l52 323h126z" />
    <glyph glyph-name="X" unicode="X" horiz-adv-x="455" 
d="M452 0h-165l-70 225l-66 -225h-147l121 398l-90 302h148l55 -203l61 203h138l-105 -324z" />
    <glyph glyph-name="Y" unicode="Y" horiz-adv-x="440" 
d="M437 700l-151 -423v-277h-154v278l-128 422h147l69 -248l79 248h138z" />
    <glyph glyph-name="Z" unicode="Z" horiz-adv-x="367" 
d="M357 0h-347v89l169 520h-159v91h325v-92l-168 -518h180v-90z" />
    <glyph glyph-name="bracketleft" unicode="[" horiz-adv-x="157" 
d="M146 0h-129v700h129v-38h-66v-626h66v-36z" />
    <glyph glyph-name="backslash" unicode="\" horiz-adv-x="334" 
d="M317 0h-83l-224 700h83z" />
    <glyph glyph-name="bracketright" unicode="]" horiz-adv-x="157" 
d="M146 0h-129v36h66v626h-66v38h129v-700z" />
    <glyph glyph-name="asciicircum" unicode="^" horiz-adv-x="241" 
d="M229 610h-76l-33 50l-33 -50h-76l59 90h100z" />
    <glyph glyph-name="underscore" unicode="_" horiz-adv-x="372" 
d="M369 -120h-369v79h369v-79z" />
    <glyph glyph-name="grave" unicode="`" horiz-adv-x="155" 
d="M145 610h-76l-59 90h106z" />
    <glyph glyph-name="a" unicode="a" horiz-adv-x="361" 
d="M345 0l-122.998 0.000976562v22c-6.66699 -12.667 -16.834 -20.834 -30.501 -24.501s-33.167 -5.5 -58.5 -5.5c-41.333 0 -70.666 7.33301 -87.999 22s-26 37 -26 67v114c0 45.333 31.167 83 93.5 113s93.5 51 93.5 63v84c0 9.33301 -2 16.333 -6 21s-10 7 -18 7
c-6.66699 0 -12.334 -2.33301 -17.001 -7s-7 -11.667 -7 -21v-112h-134v113c0 42 17 72.667 51 92c27.333 15.333 65.666 23 114.999 23s86.333 -8.33301 111 -25c29.333 -19.333 44 -51 44 -95v-451zM206.002 106.001l0.000976562 146.002
c-18.667 -4.66699 -31.334 -10.334 -38.001 -17.001s-10 -15.334 -10 -26.001v-103c0 -8.66699 2.16699 -15.167 6.5 -19.5s10.5 -6.5 18.5 -6.5c6.66699 0 12.167 2.16699 16.5 6.5s6.5 10.833 6.5 19.5z" />
    <glyph glyph-name="b" unicode="b" 
d="M343 85c0 -23.333 -10.333 -43.999 -31 -61.999c-24 -20.667 -56.333 -31 -97 -31c-23.333 0 -42 3.33301 -56 10l-25 17l-12 -19h-105v700h139v-150c8.66699 7.33301 20.167 12.666 34.5 15.999s31.5 5 51.5 5c29.333 0 53.5 -7.66699 72.5 -23s28.5 -34 28.5 -56v-407z
M204 106.001v351c0 17.333 -8 26 -24 26c-8 0 -14 -2 -18 -6s-6 -10.333 -6 -19v-352c0 -8.66699 2 -15.167 6 -19.5s10 -6.5 18 -6.5s14 2.16699 18 6.5s6 10.833 6 19.5z" />
    <glyph glyph-name="c" unicode="c" 
d="M343 107c0 -42.667 -15.999 -73.332 -47.999 -91.999c-26 -15.333 -63.667 -23 -113 -23c-50 0 -88.667 8.33301 -116 25c-32.667 20 -49 51.667 -49 95v339c0 42.667 16.333 74 49 94c28 17.333 66.667 26 116 26c48 0 85.333 -7.66699 112 -23
c32.667 -18.667 49 -49.334 49 -92.001v-140h-139v139c0 9.33301 -2 16.333 -6 21s-10 7 -18 7c-6.66699 0 -12.334 -2.33301 -17.001 -7s-7 -11.667 -7 -21v-347c0 -9.33301 2 -16.5 6 -21.5s10 -7.5 18 -7.5s14 2.5 18 7.5s6 12.167 6 21.5v137h139v-138z" />
    <glyph glyph-name="d" unicode="d" 
d="M343 0l-105 -0.000976562l-12 19c-13.333 -10 -21.333 -15.667 -24 -17c-14 -6.66699 -33 -10 -57 -10c-40.667 0 -72.167 9.33301 -94.5 28s-33.5 40.334 -33.5 65.001v407c0 22 9.33301 40.667 28 56s43 23 73 23c18.667 0 35.667 -2 51 -6s27 -9 35 -15v150h139v-700z
M204 105.999l-0.000976562 352c0 8 -2.16699 14.167 -6.5 18.5s-10.166 6.5 -17.499 6.5c-16 0 -24 -8.66699 -24 -26v-351c0 -8.66699 2 -15.167 6 -19.5s10 -6.5 18 -6.5s14 2.16699 18 6.5s6 10.833 6 19.5z" />
    <glyph glyph-name="e" unicode="e" horiz-adv-x="357" 
d="M343 107c0 -42 -16.666 -72.666 -49.999 -91.999c-26.667 -15.333 -64.667 -23 -114 -23s-87.333 8.33301 -114 25c-32 20 -48 51.667 -48 95v339c0 42.667 15.667 74 47 94c27.333 17.333 65.666 26 114.999 26c48.667 0 86.667 -7.66699 114 -23
c33.333 -18.667 50 -49.334 50 -92.001v-216h-187v-132c0 -9.33301 2 -16.5 6 -21.5s10 -7.5 18 -7.5s14 2.5 18 7.5s6 12.167 6 21.5v114h139v-115zM204.001 325.001l0.000976562 130c0 9.33301 -2 16.333 -6 21s-10 7 -18 7c-6.66699 0 -12.334 -2.33301 -17.001 -7
s-7 -11.667 -7 -21v-130h48z" />
    <glyph glyph-name="f" unicode="f" horiz-adv-x="278" 
d="M277 483h-80.002v-483h-139v483h-47v84h47c0 58.667 6 94.667 18 108c14.667 16.667 52.334 25 113.001 25h88v-76c-23.333 0 -38.666 -0.666992 -45.999 -2c-22.667 -4 -34 -12.667 -34 -26v-29h80v-84z" />
    <glyph glyph-name="g" unicode="g" 
d="M343 8c0 -39.333 -4.16797 -65.998 -12.501 -79.998s-22.166 -25.667 -41.499 -35c-11.333 -5.33301 -25.833 -8.83301 -43.5 -10.5s-39.167 -2.5 -64.5 -2.5h-139v82h113c23.333 0 38.333 6.66699 45 20c2.66699 5.33301 4 15.666 4 30.999
c-8.66699 -6.66699 -20.167 -11.834 -34.5 -15.501s-31.5 -5.5 -51.5 -5.5c-29.333 0 -53.5 7.66699 -72.5 23s-28.5 34 -28.5 56v407c0 25.333 7.33301 46 22 62c19.333 20.667 49 31 89 31c22 0 39.667 -3.33301 53 -10c11.333 -8 19.333 -13 24 -15l18 21h120v-559z
M203.999 101.002v356c0 8.66699 -2 15.167 -6 19.5s-10 6.5 -18 6.5c-16 0 -24 -8.66699 -24 -26v-355c0 -17.333 8 -26 24 -26c8 0 14 2.16699 18 6.5s6 10.5 6 18.5z" />
    <glyph glyph-name="h" unicode="h" horiz-adv-x="358" 
d="M343 0l-139 0.000976562v457c0 17.333 -8 26 -24 26c-8 0 -14 -2 -18 -6s-6 -10.333 -6 -19v-458h-139v700h139v-150c8.66699 7.33301 20.167 12.666 34.5 15.999s31.5 5 51.5 5c29.333 0 53.5 -7.66699 72.5 -23s28.5 -34 28.5 -56v-492z" />
    <glyph glyph-name="i" unicode="i" horiz-adv-x="166" 
d="M157 598h-139v102h139v-102zM157 0h-139v567h139v-567z" />
    <glyph glyph-name="j" unicode="j" horiz-adv-x="178" 
d="M158 598h-139v102h139v-102zM158 -10c0 -26.667 -2.33301 -46 -7 -58c-7.33301 -18.667 -21.333 -33 -42 -43c-6.66699 -3.33301 -16 -5.66602 -28 -6.99902s-25 -2 -39 -2h-101v82h46c13.333 0 22 3.16699 26 9.5s6 16.166 6 29.499v566h139v-577z" />
    <glyph glyph-name="k" unicode="k" horiz-adv-x="410" 
d="M405 0h-164l-85 205v-205h-139v700h139v-314l71 181h144l-101 -248z" />
    <glyph glyph-name="l" unicode="l" horiz-adv-x="172" 
d="M157 0h-139v700h139v-700z" />
    <glyph glyph-name="m" unicode="m" horiz-adv-x="546" 
d="M530 0h-139v453c0 17.333 -8 26 -24 26c-8 0 -14 -2 -18 -6s-6 -10.333 -6 -19v-454h-139v454c0 17.333 -8 26 -24 26c-8 0 -14 -2 -18 -6s-6 -10.333 -6 -19v-455h-139v567h139v-20c8 6.66699 19.833 12.334 35.5 17.001s32.5 7 50.5 7c26 0 44.333 -3.33301 55 -10
l33 -29c6 7.33301 19.167 15.666 39.5 24.999s40.5 14 60.5 14c28.667 0 52.5 -8.16699 71.5 -24.5s28.5 -35.5 28.5 -57.5v-489z" />
    <glyph glyph-name="n" unicode="n" 
d="M344 0l-139 0.000976562v455c0 17.333 -8 26 -24 26c-8 0 -14 -2 -18 -6s-6 -10.333 -6 -19v-456h-139v567h139v-19c8 6.66699 19.5 12.167 34.5 16.5s32.167 6.5 51.5 6.5c29.333 0 53.5 -7.83301 72.5 -23.5s28.5 -34.834 28.5 -57.501v-490z" />
    <glyph glyph-name="o" unicode="o" horiz-adv-x="352" 
d="M344 107c0 -42.667 -16 -73.333 -48 -92c-26 -15.333 -63.667 -23 -113 -23c-50 0 -88.667 8.33301 -116 25c-32.667 20 -49 51.667 -49 95v339c0 42.667 16.333 74 49 94c28 17.333 66.667 26 116 26c45.333 0 83.5 -9.83301 114.5 -29.5s46.5 -48.167 46.5 -85.5v-349z
M205 108.001l0.000976562 347c0 9.33301 -2 16.333 -6 21s-10 7 -18 7c-6.66699 0 -12.334 -2.33301 -17.001 -7s-7 -11.667 -7 -21v-347c0 -9.33301 2 -16.5 6 -21.5s10 -7.5 18 -7.5s14 2.5 18 7.5s6 12.167 6 21.5z" />
    <glyph glyph-name="p" unicode="p" 
d="M343 71c0 -22 -9.33301 -40.666 -28 -55.999s-43 -23 -73 -23c-18.667 0 -35.667 2 -51 6s-27 9 -35 15v-133h-139v687h105l12 -23c9.33301 7.33301 17.666 12.666 24.999 15.999c14.667 7.33301 33.334 11 56.001 11c40 0 72 -10.333 96 -31
c21.333 -18 32 -38.667 32 -62v-407zM204 106.001l0.000976562 351c0 17.333 -8 26 -24 26c-8 0 -14 -2.16699 -18 -6.5s-6 -10.833 -6 -19.5v-352c0 -8 2.16699 -14.167 6.5 -18.5s10.166 -6.5 17.499 -6.5c16 0 24 8.66699 24 26z" />
    <glyph glyph-name="q" unicode="q" 
d="M343 -120l-139 0.000976562v133c-8.66699 -6.66699 -20.167 -11.834 -34.5 -15.501s-31.5 -5.5 -51.5 -5.5c-29.333 0 -53.5 7.66699 -72.5 23s-28.5 34 -28.5 56v407c0 23.333 10.333 44 31 62c24 20.667 56.333 31 97 31c26 0 47 -5 63 -15l18 -12l12 23h105v-687z
M204 105.001v352c0 8.66699 -2 15.167 -6 19.5s-10 6.5 -18 6.5c-16 0 -24 -8.66699 -24 -26v-351c0 -17.333 8 -26 24 -26c8 0 14 2.16699 18 6.5s6 10.5 6 18.5z" />
    <glyph glyph-name="r" unicode="r" 
d="M345 332l-139 0.000976562v123c0 17.333 -8 26 -24 26c-8 0 -14 -2 -18 -6s-6 -10.333 -6 -19v-456h-139v567h139v-19c8 6.66699 19.5 12.167 34.5 16.5s32.167 6.5 51.5 6.5c29.333 0 53.5 -7.83301 72.5 -23.5s28.5 -34.834 28.5 -57.501v-158z" />
    <glyph glyph-name="s" unicode="s" horiz-adv-x="354" 
d="M343 112c0 -42.667 -16.3301 -73.999 -48.9971 -93.999c-28 -17.333 -66.667 -26 -116 -26c-48 0 -85.333 7.66699 -112 23c-32.667 18.667 -49 49.334 -49 92.001v121h139v-120c0 -9.33301 2 -16.5 6 -21.5s9.66699 -7.5 17 -7.5s12.833 2.5 16.5 7.5
s5.5 12.167 5.5 21.5v44c0 38.667 -9 63.667 -27 75l-71 38c-32.667 18 -54.667 34.167 -66 48.5s-17 34.833 -17 61.5v76c0 42.667 15.667 74 47 94c27.333 17.333 65.666 26 114.999 26c48 0 85 -7.66699 111 -23c31.333 -18.667 47 -49.334 47 -92.001v-112h-136v111
c0 8.66699 -2.33301 15.5 -7 20.5s-10 7.5 -16 7.5c-6.66699 0 -12.334 -2.33301 -17.001 -7s-7 -11.667 -7 -21v-53c0 -23.333 10 -41.333 30 -54l54 -29c39.333 -20.667 63.666 -35.667 72.999 -45c19.333 -18.667 29 -44.334 29 -77.001v-85z" />
    <glyph glyph-name="t" unicode="t" horiz-adv-x="302" 
d="M291 0l-88 0.000976562c-60 0 -96.833 8.16699 -110.5 24.5s-20.5 53.833 -20.5 112.5v346h-62v84h62v114h139v-114h75v-84h-75v-345c0 -16.667 5.66699 -28.334 17 -35.001c8 -4.66699 20.333 -7 37 -7h26v-96z" />
    <glyph glyph-name="u" unicode="u" 
d="M343 0l-139 -0.000976562v19c-7.33301 -7.33301 -18.5 -13.666 -33.5 -18.999s-32.5 -8 -52.5 -8c-29.333 0 -53.5 7.66699 -72.5 23s-28.5 34 -28.5 56v496h139v-461c0 -17.333 8 -26 24 -26c8 0 14 2.16699 18 6.5s6 10.5 6 18.5v462h139v-567z" />
    <glyph glyph-name="v" unicode="v" horiz-adv-x="379" 
d="M376 567l-102 -567h-168l-102 567h140l48 -335l47 335h137z" />
    <glyph glyph-name="w" unicode="w" horiz-adv-x="597" 
d="M594 567l-97 -567h-153l-43 232l-40 -232h-160l-97 567h134l48 -308l43 308h140l43 -308l48 308h134z" />
    <glyph glyph-name="x" unicode="x" horiz-adv-x="391" 
d="M388 0h-153l-48 154l-45 -154h-139l109 300l-106 267h147l47 -147l38 147h132l-93 -274z" />
    <glyph glyph-name="y" unicode="y" horiz-adv-x="386" 
d="M383 567l-108 -564c-8 -40 -14 -64.667 -18 -74c-7.33301 -16 -22.666 -29.667 -45.999 -41c-7.33301 -3.33301 -15.333 -5.5 -24 -6.5s-21.334 -1.5 -38.001 -1.5h-94v76h48c12 0 20.5 3.33301 25.5 10s7.5 15.667 7.5 27c0 6.66699 -1 13 -3 19l-129 555h139l58 -300
l46 300h136z" />
    <glyph glyph-name="z" unicode="z" 
d="M347 0h-334v78l158 398h-149v91h310v-77l-160 -400h175v-90z" />
    <glyph glyph-name="braceleft" unicode="{" horiz-adv-x="309" 
d="M298 -8h-89.002c-56.667 0 -94 13.333 -112 40c-12.667 18.667 -19 51 -19 97v115c0 23.333 -6.66699 39.166 -20 47.499s-29.333 12.5 -48 12.5v89c18.667 0 33.334 3.33301 44.001 10c16 10 24 26.667 24 50v115c0 46.667 6 78.667 18 96
c18.667 27.333 56.334 41 113.001 41h89v-76h-15c-18 0 -33.5 -2.16699 -46.5 -6.5s-19.5 -13.5 -19.5 -27.5v-167c0 -27.333 -11.333 -48.666 -34 -63.999c-7.33301 -4.66699 -18.666 -9.66699 -33.999 -15c15.333 -5.33301 26.666 -10.333 33.999 -15
c22.667 -15.333 34 -37 34 -65v-167c0 -14 7.66699 -23.667 23 -29c10 -3.33301 24.333 -5 43 -5h15v-76z" />
    <glyph glyph-name="bar" unicode="|" horiz-adv-x="170" 
d="M156 0h-139v700h139v-700z" />
    <glyph glyph-name="braceright" unicode="}" horiz-adv-x="309" 
d="M298 304c-18.667 0 -33.3311 -3.33496 -43.998 -10.002c-16 -10 -24 -26.667 -24 -50v-115c0 -46.667 -6 -78.667 -18 -96c-18.667 -27.333 -56.334 -41 -113.001 -41h-89v76h15c18 0 32 1.66699 42 5c16 5.33301 24 15 24 29v167c0 27.333 11.333 49 34 65
c7.33301 4.66699 18.666 9.66699 33.999 15c-15.333 4.66699 -26.666 9.33398 -33.999 14.001c-22.667 15.333 -34 37 -34 65v167c0 14 -6.33301 23.167 -19 27.5s-28.334 6.5 -47.001 6.5h-15v76h89c56.667 0 94 -13.333 112 -40c12.667 -18.667 19 -51 19 -97v-115
c0 -23.333 7.66699 -39.666 23 -48.999c11.333 -7.33301 26.333 -11 45 -11v-89z" />
    <glyph glyph-name="asciitilde" unicode="~" horiz-adv-x="297" 
d="M280 705c0 -29.333 -9.5 -52.5 -28.5 -69.5s-39.833 -25.5 -62.5 -25.5c-8 0 -13.667 0.666992 -17 2l-63 18c-4.66699 0.666992 -9 1.66699 -13 3c-8.66699 0 -13 -7.66699 -13 -23h-73c0 26.667 7.83301 49.167 23.5 67.5s35.834 27.5 60.501 27.5
c7.33301 0 15.666 -1 24.999 -3l59 -16l14 -2c10 0 15 7 15 21h73z" />
    <glyph glyph-name="exclamdown" unicode="&#xa1;" horiz-adv-x="166" 
d="M156 598h-139v102h139v-102zM156 0h-139v567h139v-567z" />
    <glyph glyph-name="cent" unicode="&#xa2;" horiz-adv-x="361" 
d="M343 106c0 -32.667 -9.66406 -58.332 -28.9971 -76.999c-16.667 -16 -41.334 -27 -74.001 -33v-56h-120v58c-32.667 6 -57.334 17.333 -74.001 34c-19.333 19.333 -29 46 -29 80v339c0 32.667 9.16699 58.167 27.5 76.5s43.5 30.833 75.5 37.5v63h120v-61
c30.667 0 55.5 -9.83301 74.5 -29.5s28.5 -46.834 28.5 -81.501v-140h-139v139c0 18.667 -8 28 -24 28c-6.66699 0 -12.334 -2.33301 -17.001 -7s-7 -11.667 -7 -21v-347c0 -9.33301 2 -16.5 6 -21.5s10 -7.5 18 -7.5c16 0 24 9.66699 24 29v137h139v-139z" />
    <glyph glyph-name="sterling" unicode="&#xa3;" horiz-adv-x="408" 
d="M398 623l-142 -73v37c0 6 -1.83301 10.5 -5.5 13.5s-9.16699 4.5 -16.5 4.5c-6.66699 0 -11.667 -1.5 -15 -4.5s-5 -7.83301 -5 -14.5v-103h87v-89h-87v-32h87v-89h-87v-183h128v-90h-288v273h-37v89h37v32h-37v89h37v88c0 36.667 12.333 66.667 37 90
c30.667 29.333 78 44 142 44c50.667 0 89 -7.33301 115 -22c22 -12.667 38.667 -32.667 50 -60z" />
    <glyph glyph-name="currency" unicode="&#xa4;" horiz-adv-x="433" 
d="M418 85l-64.001 -62.9971l-57 56c-12 -6.66699 -24.667 -11.834 -38 -15.501s-27 -5.5 -41 -5.5c-12.667 0 -25.5 1.66699 -38.5 5s-25.833 8.33301 -38.5 15l-55 -55l-63 64l54 53c-7.33301 13.333 -12.833 26.666 -16.5 39.999s-5.5 27 -5.5 41
c0 14.667 1.83301 28.5 5.5 41.5s8.83398 25.5 15.501 37.5l-52 53l63 64l53 -54c12 7.33301 24.5 12.666 37.5 15.999s26.5 5 40.5 5s27.667 -1.83301 41 -5.5s26.333 -9.16699 39 -16.5l57 57l63 -62l-58 -57c7.33301 -12 12.666 -24.5 15.999 -37.5s5 -26.833 5 -41.5
c0 -14 -1.66699 -27.667 -5 -41s-8.66602 -26 -15.999 -38zM284.999 220.003c0 18 -6.66699 33.667 -20 47s-29 20 -47 20c-18.667 0 -34.5 -6.5 -47.5 -19.5s-19.5 -28.833 -19.5 -47.5c0 -18 6.66699 -33.667 20 -47s29 -20 47 -20s33.667 6.66699 47 20s20 29 20 47z" />
    <glyph glyph-name="yen" unicode="&#xa5;" horiz-adv-x="460" 
d="M446 700l-140 -392h105v-74h-116v-52h116v-73h-116v-109h-154v109h-116v73h116v52h-116v74h107l-119 392h147l69 -248l79 248h138z" />
    <glyph glyph-name="brokenbar" unicode="&#xa6;" horiz-adv-x="181" 
d="M168 377h-150v323h150v-323zM168 0h-150v323h150v-323z" />
    <glyph glyph-name="section" unicode="&#xa7;" horiz-adv-x="347" 
d="M331 259c0 -31.333 -8.33398 -58.332 -25.001 -80.999c-14 -18.667 -27 -28 -39 -28c14.667 -12 25.834 -25 33.501 -39s11.5 -30 11.5 -48v-68c0 -37.333 -11.333 -65.833 -34 -85.5s-61 -29.5 -115 -29.5c-48 0 -84.333 9.83301 -109 29.5s-37 44.5 -37 74.5v103h117
v-109c0 -8.66699 2.16699 -15.167 6.5 -19.5s10.833 -6.5 19.5 -6.5s15 2.16699 19 6.5s6 10.833 6 19.5v66c0 16 -4.33301 28.667 -13 38c-24 21.333 -49.667 46.333 -77 75l-57 58c-18.667 26.667 -28 63.667 -28 111c0 32.667 8.33301 60 25 82c14 18.667 27 28 39 28
c-16 12.667 -27.667 25.667 -35 39s-11 29.666 -11 48.999v66c0 38 10.667 66 32 84c24 20.667 63.333 31 118 31c48.667 0 85.667 -10.333 111 -31c22.667 -18.667 34 -43 34 -73v-103h-117v109c0 8.66699 -2.33301 15 -7 19s-10.667 6 -18 6c-8 0 -14.167 -2 -18.5 -6
s-6.5 -10.333 -6.5 -19v-66c0 -16 4.33301 -28.667 13 -38c24 -21.333 49.667 -46.333 77 -75l57 -58c18.667 -26.667 28 -63.667 28 -111zM233.999 190.001c12 12 18 25.334 18 40.001c0 19.333 -11 41.666 -33 66.999c-12.667 14.667 -34.667 34.667 -66 60l-47 38
c-11.333 -11.333 -17 -24 -17 -38c0 -20 11 -42 33 -66c5.33301 -6 27.333 -26 66 -60z" />
    <glyph glyph-name="dieresis" unicode="&#xa8;" horiz-adv-x="262" 
d="M246 657c0 -12.667 -4.66699 -23.667 -14 -33s-20.666 -14 -33.999 -14s-24.666 4.33301 -33.999 13s-14 20 -14 34c0 13.333 4.66699 24.666 14 33.999s20.666 14 33.999 14s24.666 -4.66699 33.999 -14s14 -20.666 14 -33.999zM106 657
c0 -12.667 -4.66699 -23.667 -14 -33s-20.666 -14 -33.999 -14s-24.666 4.33301 -33.999 13s-14 20 -14 34c0 13.333 4.66699 24.666 14 33.999s20.666 14 33.999 14s24.666 -4.66699 33.999 -14s14 -20.666 14 -33.999z" />
    <glyph glyph-name="copyright" unicode="&#xa9;" horiz-adv-x="407" 
d="M397 512c0 -54 -18.667 -99.667 -56 -137s-83 -56 -137 -56c-53.333 0 -99 18.667 -137 56s-57 83 -57 137c0 53.333 18.833 98.833 56.5 136.5s83.5 56.5 137.5 56.5s99.667 -18.667 137 -56s56 -83 56 -137zM365 512c0 44.667 -15.667 82.667 -47 114
s-69.333 47 -114 47c-45.333 0 -83.666 -15.667 -114.999 -47s-47 -69.333 -47 -114s15.667 -82.667 47 -114s69.666 -47 114.999 -47s83.5 15.5 114.5 46.5s46.5 69.167 46.5 114.5zM264 419c0 -10 -5.49805 -19.334 -16.498 -28.001s-25.5 -13 -43.5 -13
c-18.667 0 -34.334 4.16699 -47.001 12.5s-19 19.833 -19 34.5v170c0 16.667 5 29.334 15 38.001s27 13 51 13c21.333 0 36.666 -4.33301 45.999 -13s14 -20 14 -34v-48h-52v53c0 4 -2.66699 6 -8 6c-6 0 -9 -2 -9 -6v-182c0 -4.66699 3 -7 9 -7c5.33301 0 8 2.33301 8 7v64
h52v-67z" />
    <glyph glyph-name="ordfeminine" unicode="&#xaa;" horiz-adv-x="191" 
d="M180 419l-61 -0.00195312v12c-2.66699 -4.66699 -7.16699 -8.5 -13.5 -11.5s-16.833 -4.5 -31.5 -4.5c-38 0 -57 15 -57 45v57c0 22.667 15.667 41.334 47 56.001s47 25.334 47 32.001v42c0 4.66699 -1 8.16699 -3 10.5s-5 3.5 -9 3.5c-8 0 -12 -4.66699 -12 -14v-50h-67
v50c0 21.333 7.66699 36.333 23 45s35.333 13 60 13s43.667 -4.5 57 -13.5s20 -24.5 20 -46.5v-226zM180 356.998h-163v45h163v-45zM111 472.998l-0.000976562 72c-9.33301 -2.66699 -15.666 -5.33398 -18.999 -8.00098c-3.33301 -3.33301 -5 -7.66602 -5 -12.999v-51
c0 -8.66699 4 -13 12 -13s12 4.33301 12 13z" />
    <glyph glyph-name="guillemotleft" unicode="&#xab;" horiz-adv-x="551" 
d="M534 0l-280 173v79l280 174v-109l-172 -105l172 -104v-108zM297 0l-280 173v79l280 174v-109l-172 -105l172 -104v-108z" />
    <glyph glyph-name="logicalnot" unicode="&#xac;" horiz-adv-x="569" 
d="M552 159h-90v135h-445v106h535v-241z" />
    <glyph glyph-name="registered" unicode="&#xae;" horiz-adv-x="407" 
d="M397 512c0 -54 -18.667 -99.667 -56 -137s-83 -56 -137 -56c-53.333 0 -99 18.667 -137 56s-57 83 -57 137c0 53.333 18.833 98.833 56.5 136.5s83.5 56.5 137.5 56.5s99.667 -18.667 137 -56s56 -83 56 -137zM365 512c0 44.667 -15.667 82.667 -47 114
s-69.333 47 -114 47c-45.333 0 -83.666 -15.667 -114.999 -47s-47 -69.333 -47 -114s15.667 -82.667 47 -114s69.666 -47 114.999 -47s83.5 15.5 114.5 46.5s46.5 69.167 46.5 114.5zM278 380h-59c-6 6.66699 -9 23 -9 49v65c0 8.66699 -5.66699 13 -17 13v-126h-58v263h71
c40 0 60 -15.667 60 -47v-31c0 -12 -2.66699 -21 -8 -27s-14.333 -11 -27 -15c17.333 -4 28 -10.667 32 -20c2 -4.66699 3 -13 3 -25v-51c0.666992 -9.33301 1.66699 -18.833 3 -28.5s4.33301 -16.167 9 -19.5zM210 553v43c0 9.33301 -5.66699 14 -17 14v-71
c11.333 0 17 4.66699 17 14z" />
    <glyph glyph-name="macron" unicode="&#xaf;" horiz-adv-x="372" 
d="M367 767h-369v79h369v-79z" />
    <glyph glyph-name="degree" unicode="&#xb0;" horiz-adv-x="233" 
d="M220 600c0 -28 -10.333 -52.333 -31 -73s-45.334 -31 -74.001 -31s-53.334 10 -74.001 30s-31 44.667 -31 74c0 28.667 10.333 53.334 31 74.001s45.334 31 74.001 31s53.334 -10.333 74.001 -31s31 -45.334 31 -74.001zM146 600c0 8.66699 -3 16 -9 22s-13.333 9 -22 9
s-16 -3 -22 -9s-9 -13.333 -9 -22s3 -16 9 -22s13.333 -9 22 -9s16 3 22 9s9 13.333 9 22z" />
    <glyph glyph-name="plusminus" unicode="&#xb1;" horiz-adv-x="383" 
d="M368 1h-351v79h136v91h-136v79h136v136h79v-136h136v-79h-136v-91h136v-79z" />
    <glyph glyph-name="twosuperior" unicode="&#xb2;" horiz-adv-x="200" 
d="M196 354l-175.999 -0.00195312v47l86 158c6 10.667 10 20.834 12 30.501s3 26.167 3 49.5c0 4.66699 -1.33301 8.16699 -4 10.5s-6.66699 3.5 -12 3.5s-9.33301 -1.16699 -12 -3.5s-4 -5.83301 -4 -10.5v-59h-69v60c0 22 7.16699 38.5 21.5 49.5s35.833 16.5 64.5 16.5
c31.333 0 54.666 -7.66699 69.999 -23c13.333 -13.333 20 -31.666 20 -54.999v-27c0 -8.66699 -1.66699 -18 -5 -28l-3 -7l-86 -167h94v-45z" />
    <glyph glyph-name="threesuperior" unicode="&#xb3;" horiz-adv-x="197" 
d="M195 420c0 -28.667 -10.001 -48.998 -30.001 -60.998c-13.333 -8 -32.333 -12 -57 -12c-29.333 0 -51.333 5.66699 -66 17s-22 28.333 -22 51v82h71v-83c0 -4 1.16699 -7 3.5 -9s5.83301 -3 10.5 -3s8.16699 1 10.5 3s3.5 5 3.5 9v81c0 12 -5.33301 19.667 -16 23
c-3.33301 0.666992 -9 1 -17 1v41c4.66699 0 11.334 0.333008 20.001 1s13 6.66699 13 18v62c0 3.33301 -1.16699 5.83301 -3.5 7.5s-5.83301 2.5 -10.5 2.5c-10 0 -15 -3.33301 -15 -10v-63h-68v65c0 41.333 28.667 62 86 62c28.667 0 50.167 -5.16699 64.5 -15.5
s21.5 -25.833 21.5 -46.5v-41c0 -16.667 -1.33301 -28.334 -4 -35.001c-5.33301 -13.333 -17.333 -23.333 -36 -30c18 -5.33301 30 -15.333 36 -30c3.33301 -8.66699 5 -20.334 5 -35.001v-52z" />
    <glyph glyph-name="acute" unicode="&#xb4;" horiz-adv-x="155" 
d="M147 700l-58 -90h-77l30 90h105z" />
    <glyph glyph-name="mu" unicode="&#xb5;" horiz-adv-x="376" 
d="M355 0l-139.001 0.00195312v19c-10 -8 -19.167 -13.833 -27.5 -17.5s-23.166 -5.5 -44.499 -5.5c0 -42.667 -5.33301 -71.334 -16 -86.001c-14.667 -20 -45 -30 -91 -30h-60v71c12 0 20.667 0.666992 26 2c17.333 5.33301 26 18.666 26 39.999v574h139v-461
c0 -17.333 8 -26 24 -26s24 8.33301 24 25v462h139v-567z" />
    <glyph glyph-name="paragraph" unicode="&#xb6;" horiz-adv-x="583" 
d="M568 610l-55 -0.000976562v-610h-139v610h-58v-610h-139l-1 375c-50 0 -89 13.333 -117 40s-42 59.334 -42 98.001v49c0 38 14.167 70.5 42.5 97.5s67.5 40.5 117.5 40.5h391v-90z" />
    <glyph glyph-name="cedilla" unicode="&#xb8;" horiz-adv-x="820" 
d="M244 -65c0 -14.667 -5.50098 -27.5 -16.501 -38.5s-23.833 -16.5 -38.5 -16.5c-13.333 0 -25 3.66699 -35 11l-6 6l19 23l6 -4c4.66699 -2.66699 9 -4 13 -4c7.33301 0 12.833 2 16.5 6s5.5 9.66699 5.5 17c0 8 -1.66699 13.833 -5 17.5s-8.66602 5.5 -15.999 5.5
c-4.66699 0 -10 -1 -16 -3v49h32v-17c12 -2.66699 21.833 -8.5 29.5 -17.5s11.5 -20.5 11.5 -34.5z" />
    <glyph glyph-name="onesuperior" unicode="&#xb9;" horiz-adv-x="164" 
d="M128 350h-77v258h-29v51c10 0 19 4.33301 27 13s12 18 12 28h67v-350z" />
    <glyph glyph-name="ordmasculine" unicode="&#xba;" horiz-adv-x="187" 
d="M173 473c0 -21.333 -7.99902 -36.999 -23.999 -46.999c-13.333 -8 -32.333 -12 -57 -12s-43.667 4 -57 12c-16.667 10 -25 26 -25 48v171c0 21.333 7.5 36.666 22.5 45.999s34.833 14 59.5 14c23.333 0 42.666 -4.83301 57.999 -14.5s23 -24.5 23 -44.5v-173z
M173.001 357.001h-163v45h163v-45zM103.001 472.001v175c0 4.66699 -1 8.16699 -3 10.5s-5 3.5 -9 3.5s-7 -1.16699 -9 -3.5s-3 -5.83301 -3 -10.5v-175c0 -4.66699 1 -8.16699 3 -10.5s5 -3.5 9 -3.5s7 1.16699 9 3.5s3 5.83301 3 10.5z" />
    <glyph glyph-name="guillemotright" unicode="&#xbb;" horiz-adv-x="547" 
d="M534 173l-280 -173v108l172 104l-172 105v109l280 -174v-79zM297 173l-280 -173v108l172 104l-172 105v109l280 -174v-79z" />
    <glyph glyph-name="onequarter" unicode="&#xbc;" horiz-adv-x="510" 
d="M135 350h-77v258h-30v51c10 0 19.167 4.5 27.5 13.5s12.5 18.167 12.5 27.5h67v-350zM446 700l-350 -700h-83l349 700h84zM477 45h-38v-45h-75v45h-104v50l76 255h103v-252h38v-53zM364 98v138l-35 -138h35z" />
    <glyph glyph-name="onehalf" unicode="&#xbd;" horiz-adv-x="510" 
d="M133 350h-77v258h-30v51c10 0 19.167 4.5 27.5 13.5s12.5 18.167 12.5 27.5h67v-350zM444 700l-350 -700h-83l350 700h83zM485 0l-176 -0.000976562v47l87 158c6 12 9.83301 22.667 11.5 32s2.5 20.333 2.5 33v15c0 4.66699 -1.33301 8.16699 -4 10.5
s-6.66699 3.5 -12 3.5c-10.667 0 -16 -4.66699 -16 -14v-59h-69v60c0 44 29 66 87 66c31.333 0 54 -7.16699 68 -21.5s21 -33.166 21 -56.499v-27c0 -8.66699 -1.66699 -18 -5 -28l-3 -7l-86 -167h94v-45z" />
    <glyph glyph-name="threequarters" unicode="&#xbe;" horiz-adv-x="482" 
d="M187 420c0 -28.667 -10.001 -48.998 -30.001 -60.998c-13.333 -8 -32.333 -12 -57 -12c-29.333 0 -51.333 5.66699 -66 17s-22 28.333 -22 51v82h71v-83c0 -4 1.16699 -7 3.5 -9s5.83301 -3 10.5 -3s8.16699 1 10.5 3s3.5 5 3.5 9v81c0 12 -5.33301 19.667 -16 23
c-3.33301 0.666992 -9 1 -17 1v41c4.66699 0 11.334 0.333008 20.001 1s13 6.66699 13 18v62c0 3.33301 -1.16699 5.83301 -3.5 7.5s-5.83301 2.5 -10.5 2.5c-10 0 -15 -3.33301 -15 -10v-63h-68v65c0 41.333 28.667 62 86 62c28.667 0 50.167 -5.16699 64.5 -15.5
s21.5 -25.833 21.5 -46.5v-41c0 -16.667 -1.33301 -28.334 -4 -35.001c-5.33301 -13.333 -17.333 -23.333 -36 -30c18 -5.33301 30 -15.333 36 -30c3.33301 -8.66699 5 -20.334 5 -35.001v-52zM455.999 700.002l-350 -700h-83l350 700h83zM467.999 45.002h-38v-45h-75v45
h-104v50l76 255h103v-252h38v-53zM354.999 98.002v138l-34 -138h34z" />
    <glyph glyph-name="questiondown" unicode="&#xbf;" horiz-adv-x="358" 
d="M285 598h-139v102h139v-102zM343 116c0 -41.333 -13.167 -72.335 -39.5 -93.002s-65.833 -31 -118.5 -31c-58.667 0 -101.167 10.333 -127.5 31s-39.5 55.667 -39.5 105v93c0 26.667 4.5 51 13.5 73s30.167 52.333 63.5 91c22 26 36 47.833 42 65.5s9 45.167 9 82.5v36
h139c0 -61.333 -3.33301 -105.333 -10 -132c-3.33301 -13.333 -7.83301 -25.666 -13.5 -36.999s-19.167 -29.666 -40.5 -54.999c-27.333 -33.333 -43.833 -55.833 -49.5 -67.5s-8.5 -25.167 -8.5 -40.5v-129c0 -6.66699 2 -11.834 6 -15.501s9.66699 -5.5 17 -5.5
c8 0 13.833 1.83301 17.5 5.5s5.5 8.83398 5.5 15.501v182h134v-174z" />
    <glyph glyph-name="Agrave" unicode="&#xc0;" horiz-adv-x="440" 
d="M432 0h-152l-26 188h-69l-26 -188h-152l115 700h195zM241 285l-22 209l-21 -209h43zM288 731h-76l-59 90h106z" />
    <glyph glyph-name="Aacute" unicode="&#xc1;" horiz-adv-x="440" 
d="M432 0h-152l-26 188h-69l-26 -188h-152l115 700h195zM241 285l-22 209l-21 -209h43zM290 821l-58 -90h-77l30 90h105z" />
    <glyph glyph-name="Acircumflex" unicode="&#xc2;" horiz-adv-x="440" 
d="M432 0h-152l-26 188h-69l-26 -188h-152l115 700h195zM241 285l-22 209l-21 -209h43zM359 731h-99l-43 65l-43 -65h-99l77 116h130z" />
    <glyph glyph-name="Atilde" unicode="&#xc3;" horiz-adv-x="440" 
d="M432 0h-152l-26 188h-69l-26 -188h-152l115 700h195zM241 285l-22 209l-21 -209h43zM386 847c0 -34.667 -12.335 -63.333 -37.002 -86c-22 -20 -47 -30 -75 -30c-7.33301 0 -14.666 1 -21.999 3l-77 22c-6 2 -11.333 3 -16 3s-8.5 -2 -11.5 -6s-4.5 -11.333 -4.5 -22h-90
c0 32.667 9.83301 60.167 29.5 82.5s44.834 33.5 75.501 33.5h15l15 -4l72 -19c7.33301 -2 13.333 -3 18 -3c12 0 18 8.66699 18 26h90z" />
    <glyph glyph-name="Adieresis" unicode="&#xc4;" horiz-adv-x="440" 
d="M432 0h-152l-26 188h-69l-26 -188h-152l115 700h195zM241 285l-22 209l-21 -209h43zM335 778c0 -12.667 -4.66699 -23.667 -14 -33s-20.666 -14 -33.999 -14s-24.666 4.33301 -33.999 13s-14 20 -14 34c0 13.333 4.66699 24.666 14 33.999s20.666 14 33.999 14
s24.666 -4.66699 33.999 -14s14 -20.666 14 -33.999zM195 778c0 -12.667 -4.66699 -23.667 -14 -33s-20.666 -14 -33.999 -14s-24.666 4.33301 -33.999 13s-14 20 -14 34c0 13.333 4.66699 24.666 14 33.999s20.666 14 33.999 14s24.666 -4.66699 33.999 -14
s14 -20.666 14 -33.999z" />
    <glyph glyph-name="Aring" unicode="&#xc5;" horiz-adv-x="440" 
d="M432 0h-152l-26 188h-69l-26 -188h-152l115 700h195zM241 285l-22 209l-21 -209h43zM312 827c1.33301 -26.667 -7.16699 -49.168 -25.5 -67.501s-40.833 -27.5 -67.5 -27.5c-25.333 0 -47.166 9.16699 -65.499 27.5s-27.833 40.5 -28.5 66.5
c0.666992 26 10.167 48.167 28.5 66.5s40.166 27.5 65.499 27.5c26.667 0 49.167 -9.16699 67.5 -27.5s26.833 -40.166 25.5 -65.499zM254 825.999c0.666992 10 -2.33203 18.333 -8.99902 25s-15.334 10 -26.001 10c-8.66699 0 -16.334 -3.33301 -23.001 -10
s-10.334 -15 -11.001 -25c0.666992 -9.33301 4.33398 -17.333 11.001 -24s14.334 -10 23.001 -10c10 0 18.5 3.33301 25.5 10s10.167 14.667 9.5 24z" />
    <glyph glyph-name="AE" unicode="&#xc6;" horiz-adv-x="566" 
d="M552 0h-301v188h-63l-31 -188h-144l115 700h422v-90h-145v-189h131v-85h-131v-246h147v-90zM251 285v281l-47 -281h47z" />
    <glyph glyph-name="Ccedilla" unicode="&#xc7;" horiz-adv-x="370" 
d="M354 102c0 -27.333 -13.3311 -51.668 -39.998 -73.001c-30.667 -24.667 -70.334 -37 -119.001 -37c-52 0 -94 10.333 -126 31c-34.667 22.667 -52 54.334 -52 95.001v451c0 44.667 12.667 77.667 38 99c29.333 24.667 76 37 140 37c55.333 0 96.666 -12.333 123.999 -37
c23.333 -21.333 35 -50.333 35 -87v-127h-140v139c0 6 -1.66699 10.333 -5 13s-8.66602 4 -15.999 4s-12.833 -1.33301 -16.5 -4s-5.5 -7 -5.5 -13v-486c0 -5.33301 2.16699 -9.5 6.5 -12.5s9.5 -4.5 15.5 -4.5c7.33301 0 12.666 1.5 15.999 4.5s5 7.16699 5 12.5v173h140
v-178zM244.002 -65.002c0 -14.667 -5.50098 -27.5 -16.501 -38.5s-23.833 -16.5 -38.5 -16.5c-13.333 0 -25 3.66699 -35 11l-6 6l19 23l6 -4c4.66699 -2.66699 9 -4 13 -4c7.33301 0 12.833 2 16.5 6s5.5 9.66699 5.5 17c0 8 -1.66699 13.833 -5 17.5
s-8.66602 5.5 -15.999 5.5c-4.66699 0 -10 -1 -16 -3v49h32v-17c12 -2.66699 21.833 -8.5 29.5 -17.5s11.5 -20.5 11.5 -34.5z" />
    <glyph glyph-name="Egrave" unicode="&#xc8;" horiz-adv-x="326" 
d="M318 0h-301v700h299v-90h-145v-189h131v-85h-131v-246h147v-90zM231 731h-76l-59 90h106z" />
    <glyph glyph-name="Eacute" unicode="&#xc9;" horiz-adv-x="326" 
d="M318 0h-301v700h299v-90h-145v-189h131v-85h-131v-246h147v-90zM233 821l-58 -90h-77l30 90h105z" />
    <glyph glyph-name="Ecircumflex" unicode="&#xca;" horiz-adv-x="326" 
d="M318 0h-301v700h299v-90h-145v-189h131v-85h-131v-246h147v-90zM330 731h-99l-43 65l-43 -65h-99l77 116h130z" />
    <glyph glyph-name="Edieresis" unicode="&#xcb;" horiz-adv-x="326" 
d="M318 0h-301v700h299v-90h-145v-189h131v-85h-131v-246h147v-90zM278 778c0 -12.667 -4.66699 -23.667 -14 -33s-20.666 -14 -33.999 -14s-24.666 4.33301 -33.999 13s-14 20 -14 34c0 13.333 4.66699 24.666 14 33.999s20.666 14 33.999 14s24.666 -4.66699 33.999 -14
s14 -20.666 14 -33.999zM138 778c0 -12.667 -4.66699 -23.667 -14 -33s-20.666 -14 -33.999 -14s-24.666 4.33301 -33.999 13s-14 20 -14 34c0 13.333 4.66699 24.666 14 33.999s20.666 14 33.999 14s24.666 -4.66699 33.999 -14s14 -20.666 14 -33.999z" />
    <glyph glyph-name="Igrave" unicode="&#xcc;" horiz-adv-x="182" 
d="M171 0h-154v700h154v-700zM159 731h-76l-59 90h106z" />
    <glyph glyph-name="Iacute" unicode="&#xcd;" horiz-adv-x="182" 
d="M171 0h-154v700h154v-700zM161 821l-58 -90h-77l30 90h105z" />
    <glyph glyph-name="Icircumflex" unicode="&#xce;" horiz-adv-x="182" 
d="M171 0h-154v700h154v-700zM230 731h-99l-43 65l-43 -65h-99l77 116h130z" />
    <glyph glyph-name="Idieresis" unicode="&#xcf;" horiz-adv-x="182" 
d="M171 0h-154v700h154v-700zM206 778c0 -12.667 -4.66699 -23.667 -14 -33s-20.666 -14 -33.999 -14s-24.666 4.33301 -33.999 13s-14 20 -14 34c0 13.333 4.66699 24.666 14 33.999s20.666 14 33.999 14s24.666 -4.66699 33.999 -14s14 -20.666 14 -33.999zM66 778
c0 -12.667 -4.66699 -23.667 -14 -33s-20.666 -14 -33.999 -14s-24.666 4.33301 -33.999 13s-14 20 -14 34c0 13.333 4.66699 24.666 14 33.999s20.666 14 33.999 14s24.666 -4.66699 33.999 -14s14 -20.666 14 -33.999z" />
    <glyph glyph-name="Eth" unicode="&#xd0;" horiz-adv-x="423" 
d="M396 138c0 -38.667 -13.333 -70.668 -40 -96.001c-29.333 -28 -69 -42 -119 -42h-194v336h-25v85h25v279h193c50 0 89.667 -13.667 119 -41c27.333 -25.333 41 -57.666 41 -96.999v-424zM244 126.999v446.001c0 17.333 -4.16699 27.833 -12.5 31.5s-19.833 5.5 -34.5 5.5
v-189h33v-85h-33v-246c15.333 0 25.333 1 30 3c11.333 5.33301 17 16.666 17 33.999z" />
    <glyph glyph-name="Ntilde" unicode="&#xd1;" horiz-adv-x="425" 
d="M409 0h-158l-105 373v-373h-128v700h175l88 -319v319h128v-700zM378 847c0 -34.667 -12.335 -63.333 -37.002 -86c-22 -20 -47 -30 -75 -30c-7.33301 0 -14.666 1 -21.999 3l-77 22c-6 2 -11.333 3 -16 3s-8.5 -2 -11.5 -6s-4.5 -11.333 -4.5 -22h-90
c0 32.667 9.83301 60.167 29.5 82.5s44.834 33.5 75.501 33.5h15l15 -4l72 -19c7.33301 -2 13.333 -3 18 -3c12 0 18 8.66699 18 26h90z" />
    <glyph glyph-name="Ograve" unicode="&#xd2;" horiz-adv-x="382" 
d="M368 119c0 -40.667 -16.168 -72 -48.501 -94s-74.5 -33 -126.5 -33s-94.333 10.667 -127 32s-49 52.666 -49 93.999v451c0 44.667 12.667 77.667 38 99c28.667 24.667 75 37 139 37c58.667 0 102.334 -11.667 131.001 -35s43 -56.666 43 -99.999v-451zM217.999 111v477
c0 7.33301 -2 12.666 -6 15.999s-10.333 5 -19 5s-15.167 -1.66699 -19.5 -5s-6.5 -8.66602 -6.5 -15.999v-477c0 -6.66699 2.16699 -11.834 6.5 -15.501s10.833 -5.5 19.5 -5.5s15 1.83301 19 5.5s6 8.83398 6 15.501zM258.999 731h-76l-59 90h106z" />
    <glyph glyph-name="Oacute" unicode="&#xd3;" horiz-adv-x="382" 
d="M368 119c0 -40.667 -16.168 -72 -48.501 -94s-74.5 -33 -126.5 -33s-94.333 10.667 -127 32s-49 52.666 -49 93.999v451c0 44.667 12.667 77.667 38 99c28.667 24.667 75 37 139 37c58.667 0 102.334 -11.667 131.001 -35s43 -56.666 43 -99.999v-451zM217.999 111v477
c0 7.33301 -2 12.666 -6 15.999s-10.333 5 -19 5s-15.167 -1.66699 -19.5 -5s-6.5 -8.66602 -6.5 -15.999v-477c0 -6.66699 2.16699 -11.834 6.5 -15.501s10.833 -5.5 19.5 -5.5s15 1.83301 19 5.5s6 8.83398 6 15.501zM260.999 821l-58 -90h-77l30 90h105z" />
    <glyph glyph-name="Ocircumflex" unicode="&#xd4;" horiz-adv-x="382" 
d="M368 119c0 -40.667 -16.168 -72 -48.501 -94s-74.5 -33 -126.5 -33s-94.333 10.667 -127 32s-49 52.666 -49 93.999v451c0 44.667 12.667 77.667 38 99c28.667 24.667 75 37 139 37c58.667 0 102.334 -11.667 131.001 -35s43 -56.666 43 -99.999v-451zM217.999 111v477
c0 7.33301 -2 12.666 -6 15.999s-10.333 5 -19 5s-15.167 -1.66699 -19.5 -5s-6.5 -8.66602 -6.5 -15.999v-477c0 -6.66699 2.16699 -11.834 6.5 -15.501s10.833 -5.5 19.5 -5.5s15 1.83301 19 5.5s6 8.83398 6 15.501zM329.999 731h-99l-43 65l-43 -65h-99l77 116h130z" />
    <glyph glyph-name="Otilde" unicode="&#xd5;" horiz-adv-x="382" 
d="M368 119c0 -40.667 -16.168 -72 -48.501 -94s-74.5 -33 -126.5 -33s-94.333 10.667 -127 32s-49 52.666 -49 93.999v451c0 44.667 12.667 77.667 38 99c28.667 24.667 75 37 139 37c58.667 0 102.334 -11.667 131.001 -35s43 -56.666 43 -99.999v-451zM217.999 111v477
c0 7.33301 -2 12.666 -6 15.999s-10.333 5 -19 5s-15.167 -1.66699 -19.5 -5s-6.5 -8.66602 -6.5 -15.999v-477c0 -6.66699 2.16699 -11.834 6.5 -15.501s10.833 -5.5 19.5 -5.5s15 1.83301 19 5.5s6 8.83398 6 15.501zM356.999 847c0 -34.667 -12.335 -63.333 -37.002 -86
c-22 -20 -47 -30 -75 -30c-7.33301 0 -14.666 1 -21.999 3l-77 22c-6 2 -11.333 3 -16 3s-8.5 -2 -11.5 -6s-4.5 -11.333 -4.5 -22h-90c0 32.667 9.83301 60.167 29.5 82.5s44.834 33.5 75.501 33.5h15l15 -4l72 -19c7.33301 -2 13.333 -3 18 -3c12 0 18 8.66699 18 26h90z
" />
    <glyph glyph-name="Odieresis" unicode="&#xd6;" horiz-adv-x="382" 
d="M368 119c0 -40.667 -16.168 -72 -48.501 -94s-74.5 -33 -126.5 -33s-94.333 10.667 -127 32s-49 52.666 -49 93.999v451c0 44.667 12.667 77.667 38 99c28.667 24.667 75 37 139 37c58.667 0 102.334 -11.667 131.001 -35s43 -56.666 43 -99.999v-451zM217.999 111v477
c0 7.33301 -2 12.666 -6 15.999s-10.333 5 -19 5s-15.167 -1.66699 -19.5 -5s-6.5 -8.66602 -6.5 -15.999v-477c0 -6.66699 2.16699 -11.834 6.5 -15.501s10.833 -5.5 19.5 -5.5s15 1.83301 19 5.5s6 8.83398 6 15.501zM305.999 778c0 -12.667 -4.66699 -23.667 -14 -33
s-20.666 -14 -33.999 -14s-24.666 4.33301 -33.999 13s-14 20 -14 34c0 13.333 4.66699 24.666 14 33.999s20.666 14 33.999 14s24.666 -4.66699 33.999 -14s14 -20.666 14 -33.999zM165.999 778c0 -12.667 -4.66699 -23.667 -14 -33s-20.666 -14 -33.999 -14
s-24.666 4.33301 -33.999 13s-14 20 -14 34c0 13.333 4.66699 24.666 14 33.999s20.666 14 33.999 14s24.666 -4.66699 33.999 -14s14 -20.666 14 -33.999z" />
    <glyph glyph-name="multiply" unicode="&#xd7;" horiz-adv-x="373" 
d="M361 55l-56 -56l-121 121l-118 -119l-56 56l118 119l-118 118l56 56l118 -118l121 121l56 -56l-121 -121z" />
    <glyph glyph-name="Oslash" unicode="&#xd8;" horiz-adv-x="379" 
d="M380 745l-35 -96.002c15.333 -21.333 23 -47.666 23 -78.999v-451c0 -40.667 -16.167 -72 -48.5 -94s-74.5 -33 -126.5 -33c-16.667 0 -32.5 1.16699 -47.5 3.5s-29.167 5.83301 -42.5 10.5l-20 -54h-83l37 100c-6 8.66699 -10.833 18.834 -14.5 30.501
s-5.5 23.5 -5.5 35.5v451c0 44.667 12.667 77.667 38 99c28.667 24.667 75 37 139 37c16 0 30.833 -0.833008 44.5 -2.5s26.5 -4.5 38.5 -8.5l20 51h83zM218 533.998v54c0 7.33301 -2 12.666 -6 15.999s-10.333 5 -19 5s-15.167 -1.66699 -19.5 -5
s-6.5 -8.66602 -6.5 -15.999v-190zM218 110.998v200l-51 -135v-65c0 -6.66699 2.16699 -11.834 6.5 -15.501s10.833 -5.5 19.5 -5.5s15 1.83301 19 5.5s6 8.83398 6 15.501z" />
    <glyph glyph-name="Ugrave" unicode="&#xd9;" horiz-adv-x="391" 
d="M376 119c0 -40.667 -16.833 -72.001 -50.5 -94.001s-76.5 -33 -128.5 -33s-94.333 10.333 -127 31c-35.333 22.667 -53 54.334 -53 95.001v582h154v-589c0 -6.66699 2.16699 -11.834 6.5 -15.501s10.833 -5.5 19.5 -5.5s15 1.83301 19 5.5s6 8.83398 6 15.501v589h154
v-581zM263 730.999h-76l-59 90h106z" />
    <glyph glyph-name="Uacute" unicode="&#xda;" horiz-adv-x="391" 
d="M376 119c0 -40.667 -16.833 -72.001 -50.5 -94.001s-76.5 -33 -128.5 -33s-94.333 10.333 -127 31c-35.333 22.667 -53 54.334 -53 95.001v582h154v-589c0 -6.66699 2.16699 -11.834 6.5 -15.501s10.833 -5.5 19.5 -5.5s15 1.83301 19 5.5s6 8.83398 6 15.501v589h154
v-581zM265 820.999l-58 -90h-77l30 90h105z" />
    <glyph glyph-name="Ucircumflex" unicode="&#xdb;" horiz-adv-x="391" 
d="M376 119c0 -40.667 -16.833 -72.001 -50.5 -94.001s-76.5 -33 -128.5 -33s-94.333 10.333 -127 31c-35.333 22.667 -53 54.334 -53 95.001v582h154v-589c0 -6.66699 2.16699 -11.834 6.5 -15.501s10.833 -5.5 19.5 -5.5s15 1.83301 19 5.5s6 8.83398 6 15.501v589h154
v-581zM335 730.999h-99l-43 65l-43 -65h-99l77 116h130z" />
    <glyph glyph-name="Udieresis" unicode="&#xdc;" horiz-adv-x="391" 
d="M376 119c0 -40.667 -16.833 -72.001 -50.5 -94.001s-76.5 -33 -128.5 -33s-94.333 10.333 -127 31c-35.333 22.667 -53 54.334 -53 95.001v582h154v-589c0 -6.66699 2.16699 -11.834 6.5 -15.501s10.833 -5.5 19.5 -5.5s15 1.83301 19 5.5s6 8.83398 6 15.501v589h154
v-581zM311 777.999c0 -12.667 -4.66699 -23.667 -14 -33s-20.666 -14 -33.999 -14s-24.666 4.33301 -33.999 13s-14 20 -14 34c0 13.333 4.66699 24.666 14 33.999s20.666 14 33.999 14s24.666 -4.66699 33.999 -14s14 -20.666 14 -33.999zM171 777.999
c0 -12.667 -4.66699 -23.667 -14 -33s-20.666 -14 -33.999 -14s-24.666 4.33301 -33.999 13s-14 20 -14 34c0 13.333 4.66699 24.666 14 33.999s20.666 14 33.999 14s24.666 -4.66699 33.999 -14s14 -20.666 14 -33.999z" />
    <glyph glyph-name="Yacute" unicode="&#xdd;" horiz-adv-x="440" 
d="M437 700l-151 -423v-277h-154v278l-128 422h147l69 -248l79 248h138zM290 821l-58 -90h-77l30 90h105z" />
    <glyph glyph-name="Thorn" unicode="&#xde;" horiz-adv-x="387" 
d="M369 258c0 -42.667 -15.832 -73.999 -47.499 -93.999s-82.834 -30 -153.501 -30v-134h-150v700h150v-124c66 0 111 -4.66699 135 -14c44 -16.667 66 -53.334 66 -110.001v-194zM219.001 271.001l-0.000976562 168.001c0 16.667 -6 27.667 -18 33
c-6.66699 2.66699 -17.667 4 -33 4v-242c16.667 0 27.334 1 32.001 3c12.667 5.33301 19 16.666 19 33.999z" />
    <glyph glyph-name="germandbls" unicode="&#xdf;" horiz-adv-x="430" 
d="M412 138c0 -39.333 -12.3311 -71.335 -36.998 -96.002c-27.333 -28 -66 -42 -116 -42h-32v77c14.667 0 24.167 1.83301 28.5 5.5s6.5 14.167 6.5 31.5v190c0 12.667 -2 22 -6 28s-13.667 9 -29 9v76c13.333 0 21.666 1 24.999 3c6.66699 4.66699 10 16 10 34v127
c0 19.333 -9 29 -27 29c-18.667 0 -28 -10 -28 -30v-443c0 -57.333 -7.83301 -94.5 -23.5 -111.5s-53.834 -25.5 -114.501 -25.5h-59v90c21.333 0 34.333 1.33301 39 4c8 4.66699 12 17.334 12 38.001v568h185c50.667 0 90.167 -11.333 118.5 -34s42.5 -52.667 42.5 -90v-97
c0 -21.333 -4.33301 -39 -13 -53c-14 -21.333 -39.667 -38.333 -77 -51c39.333 -10 66.333 -25.333 81 -46c9.33301 -13.333 14 -31.666 14 -54.999v-136z" />
    <glyph glyph-name="agrave" unicode="&#xe0;" horiz-adv-x="361" 
d="M345 0l-122.998 0.000976562v22c-6.66699 -12.667 -16.834 -20.834 -30.501 -24.501s-33.167 -5.5 -58.5 -5.5c-41.333 0 -70.666 7.33301 -87.999 22s-26 37 -26 67v114c0 45.333 31.167 83 93.5 113s93.5 51 93.5 63v84c0 9.33301 -2 16.333 -6 21s-10 7 -18 7
c-6.66699 0 -12.334 -2.33301 -17.001 -7s-7 -11.667 -7 -21v-112h-134v113c0 42 17 72.667 51 92c27.333 15.333 65.666 23 114.999 23s86.333 -8.33301 111 -25c29.333 -19.333 44 -51 44 -95v-451zM206.002 106.001l0.000976562 146.002
c-18.667 -4.66699 -31.334 -10.334 -38.001 -17.001s-10 -15.334 -10 -26.001v-103c0 -8.66699 2.16699 -15.167 6.5 -19.5s10.5 -6.5 18.5 -6.5c6.66699 0 12.167 2.16699 16.5 6.5s6.5 10.833 6.5 19.5zM248.003 610.003h-76l-59 90h106z" />
    <glyph glyph-name="aacute" unicode="&#xe1;" horiz-adv-x="361" 
d="M345 0l-122.998 0.000976562v22c-6.66699 -12.667 -16.834 -20.834 -30.501 -24.501s-33.167 -5.5 -58.5 -5.5c-41.333 0 -70.666 7.33301 -87.999 22s-26 37 -26 67v114c0 45.333 31.167 83 93.5 113s93.5 51 93.5 63v84c0 9.33301 -2 16.333 -6 21s-10 7 -18 7
c-6.66699 0 -12.334 -2.33301 -17.001 -7s-7 -11.667 -7 -21v-112h-134v113c0 42 17 72.667 51 92c27.333 15.333 65.666 23 114.999 23s86.333 -8.33301 111 -25c29.333 -19.333 44 -51 44 -95v-451zM206.002 106.001l0.000976562 146.002
c-18.667 -4.66699 -31.334 -10.334 -38.001 -17.001s-10 -15.334 -10 -26.001v-103c0 -8.66699 2.16699 -15.167 6.5 -19.5s10.5 -6.5 18.5 -6.5c6.66699 0 12.167 2.16699 16.5 6.5s6.5 10.833 6.5 19.5zM250.003 700.003l-58 -90h-77l30 90h105z" />
    <glyph glyph-name="acircumflex" unicode="&#xe2;" horiz-adv-x="361" 
d="M345 0l-122.998 0.000976562v22c-6.66699 -12.667 -16.834 -20.834 -30.501 -24.501s-33.167 -5.5 -58.5 -5.5c-41.333 0 -70.666 7.33301 -87.999 22s-26 37 -26 67v114c0 45.333 31.167 83 93.5 113s93.5 51 93.5 63v84c0 9.33301 -2 16.333 -6 21s-10 7 -18 7
c-6.66699 0 -12.334 -2.33301 -17.001 -7s-7 -11.667 -7 -21v-112h-134v113c0 42 17 72.667 51 92c27.333 15.333 65.666 23 114.999 23s86.333 -8.33301 111 -25c29.333 -19.333 44 -51 44 -95v-451zM206.002 106.001l0.000976562 146.002
c-18.667 -4.66699 -31.334 -10.334 -38.001 -17.001s-10 -15.334 -10 -26.001v-103c0 -8.66699 2.16699 -15.167 6.5 -19.5s10.5 -6.5 18.5 -6.5c6.66699 0 12.167 2.16699 16.5 6.5s6.5 10.833 6.5 19.5zM320.003 610.003h-99l-43 65l-43 -65h-99l77 116h130z" />
    <glyph glyph-name="atilde" unicode="&#xe3;" horiz-adv-x="361" 
d="M345 0l-122.998 0.000976562v22c-6.66699 -12.667 -16.834 -20.834 -30.501 -24.501s-33.167 -5.5 -58.5 -5.5c-41.333 0 -70.666 7.33301 -87.999 22s-26 37 -26 67v114c0 45.333 31.167 83 93.5 113s93.5 51 93.5 63v84c0 9.33301 -2 16.333 -6 21s-10 7 -18 7
c-6.66699 0 -12.334 -2.33301 -17.001 -7s-7 -11.667 -7 -21v-112h-134v113c0 42 17 72.667 51 92c27.333 15.333 65.666 23 114.999 23s86.333 -8.33301 111 -25c29.333 -19.333 44 -51 44 -95v-451zM206.002 106.001l0.000976562 146.002
c-18.667 -4.66699 -31.334 -10.334 -38.001 -17.001s-10 -15.334 -10 -26.001v-103c0 -8.66699 2.16699 -15.167 6.5 -19.5s10.5 -6.5 18.5 -6.5c6.66699 0 12.167 2.16699 16.5 6.5s6.5 10.833 6.5 19.5zM346.003 726.003c0 -34.667 -12.335 -63.333 -37.002 -86
c-22 -20 -47 -30 -75 -30c-7.33301 0 -14.666 1 -21.999 3l-77 22c-6 2 -11.333 3 -16 3s-8.5 -2 -11.5 -6s-4.5 -11.333 -4.5 -22h-90c0 32.667 9.83301 60.167 29.5 82.5s44.834 33.5 75.501 33.5h15l15 -4l72 -19c7.33301 -2 13.333 -3 18 -3c12 0 18 8.66699 18 26h90z
" />
    <glyph glyph-name="adieresis" unicode="&#xe4;" horiz-adv-x="361" 
d="M345 0l-122.998 0.000976562v22c-6.66699 -12.667 -16.834 -20.834 -30.501 -24.501s-33.167 -5.5 -58.5 -5.5c-41.333 0 -70.666 7.33301 -87.999 22s-26 37 -26 67v114c0 45.333 31.167 83 93.5 113s93.5 51 93.5 63v84c0 9.33301 -2 16.333 -6 21s-10 7 -18 7
c-6.66699 0 -12.334 -2.33301 -17.001 -7s-7 -11.667 -7 -21v-112h-134v113c0 42 17 72.667 51 92c27.333 15.333 65.666 23 114.999 23s86.333 -8.33301 111 -25c29.333 -19.333 44 -51 44 -95v-451zM206.002 106.001l0.000976562 146.002
c-18.667 -4.66699 -31.334 -10.334 -38.001 -17.001s-10 -15.334 -10 -26.001v-103c0 -8.66699 2.16699 -15.167 6.5 -19.5s10.5 -6.5 18.5 -6.5c6.66699 0 12.167 2.16699 16.5 6.5s6.5 10.833 6.5 19.5zM296.003 657.003c0 -12.667 -4.66699 -23.667 -14 -33
s-20.666 -14 -33.999 -14s-24.666 4.33301 -33.999 13s-14 20 -14 34c0 13.333 4.66699 24.666 14 33.999s20.666 14 33.999 14s24.666 -4.66699 33.999 -14s14 -20.666 14 -33.999zM156.003 657.003c0 -12.667 -4.66699 -23.667 -14 -33s-20.666 -14 -33.999 -14
s-24.666 4.33301 -33.999 13s-14 20 -14 34c0 13.333 4.66699 24.666 14 33.999s20.666 14 33.999 14s24.666 -4.66699 33.999 -14s14 -20.666 14 -33.999z" />
    <glyph glyph-name="aring" unicode="&#xe5;" horiz-adv-x="361" 
d="M345 0l-122.998 0.000976562v22c-6.66699 -12.667 -16.834 -20.834 -30.501 -24.501s-33.167 -5.5 -58.5 -5.5c-41.333 0 -70.666 7.33301 -87.999 22s-26 37 -26 67v114c0 45.333 31.167 83 93.5 113s93.5 51 93.5 63v84c0 9.33301 -2 16.333 -6 21s-10 7 -18 7
c-6.66699 0 -12.334 -2.33301 -17.001 -7s-7 -11.667 -7 -21v-112h-134v113c0 42 17 72.667 51 92c27.333 15.333 65.666 23 114.999 23s86.333 -8.33301 111 -25c29.333 -19.333 44 -51 44 -95v-451zM206.002 106.001l0.000976562 146.002
c-18.667 -4.66699 -31.334 -10.334 -38.001 -17.001s-10 -15.334 -10 -26.001v-103c0 -8.66699 2.16699 -15.167 6.5 -19.5s10.5 -6.5 18.5 -6.5c6.66699 0 12.167 2.16699 16.5 6.5s6.5 10.833 6.5 19.5zM272.003 706.003c1.33301 -26.667 -7.16699 -49.168 -25.5 -67.501
s-40.833 -27.5 -67.5 -27.5c-25.333 0 -47.166 9.16699 -65.499 27.5s-27.833 40.5 -28.5 66.5c0.666992 26 10.167 48.167 28.5 66.5s40.166 27.5 65.499 27.5c26.667 0 49.167 -9.16699 67.5 -27.5s26.833 -40.166 25.5 -65.499zM214.003 705.002
c0.666992 10 -2.33203 18.333 -8.99902 25s-15.334 10 -26.001 10c-8.66699 0 -16.334 -3.33301 -23.001 -10s-10.334 -15 -11.001 -25c0.666992 -9.33301 4.33398 -17.333 11.001 -24s14.334 -10 23.001 -10c10 0 18.5 3.33301 25.5 10s10.167 14.667 9.5 24z" />
    <glyph glyph-name="ae" unicode="&#xe6;" horiz-adv-x="532" 
d="M513 110c0 -42 -16.667 -72.998 -50 -92.998c-28 -16.667 -66 -25 -114 -25h-20c-31.333 2.66699 -54.666 15 -69.999 37c-21.333 -17.333 -38 -27.833 -50 -31.5s-34.667 -5.5 -68 -5.5c-42 0 -73.167 7.5 -93.5 22.5s-30.5 37.167 -30.5 66.5v114
c0 45.333 31.167 83 93.5 113s93.5 51 93.5 63v80c0 9.33301 -2 16.333 -6 21s-10 7 -18 7c-6.66699 0 -12.334 -2.33301 -17.001 -7s-7 -11.667 -7 -21v-108h-134v109c0 48.667 15.333 81 46 97c22.667 12 62.667 18 120 18c18 0 31.667 -0.833008 41 -2.5
s22.333 -6.83398 39 -15.501c15.333 7.33301 28.5 12.166 39.5 14.499s24.833 3.5 41.5 3.5c69.333 0 114 -9 134 -27s30 -47.333 30 -88v-212h-187v-131c0 -19.333 8 -29 24 -29s24 9.66699 24 29v101h139v-100zM374 325.002l0.000976562 126c0 9.33301 -2 16.333 -6 21
s-10 7 -18 7c-6.66699 0 -12.334 -2.33301 -17.001 -7s-7 -11.667 -7 -21v-126h48zM204.001 106.002l0.000976562 146.002c-18.667 -4.66699 -31.334 -10.334 -38.001 -17.001s-10 -15.334 -10 -26.001v-103c0 -8.66699 2.16699 -15.167 6.5 -19.5s10.5 -6.5 18.5 -6.5
c6.66699 0 12.167 2.16699 16.5 6.5s6.5 10.833 6.5 19.5z" />
    <glyph glyph-name="ccedilla" unicode="&#xe7;" 
d="M343 107c0 -42.667 -15.999 -73.332 -47.999 -91.999c-26 -15.333 -63.667 -23 -113 -23c-50 0 -88.667 8.33301 -116 25c-32.667 20 -49 51.667 -49 95v339c0 42.667 16.333 74 49 94c28 17.333 66.667 26 116 26c48 0 85.333 -7.66699 112 -23
c32.667 -18.667 49 -49.334 49 -92.001v-140h-139v139c0 9.33301 -2 16.333 -6 21s-10 7 -18 7c-6.66699 0 -12.334 -2.33301 -17.001 -7s-7 -11.667 -7 -21v-347c0 -9.33301 2 -16.5 6 -21.5s10 -7.5 18 -7.5s14 2.5 18 7.5s6 12.167 6 21.5v137h139v-138zM244.001 -64.998
c0 -14.667 -5.50098 -27.5 -16.501 -38.5s-23.833 -16.5 -38.5 -16.5c-13.333 0 -25 3.66699 -35 11l-6 6l19 23l6 -4c4.66699 -2.66699 9 -4 13 -4c7.33301 0 12.833 2 16.5 6s5.5 9.66699 5.5 17c0 8 -1.66699 13.833 -5 17.5s-8.66602 5.5 -15.999 5.5
c-4.66699 0 -10 -1 -16 -3v49h32v-17c12 -2.66699 21.833 -8.5 29.5 -17.5s11.5 -20.5 11.5 -34.5z" />
    <glyph glyph-name="egrave" unicode="&#xe8;" horiz-adv-x="357" 
d="M343 107c0 -42 -16.666 -72.666 -49.999 -91.999c-26.667 -15.333 -64.667 -23 -114 -23s-87.333 8.33301 -114 25c-32 20 -48 51.667 -48 95v339c0 42.667 15.667 74 47 94c27.333 17.333 65.666 26 114.999 26c48.667 0 86.667 -7.66699 114 -23
c33.333 -18.667 50 -49.334 50 -92.001v-216h-187v-132c0 -9.33301 2 -16.5 6 -21.5s10 -7.5 18 -7.5s14 2.5 18 7.5s6 12.167 6 21.5v114h139v-115zM204.001 325.001l0.000976562 130c0 9.33301 -2 16.333 -6 21s-10 7 -18 7c-6.66699 0 -12.334 -2.33301 -17.001 -7
s-7 -11.667 -7 -21v-130h48zM246.002 610.001h-76l-59 90h106z" />
    <glyph glyph-name="eacute" unicode="&#xe9;" horiz-adv-x="357" 
d="M343 107c0 -42 -16.666 -72.666 -49.999 -91.999c-26.667 -15.333 -64.667 -23 -114 -23s-87.333 8.33301 -114 25c-32 20 -48 51.667 -48 95v339c0 42.667 15.667 74 47 94c27.333 17.333 65.666 26 114.999 26c48.667 0 86.667 -7.66699 114 -23
c33.333 -18.667 50 -49.334 50 -92.001v-216h-187v-132c0 -9.33301 2 -16.5 6 -21.5s10 -7.5 18 -7.5s14 2.5 18 7.5s6 12.167 6 21.5v114h139v-115zM204.001 325.001l0.000976562 130c0 9.33301 -2 16.333 -6 21s-10 7 -18 7c-6.66699 0 -12.334 -2.33301 -17.001 -7
s-7 -11.667 -7 -21v-130h48zM248.002 700.001l-58 -90h-77l30 90h105z" />
    <glyph glyph-name="ecircumflex" unicode="&#xea;" horiz-adv-x="357" 
d="M343 107c0 -42 -16.666 -72.666 -49.999 -91.999c-26.667 -15.333 -64.667 -23 -114 -23s-87.333 8.33301 -114 25c-32 20 -48 51.667 -48 95v339c0 42.667 15.667 74 47 94c27.333 17.333 65.666 26 114.999 26c48.667 0 86.667 -7.66699 114 -23
c33.333 -18.667 50 -49.334 50 -92.001v-216h-187v-132c0 -9.33301 2 -16.5 6 -21.5s10 -7.5 18 -7.5s14 2.5 18 7.5s6 12.167 6 21.5v114h139v-115zM204.001 325.001l0.000976562 130c0 9.33301 -2 16.333 -6 21s-10 7 -18 7c-6.66699 0 -12.334 -2.33301 -17.001 -7
s-7 -11.667 -7 -21v-130h48zM318.002 610.001h-99l-43 65l-43 -65h-99l77 116h130z" />
    <glyph glyph-name="edieresis" unicode="&#xeb;" horiz-adv-x="357" 
d="M343 107c0 -42 -16.666 -72.666 -49.999 -91.999c-26.667 -15.333 -64.667 -23 -114 -23s-87.333 8.33301 -114 25c-32 20 -48 51.667 -48 95v339c0 42.667 15.667 74 47 94c27.333 17.333 65.666 26 114.999 26c48.667 0 86.667 -7.66699 114 -23
c33.333 -18.667 50 -49.334 50 -92.001v-216h-187v-132c0 -9.33301 2 -16.5 6 -21.5s10 -7.5 18 -7.5s14 2.5 18 7.5s6 12.167 6 21.5v114h139v-115zM204.001 325.001l0.000976562 130c0 9.33301 -2 16.333 -6 21s-10 7 -18 7c-6.66699 0 -12.334 -2.33301 -17.001 -7
s-7 -11.667 -7 -21v-130h48zM294.002 657.001c0 -12.667 -4.66699 -23.667 -14 -33s-20.666 -14 -33.999 -14s-24.666 4.33301 -33.999 13s-14 20 -14 34c0 13.333 4.66699 24.666 14 33.999s20.666 14 33.999 14s24.666 -4.66699 33.999 -14s14 -20.666 14 -33.999z
M154.002 657.001c0 -12.667 -4.66699 -23.667 -14 -33s-20.666 -14 -33.999 -14s-24.666 4.33301 -33.999 13s-14 20 -14 34c0 13.333 4.66699 24.666 14 33.999s20.666 14 33.999 14s24.666 -4.66699 33.999 -14s14 -20.666 14 -33.999z" />
    <glyph glyph-name="igrave" unicode="&#xec;" horiz-adv-x="166" 
d="M157 0h-139v567h139v-567zM151 610h-76l-59 90h106z" />
    <glyph glyph-name="iacute" unicode="&#xed;" horiz-adv-x="166" 
d="M157 0h-139v567h139v-567zM153 700l-58 -90h-77l30 90h105z" />
    <glyph glyph-name="icircumflex" unicode="&#xee;" horiz-adv-x="166" 
d="M157 0h-139v567h139v-567zM222 610h-99l-43 65l-43 -65h-99l77 116h130z" />
    <glyph glyph-name="idieresis" unicode="&#xef;" horiz-adv-x="166" 
d="M157 0h-139v567h139v-567zM198 657c0 -12.667 -4.66699 -23.667 -14 -33s-20.666 -14 -33.999 -14s-24.666 4.33301 -33.999 13s-14 20 -14 34c0 13.333 4.66699 24.666 14 33.999s20.666 14 33.999 14s24.666 -4.66699 33.999 -14s14 -20.666 14 -33.999zM58 657
c0 -12.667 -4.66699 -23.667 -14 -33s-20.666 -14 -33.999 -14s-24.666 4.33301 -33.999 13s-14 20 -14 34c0 13.333 4.66699 24.666 14 33.999s20.666 14 33.999 14s24.666 -4.66699 33.999 -14s14 -20.666 14 -33.999z" />
    <glyph glyph-name="eth" unicode="&#xf0;" horiz-adv-x="421" 
d="M423 552l-55.001 -24.0029v-410c0 -40.667 -17 -72.334 -51 -95.001c-31.333 -20.667 -73 -31 -125 -31s-94.167 10.667 -126.5 32s-48.5 53 -48.5 95v144c0 48.667 33.5 88.834 100.5 120.501s100.5 53.834 100.5 66.501v13l-118 -50v111l118 50v13
c0 6.66699 -2.5 12.167 -7.5 16.5s-11.167 6.5 -18.5 6.5c-8 0 -14.167 -1.66699 -18.5 -5s-6.5 -8.66602 -6.5 -15.999v-22h-150c0 48.667 13.833 83.834 41.5 105.501s71.834 32.5 132.501 32.5c46.667 0 83 -5.83301 109 -17.5s44.667 -29.5 56 -53.5l67 29v-111z
M217.999 112.997v211.002c-20 -4.66699 -33.5 -10.834 -40.5 -18.501s-10.5 -16.834 -10.5 -27.501v-165c0 -7.33301 2.16699 -13 6.5 -17s10.833 -6 19.5 -6c6.66699 0 12.5 1.83301 17.5 5.5s7.5 9.5 7.5 17.5z" />
    <glyph glyph-name="ntilde" unicode="&#xf1;" 
d="M344 0l-139 0.000976562v455c0 17.333 -8 26 -24 26c-8 0 -14 -2 -18 -6s-6 -10.333 -6 -19v-456h-139v567h139v-19c8 6.66699 19.5 12.167 34.5 16.5s32.167 6.5 51.5 6.5c29.333 0 53.5 -7.83301 72.5 -23.5s28.5 -34.834 28.5 -57.501v-490zM344 726.001
c0 -34.667 -12.335 -63.333 -37.002 -86c-22 -20 -47 -30 -75 -30c-7.33301 0 -14.666 1 -21.999 3l-77 22c-6 2 -11.333 3 -16 3s-8.5 -2 -11.5 -6s-4.5 -11.333 -4.5 -22h-90c0 32.667 9.83301 60.167 29.5 82.5s44.834 33.5 75.501 33.5h15l15 -4l72 -19
c7.33301 -2 13.333 -3 18 -3c12 0 18 8.66699 18 26h90z" />
    <glyph glyph-name="ograve" unicode="&#xf2;" horiz-adv-x="352" 
d="M344 107c0 -42.667 -16 -73.333 -48 -92c-26 -15.333 -63.667 -23 -113 -23c-50 0 -88.667 8.33301 -116 25c-32.667 20 -49 51.667 -49 95v339c0 42.667 16.333 74 49 94c28 17.333 66.667 26 116 26c45.333 0 83.5 -9.83301 114.5 -29.5s46.5 -48.167 46.5 -85.5v-349z
M205 108.001l0.000976562 347c0 9.33301 -2 16.333 -6 21s-10 7 -18 7c-6.66699 0 -12.334 -2.33301 -17.001 -7s-7 -11.667 -7 -21v-347c0 -9.33301 2 -16.5 6 -21.5s10 -7.5 18 -7.5s14 2.5 18 7.5s6 12.167 6 21.5zM244.001 610.001h-76l-59 90h106z" />
    <glyph glyph-name="oacute" unicode="&#xf3;" horiz-adv-x="352" 
d="M344 107c0 -42.667 -16 -73.333 -48 -92c-26 -15.333 -63.667 -23 -113 -23c-50 0 -88.667 8.33301 -116 25c-32.667 20 -49 51.667 -49 95v339c0 42.667 16.333 74 49 94c28 17.333 66.667 26 116 26c45.333 0 83.5 -9.83301 114.5 -29.5s46.5 -48.167 46.5 -85.5v-349z
M205 108.001l0.000976562 347c0 9.33301 -2 16.333 -6 21s-10 7 -18 7c-6.66699 0 -12.334 -2.33301 -17.001 -7s-7 -11.667 -7 -21v-347c0 -9.33301 2 -16.5 6 -21.5s10 -7.5 18 -7.5s14 2.5 18 7.5s6 12.167 6 21.5zM246.001 700.001l-58 -90h-77l30 90h105z" />
    <glyph glyph-name="ocircumflex" unicode="&#xf4;" horiz-adv-x="352" 
d="M344 107c0 -42.667 -16 -73.333 -48 -92c-26 -15.333 -63.667 -23 -113 -23c-50 0 -88.667 8.33301 -116 25c-32.667 20 -49 51.667 -49 95v339c0 42.667 16.333 74 49 94c28 17.333 66.667 26 116 26c45.333 0 83.5 -9.83301 114.5 -29.5s46.5 -48.167 46.5 -85.5v-349z
M205 108.001l0.000976562 347c0 9.33301 -2 16.333 -6 21s-10 7 -18 7c-6.66699 0 -12.334 -2.33301 -17.001 -7s-7 -11.667 -7 -21v-347c0 -9.33301 2 -16.5 6 -21.5s10 -7.5 18 -7.5s14 2.5 18 7.5s6 12.167 6 21.5zM315.001 610.001h-99l-43 65l-43 -65h-99l77 116h130z
" />
    <glyph glyph-name="otilde" unicode="&#xf5;" horiz-adv-x="352" 
d="M344 107c0 -42.667 -16 -73.333 -48 -92c-26 -15.333 -63.667 -23 -113 -23c-50 0 -88.667 8.33301 -116 25c-32.667 20 -49 51.667 -49 95v339c0 42.667 16.333 74 49 94c28 17.333 66.667 26 116 26c45.333 0 83.5 -9.83301 114.5 -29.5s46.5 -48.167 46.5 -85.5v-349z
M205 108.001l0.000976562 347c0 9.33301 -2 16.333 -6 21s-10 7 -18 7c-6.66699 0 -12.334 -2.33301 -17.001 -7s-7 -11.667 -7 -21v-347c0 -9.33301 2 -16.5 6 -21.5s10 -7.5 18 -7.5s14 2.5 18 7.5s6 12.167 6 21.5zM341.001 726.001
c0 -34.667 -12.335 -63.333 -37.002 -86c-22 -20 -47 -30 -75 -30c-7.33301 0 -14.666 1 -21.999 3l-77 22c-6 2 -11.333 3 -16 3s-8.5 -2 -11.5 -6s-4.5 -11.333 -4.5 -22h-90c0 32.667 9.83301 60.167 29.5 82.5s44.834 33.5 75.501 33.5h15l15 -4l72 -19
c7.33301 -2 13.333 -3 18 -3c12 0 18 8.66699 18 26h90z" />
    <glyph glyph-name="odieresis" unicode="&#xf6;" horiz-adv-x="352" 
d="M344 107c0 -42.667 -16 -73.333 -48 -92c-26 -15.333 -63.667 -23 -113 -23c-50 0 -88.667 8.33301 -116 25c-32.667 20 -49 51.667 -49 95v339c0 42.667 16.333 74 49 94c28 17.333 66.667 26 116 26c45.333 0 83.5 -9.83301 114.5 -29.5s46.5 -48.167 46.5 -85.5v-349z
M205 108.001l0.000976562 347c0 9.33301 -2 16.333 -6 21s-10 7 -18 7c-6.66699 0 -12.334 -2.33301 -17.001 -7s-7 -11.667 -7 -21v-347c0 -9.33301 2 -16.5 6 -21.5s10 -7.5 18 -7.5s14 2.5 18 7.5s6 12.167 6 21.5zM291.001 657.001c0 -12.667 -4.66699 -23.667 -14 -33
s-20.666 -14 -33.999 -14s-24.666 4.33301 -33.999 13s-14 20 -14 34c0 13.333 4.66699 24.666 14 33.999s20.666 14 33.999 14s24.666 -4.66699 33.999 -14s14 -20.666 14 -33.999zM151.001 657.001c0 -12.667 -4.66699 -23.667 -14 -33s-20.666 -14 -33.999 -14
s-24.666 4.33301 -33.999 13s-14 20 -14 34c0 13.333 4.66699 24.666 14 33.999s20.666 14 33.999 14s24.666 -4.66699 33.999 -14s14 -20.666 14 -33.999z" />
    <glyph glyph-name="divide" unicode="&#xf7;" horiz-adv-x="377" 
d="M236 292c0 -11.333 -4.33301 -21.333 -13 -30s-19 -13 -31 -13s-22.333 4 -31 12s-13 18.333 -13 31c0 12 4.33301 22.333 13 31s19 13 31 13s22.333 -4.33301 31 -13s13 -19 13 -31zM368 136h-351v79h351v-79zM237 56c0 -11.333 -4.33301 -21 -13 -29s-19 -12 -31 -12
c-12.667 0 -23.167 3.83301 -31.5 11.5s-12.5 17.5 -12.5 29.5s4.33301 22.333 13 31s19 13 31 13s22.333 -4.33301 31 -13s13 -19 13 -31z" />
    <glyph glyph-name="oslash" unicode="&#xf8;" horiz-adv-x="357" 
d="M353 591l-30.998 -72.999c14 -18 21 -38.667 21 -62v-349c0 -42.667 -16 -73.334 -48 -92.001c-26 -15.333 -63.667 -23 -113 -23c-16 0 -30.833 1 -44.5 3s-26.167 4.66699 -37.5 8l-10 -23h-83l28 66c-12 18.667 -18 40.667 -18 66v339c0 42.667 16.333 74 49 94
c28 17.333 66.667 26 116 26c13.333 0 26.166 -0.833008 38.499 -2.5s24.166 -4.5 35.499 -8.5l14 31h83zM204.002 439.001l0.000976562 21c0 9.33301 -2 16.333 -6 21s-10 7 -18 7c-6.66699 0 -12.334 -2.33301 -17.001 -7s-7 -11.667 -7 -21v-134zM204.003 108.001v137
l-48 -112v-25c0 -9.33301 1.66699 -16.333 5 -21s8 -7 14 -7c6.66699 0 12.5 2.33301 17.5 7s8.83301 11.667 11.5 21z" />
    <glyph glyph-name="ugrave" unicode="&#xf9;" 
d="M343 0l-139 -0.000976562v19c-7.33301 -7.33301 -18.5 -13.666 -33.5 -18.999s-32.5 -8 -52.5 -8c-29.333 0 -53.5 7.66699 -72.5 23s-28.5 34 -28.5 56v496h139v-461c0 -17.333 8 -26 24 -26c8 0 14 2.16699 18 6.5s6 10.5 6 18.5v462h139v-567zM246 609.999h-76l-59 90
h106z" />
    <glyph glyph-name="uacute" unicode="&#xfa;" 
d="M343 0l-139 -0.000976562v19c-7.33301 -7.33301 -18.5 -13.666 -33.5 -18.999s-32.5 -8 -52.5 -8c-29.333 0 -53.5 7.66699 -72.5 23s-28.5 34 -28.5 56v496h139v-461c0 -17.333 8 -26 24 -26c8 0 14 2.16699 18 6.5s6 10.5 6 18.5v462h139v-567zM248 699.999l-58 -90
h-77l30 90h105z" />
    <glyph glyph-name="ucircumflex" unicode="&#xfb;" 
d="M343 0l-139 -0.000976562v19c-7.33301 -7.33301 -18.5 -13.666 -33.5 -18.999s-32.5 -8 -52.5 -8c-29.333 0 -53.5 7.66699 -72.5 23s-28.5 34 -28.5 56v496h139v-461c0 -17.333 8 -26 24 -26c8 0 14 2.16699 18 6.5s6 10.5 6 18.5v462h139v-567zM317 609.999h-99l-43 65
l-43 -65h-99l77 116h130z" />
    <glyph glyph-name="udieresis" unicode="&#xfc;" 
d="M343 0l-139 -0.000976562v19c-7.33301 -7.33301 -18.5 -13.666 -33.5 -18.999s-32.5 -8 -52.5 -8c-29.333 0 -53.5 7.66699 -72.5 23s-28.5 34 -28.5 56v496h139v-461c0 -17.333 8 -26 24 -26c8 0 14 2.16699 18 6.5s6 10.5 6 18.5v462h139v-567zM293 656.999
c0 -12.667 -4.66699 -23.667 -14 -33s-20.666 -14 -33.999 -14s-24.666 4.33301 -33.999 13s-14 20 -14 34c0 13.333 4.66699 24.666 14 33.999s20.666 14 33.999 14s24.666 -4.66699 33.999 -14s14 -20.666 14 -33.999zM153 656.999c0 -12.667 -4.66699 -23.667 -14 -33
s-20.666 -14 -33.999 -14s-24.666 4.33301 -33.999 13s-14 20 -14 34c0 13.333 4.66699 24.666 14 33.999s20.666 14 33.999 14s24.666 -4.66699 33.999 -14s14 -20.666 14 -33.999z" />
    <glyph glyph-name="yacute" unicode="&#xfd;" horiz-adv-x="386" 
d="M383 567l-108 -564c-8 -40 -14 -64.667 -18 -74c-7.33301 -16 -22.666 -29.667 -45.999 -41c-7.33301 -3.33301 -15.333 -5.5 -24 -6.5s-21.334 -1.5 -38.001 -1.5h-94v76h48c12 0 20.5 3.33301 25.5 10s7.5 15.667 7.5 27c0 6.66699 -1 13 -3 19l-129 555h139l58 -300
l46 300h136zM263 700l-58 -90h-77l30 90h105z" />
    <glyph glyph-name="thorn" unicode="&#xfe;" horiz-adv-x="368" 
d="M344 71c0 -22 -9.33301 -40.666 -28 -55.999s-43 -23 -73 -23c-18.667 0 -35.667 2 -51 6s-27 9 -35 15v-133h-139v820h139v-150c8.66699 7.33301 20.167 12.666 34.5 15.999s31.5 5 51.5 5c29.333 0 53.5 -7.66699 72.5 -23s28.5 -34 28.5 -56v-421zM205 106.001
l0.000976562 351c0 17.333 -8 26 -24 26c-8 0 -14 -2 -18 -6s-6 -10.333 -6 -19v-353c0 -8 2.16699 -14.167 6.5 -18.5s10.166 -6.5 17.499 -6.5c16 0 24 8.66699 24 26z" />
    <glyph glyph-name="ydieresis" unicode="&#xff;" horiz-adv-x="386" 
d="M383 567l-108 -564c-8 -40 -14 -64.667 -18 -74c-7.33301 -16 -22.666 -29.667 -45.999 -41c-7.33301 -3.33301 -15.333 -5.5 -24 -6.5s-21.334 -1.5 -38.001 -1.5h-94v76h48c12 0 20.5 3.33301 25.5 10s7.5 15.667 7.5 27c0 6.66699 -1 13 -3 19l-129 555h139l58 -300
l46 300h136zM308 657c0 -12.667 -4.66699 -23.667 -14 -33s-20.666 -14 -33.999 -14s-24.666 4.33301 -33.999 13s-14 20 -14 34c0 13.333 4.66699 24.666 14 33.999s20.666 14 33.999 14s24.666 -4.66699 33.999 -14s14 -20.666 14 -33.999zM168 657
c0 -12.667 -4.66699 -23.667 -14 -33s-20.666 -14 -33.999 -14s-24.666 4.33301 -33.999 13s-14 20 -14 34c0 13.333 4.66699 24.666 14 33.999s20.666 14 33.999 14s24.666 -4.66699 33.999 -14s14 -20.666 14 -33.999z" />
    <glyph glyph-name="dotlessi" unicode="&#x131;" horiz-adv-x="166" 
d="M157 0h-139v567h139v-567z" />
    <glyph glyph-name="OE" unicode="&#x152;" horiz-adv-x="528" 
d="M519 0l-256.002 0.000976562l-30 -5.5c-9.33301 -1.66699 -22.666 -2.5 -39.999 -2.5c-52 0 -94.333 10.667 -127 32s-49 52.666 -49 93.999v451c0 42 15.833 75.167 47.5 99.5s74.834 36.5 129.501 36.5c8 0 15.333 -0.166992 22 -0.5s19 -1.83301 37 -4.5h264v-90h-145
v-189h131v-85h-131v-246h147v-90zM217.998 111.001v477c0 14 -8.33301 21 -25 21c-17.333 0 -26 -7 -26 -21v-477c0 -6.66699 2.16699 -11.834 6.5 -15.501s10.833 -5.5 19.5 -5.5s15 1.83301 19 5.5s6 8.83398 6 15.501z" />
    <glyph glyph-name="oe" unicode="&#x153;" horiz-adv-x="551" 
d="M540 107c0 -42 -16.6641 -72.667 -49.9971 -92c-26.667 -15.333 -64.667 -23 -114 -23c-13.333 0 -29.833 1.5 -49.5 4.5s-35.834 7.5 -48.501 13.5c-13.333 -6 -28 -10.5 -44 -13.5s-33.333 -4.5 -52 -4.5c-50 0 -88.667 8.33301 -116 25c-32.667 20 -49 51.667 -49 95
v335c0 42.667 16.333 74 49 94c28 17.333 66.667 26 116 26c18.667 0 36.167 -1.5 52.5 -4.5s31.166 -7.5 44.499 -13.5c15.333 6.66699 28.666 11.334 39.999 14.001s30.333 4 57 4c48.667 0 86.667 -7.66699 114 -23c33.333 -18.667 50 -49.334 50 -92.001v-212h-187v-132
c0 -9.33301 2 -16.5 6 -21.5s10 -7.5 18 -7.5s14 2.5 18 7.5s6 12.167 6 21.5v114h139v-115zM401.003 325l0.000976562 126c0 9.33301 -2 16.333 -6 21s-10 7 -18 7c-6.66699 0 -12.334 -2.33301 -17.001 -7s-7 -11.667 -7 -21v-126h48zM204.004 108l0.000976562 343
c0 9.33301 -2 16.333 -6 21s-10 7 -18 7c-6.66699 0 -12.334 -2.33301 -17.001 -7s-7 -11.667 -7 -21v-343c0 -9.33301 2 -16.5 6 -21.5s10 -7.5 18 -7.5s14 2.5 18 7.5s6 12.167 6 21.5z" />
    <glyph glyph-name="Scaron" unicode="&#x160;" horiz-adv-x="383" 
d="M367 132c0 -46 -12 -80.0039 -36 -102.004c-28 -25.333 -75.333 -38 -142 -38c-63.333 0 -109.666 15 -138.999 45c-22 22 -33 49.333 -33 82v160h140v-161c0 -7.33301 2.83301 -13.166 8.5 -17.499s12.5 -6.5 20.5 -6.5c9.33301 0 16.333 2 21 6s7 10 7 18v83
c0 19.333 -4.33301 34.666 -13 45.999l-75 79c-44 46.667 -68.667 73.334 -74 80.001c-23.333 30 -35 58 -35 84v79c0 44.667 12.667 77.667 38 99c29.333 24.667 76 37 140 37c55.333 0 96.666 -12.333 123.999 -37c23.333 -21.333 35 -50.333 35 -87v-121h-140v129
c0 6.66699 -2.16699 11.834 -6.5 15.501s-9.83301 5.5 -16.5 5.5c-8 0 -14 -1.66699 -18 -5s-6 -8.66602 -6 -15.999v-65c0 -22.667 10 -44.667 30 -66l79 -81c32 -33.333 52.667 -56.666 62 -69.999c19.333 -27.333 29 -56 29 -86v-89zM333 846.996l-77 -116h-130l-77 116
h99l43 -65l43 65h99z" />
    <glyph glyph-name="scaron" unicode="&#x161;" horiz-adv-x="354" 
d="M343 112c0 -42.667 -16.3301 -73.999 -48.9971 -93.999c-28 -17.333 -66.667 -26 -116 -26c-48 0 -85.333 7.66699 -112 23c-32.667 18.667 -49 49.334 -49 92.001v121h139v-120c0 -9.33301 2 -16.5 6 -21.5s9.66699 -7.5 17 -7.5s12.833 2.5 16.5 7.5
s5.5 12.167 5.5 21.5v44c0 38.667 -9 63.667 -27 75l-71 38c-32.667 18 -54.667 34.167 -66 48.5s-17 34.833 -17 61.5v76c0 42.667 15.667 74 47 94c27.333 17.333 65.666 26 114.999 26c48 0 85 -7.66699 111 -23c31.333 -18.667 47 -49.334 47 -92.001v-112h-136v111
c0 8.66699 -2.33301 15.5 -7 20.5s-10 7.5 -16 7.5c-6.66699 0 -12.334 -2.33301 -17.001 -7s-7 -11.667 -7 -21v-53c0 -23.333 10 -41.333 30 -54l54 -29c39.333 -20.667 63.666 -35.667 72.999 -45c19.333 -18.667 29 -44.334 29 -77.001v-85zM318.003 726.001l-77 -116
h-130l-77 116h99l43 -65l43 65h99z" />
    <glyph glyph-name="Ydieresis" unicode="&#x178;" horiz-adv-x="440" 
d="M437 700l-151 -423v-277h-154v278l-128 422h147l69 -248l79 248h138zM335 778c0 -12.667 -4.66699 -23.667 -14 -33s-20.666 -14 -33.999 -14s-24.666 4.33301 -33.999 13s-14 20 -14 34c0 13.333 4.66699 24.666 14 33.999s20.666 14 33.999 14
s24.666 -4.66699 33.999 -14s14 -20.666 14 -33.999zM195 778c0 -12.667 -4.66699 -23.667 -14 -33s-20.666 -14 -33.999 -14s-24.666 4.33301 -33.999 13s-14 20 -14 34c0 13.333 4.66699 24.666 14 33.999s20.666 14 33.999 14s24.666 -4.66699 33.999 -14
s14 -20.666 14 -33.999z" />
    <glyph glyph-name="florin" unicode="&#x192;" horiz-adv-x="318" 
d="M324 624c-23.333 0 -38.999 -0.666992 -46.999 -2c-23.333 -4 -35 -12.667 -35 -26l-5 -80h76v-84h-83l-32 -415c-4.66699 -48 -12.334 -80 -23.001 -96c-18.667 -27.333 -56 -41 -112 -41h-84v76c23.333 0 38.666 0.666992 45.999 2c22.667 4 34 12.667 34 26l35 448
h-58v84h64l3 47c0 46.667 6 78.667 18 96c18.667 27.333 56.334 41 113.001 41h90v-76z" />
    <glyph glyph-name="circumflex" unicode="&#x2c6;" horiz-adv-x="310" 
d="M294 610h-99l-43 65l-43 -65h-99l77 116h130z" />
    <glyph glyph-name="caron" unicode="&#x2c7;" horiz-adv-x="310" 
d="M296 726l-77 -116h-130l-77 116h99l43 -65l43 65h99z" />
    <glyph glyph-name="uni02C9" unicode="&#x2c9;" horiz-adv-x="224" 
d="M209 629h-199v79h199v-79z" />
    <glyph glyph-name="breve" unicode="&#x2d8;" horiz-adv-x="305" 
d="M292 726c-3.33301 -37.333 -17.5 -66 -42.5 -86s-57.833 -30 -98.5 -30c-41.333 0 -74.333 9.83301 -99 29.5s-38.667 48.5 -42 86.5h76c6 -33.333 27.667 -50 65 -50s59 16.667 65 50h76z" />
    <glyph glyph-name="dotaccent" unicode="&#x2d9;" horiz-adv-x="149" 
d="M137 610h-127v102h127v-102z" />
    <glyph glyph-name="ring" unicode="&#x2da;" horiz-adv-x="211" 
d="M197 706c1.33301 -26.667 -7.16699 -49.168 -25.5 -67.501s-40.833 -27.5 -67.5 -27.5c-25.333 0 -47.166 9.16699 -65.499 27.5s-27.833 40.5 -28.5 66.5c0.666992 26 10.167 48.167 28.5 66.5s40.166 27.5 65.499 27.5c26.667 0 49.167 -9.16699 67.5 -27.5
s26.833 -40.166 25.5 -65.499zM139 704.999c0.666992 10 -2.33203 18.333 -8.99902 25s-15.334 10 -26.001 10c-8.66699 0 -16.334 -3.33301 -23.001 -10s-10.334 -15 -11.001 -25c0.666992 -9.33301 4.33398 -17.333 11.001 -24s14.334 -10 23.001 -10
c10 0 18.5 3.33301 25.5 10s10.167 14.667 9.5 24z" />
    <glyph glyph-name="ogonek" unicode="&#x2db;" horiz-adv-x="353" 
d="M241 -91c-4 -4.66699 -7.66602 -8 -10.999 -10c-10.667 -6.66699 -24.334 -10 -41.001 -10c-14 0 -26.667 5.33301 -38 16s-17 23.667 -17 39c0 8.66699 2.83301 17.5 8.5 26.5s11.5 16.167 17.5 21.5h38c-20.667 -14.667 -31 -30.667 -31 -48
c0 -7.33301 2.16699 -13 6.5 -17s10.5 -6 18.5 -6c8.66699 0 16 1.66699 22 5l8 6z" />
    <glyph glyph-name="tilde" unicode="&#x2dc;" horiz-adv-x="355" 
d="M343 726c0 -34.667 -12.335 -63.333 -37.002 -86c-22 -20 -47 -30 -75 -30c-7.33301 0 -14.666 1 -21.999 3l-77 22c-6 2 -11.333 3 -16 3s-8.5 -2 -11.5 -6s-4.5 -11.333 -4.5 -22h-90c0 32.667 9.83301 60.167 29.5 82.5s44.834 33.5 75.501 33.5h15l15 -4l72 -19
c7.33301 -2 13.333 -3 18 -3c12 0 18 8.66699 18 26h90z" />
    <glyph glyph-name="hungarumlaut" unicode="&#x2dd;" horiz-adv-x="396" 
d="M369 735l-76 -116h-99l38 116h137zM197 735l-76 -116h-99l38 116h137z" />
    <glyph glyph-name="pi" unicode="&#x3c0;" horiz-adv-x="601" 
d="M588 4l-88 0.000976562c-60 0 -96.833 8.16699 -110.5 24.5s-20.5 53.833 -20.5 112.5v346h-137v-483h-139v483h-75v84h565v-84h-75v-345c0 -16.667 5.66699 -28.334 17 -35.001c8 -4.66699 20.333 -7 37 -7h26v-96z" />
    <glyph glyph-name="endash" unicode="&#x2013;" horiz-adv-x="391" 
d="M391 136h-391v79h391v-79z" />
    <glyph glyph-name="emdash" unicode="&#x2014;" horiz-adv-x="535" 
d="M535 136h-535v79h535v-79z" />
    <glyph glyph-name="quoteleft" unicode="&#x2018;" horiz-adv-x="148" 
d="M137 514h-127v70c0 27.333 8.33301 51 25 71c11.333 13.333 29.666 28.333 54.999 45l28 -23c-8 -8 -13.667 -14.333 -17 -19c-11.333 -14.667 -17.666 -28.667 -18.999 -42h55v-102z" />
    <glyph glyph-name="quoteright" unicode="&#x2019;" horiz-adv-x="141" 
d="M135 630c0 -27.333 -8.33301 -51 -25 -71c-11.333 -13.333 -29.666 -28.333 -54.999 -45l-28 23c8 8 13.667 14.333 17 19c11.333 14.667 17.666 28.667 18.999 42h-55v102h127v-70z" />
    <glyph glyph-name="quotesinglbase" unicode="&#x201a;" horiz-adv-x="157" 
d="M144 32c0 -27.333 -8.33301 -51 -25 -71c-11.333 -13.333 -29.666 -28.333 -54.999 -45l-28 23c8 8 13.667 14.333 17 19c11.333 14.667 17.666 28.667 18.999 42h-55v102h127v-70z" />
    <glyph glyph-name="quotedblleft" unicode="&#x201c;" horiz-adv-x="286" 
d="M280 514h-127v70c0 27.333 8.33301 51 25 71c11.333 13.333 29.666 28.333 54.999 45l28 -23c-8 -8 -13.667 -14.333 -17 -19c-11.333 -14.667 -17.666 -28.667 -18.999 -42h55v-102zM137 514h-127v70c0 27.333 8.33301 51 25 71c11.333 13.333 29.666 28.333 54.999 45
l28 -23c-8 -8 -13.667 -14.333 -17 -19c-11.333 -14.667 -17.666 -28.667 -18.999 -42h55v-102z" />
    <glyph glyph-name="quotedblright" unicode="&#x201d;" horiz-adv-x="286" 
d="M280 629c0 -27.333 -8.33301 -51 -25 -71c-11.333 -13.333 -29.666 -28.333 -54.999 -45l-28 23c8 8 13.667 14.333 17 19c11.333 14.667 17.666 28.667 18.999 42h-55v102h127v-70zM137 629c0 -27.333 -8.33301 -51 -25 -71
c-11.333 -13.333 -29.666 -28.333 -54.999 -45l-28 23c8 8 13.667 14.333 17 19c11.333 14.667 17.666 28.667 18.999 42h-55v102h127v-70z" />
    <glyph glyph-name="quotedblbase" unicode="&#x201e;" horiz-adv-x="305" 
d="M288 32c0 -27.333 -8.33301 -51 -25 -71c-11.333 -13.333 -29.666 -28.333 -54.999 -45l-28 23c8 8 13.667 14.333 17 19c11.333 14.667 17.666 28.667 18.999 42h-55v102h127v-70zM145 32c0 -27.333 -8.33301 -51 -25 -71c-11.333 -13.333 -29.666 -28.333 -54.999 -45
l-28 23c8 8 13.667 14.333 17 19c11.333 14.667 17.666 28.667 18.999 42h-55v102h127v-70z" />
    <glyph glyph-name="dagger" unicode="&#x2020;" horiz-adv-x="447" 
d="M435 410h-132v-410h-154v410h-132v154h132v136h154v-136h132v-154z" />
    <glyph glyph-name="daggerdbl" unicode="&#x2021;" horiz-adv-x="447" 
d="M436 137h-132v-137h-154v137h-132v154h132v119h-132v154h132v136h154v-136h132v-154h-132v-119h132v-154z" />
    <glyph glyph-name="bullet" unicode="&#x2022;" horiz-adv-x="234" 
d="M222 256c0 -28 -10.333 -52.333 -31 -73s-45.334 -31 -74.001 -31s-53.334 10 -74.001 30s-31 44.667 -31 74c0 28.667 10.333 53.334 31 74.001s45.334 31 74.001 31s53.334 -10.333 74.001 -31s31 -45.334 31 -74.001z" />
    <glyph glyph-name="ellipsis" unicode="&#x2026;" horiz-adv-x="471" 
d="M464 0h-127v102h127v-102zM304 0h-127v102h127v-102zM144 0h-127v102h127v-102z" />
    <glyph glyph-name="perthousand" unicode="&#x2030;" horiz-adv-x="505" 
d="M160 471c0 -14.667 -6.33301 -25.834 -19 -33.501s-29 -11.5 -49 -11.5c-18.667 0 -34.667 3.83301 -48 11.5s-20 18.834 -20 33.501v185c0 16 5.5 28.167 16.5 36.5s28.167 12.5 51.5 12.5c45.333 0 68 -16.333 68 -49v-185zM484 36
c0 -14.667 -6.33301 -25.834 -19 -33.501s-29 -11.5 -49 -11.5c-18.667 0 -34.667 3.83301 -48 11.5s-20 18.834 -20 33.501v185c0 16 5.5 28.167 16.5 36.5s28.167 12.5 51.5 12.5c45.333 0 68 -16.333 68 -49v-185zM331 700l-253 -700h-67l253 700h67zM327 37
c0 -14.667 -6.33301 -25.834 -19 -33.501s-29 -11.5 -49 -11.5c-18.667 0 -34.667 3.83301 -48 11.5s-20 18.834 -20 33.501v185c0 16 5.5 28.167 16.5 36.5s28.167 12.5 51.5 12.5c45.333 0 68 -16.333 68 -49v-185zM101 469v193c0 5.33301 -3 8 -9 8
c-6.66699 0 -10 -2.66699 -10 -8v-193c0 -5.33301 3.33301 -8 10 -8c6 0 9 2.66699 9 8zM425 34v193c0 5.33301 -3 8 -9 8c-6.66699 0 -10 -2.66699 -10 -8v-193c0 -5.33301 3.33301 -8 10 -8c6 0 9 2.66699 9 8zM268 35v193c0 5.33301 -3 8 -9 8
c-6.66699 0 -10 -2.66699 -10 -8v-193c0 -5.33301 3.33301 -8 10 -8c6 0 9 2.66699 9 8z" />
    <glyph glyph-name="guilsinglleft" unicode="&#x2039;" horiz-adv-x="311" 
d="M297 0l-280 173v79l280 174v-109l-172 -105l172 -104v-108z" />
    <glyph glyph-name="guilsinglright" unicode="&#x203a;" horiz-adv-x="311" 
d="M297 173l-280 -173v108l172 104l-172 105v109l280 -174v-79z" />
    <glyph glyph-name="trademark" unicode="&#x2122;" horiz-adv-x="474" 
d="M462 349h-69v198l-40 -198h-53l-46 198v-198h-60v350h99l35 -180l31 180h103v-350zM180 655h-43v-306h-77v306h-43v44h163v-44z" />
    <glyph glyph-name="Omega" unicode="&#x2126;" horiz-adv-x="600" 
d="M586 0l-178.998 0.00195312c-29.333 0 -49.833 9.83301 -61.5 29.5s-17.5 46.5 -17.5 80.5c0 32.667 7 60 21 82s34.333 33 61 33c12 0 19.333 6.33301 22 19s4 25 4 37v269c0 16 -5.33301 30 -16 42s-24 18 -40 18h-153c-16.667 0 -30.834 -5.83301 -42.501 -17.5
s-17.5 -25.834 -17.5 -42.501v-269c0 -19.333 1.66699 -33.5 5 -42.5s10.333 -13.5 21 -13.5c26 0 46.167 -11.167 60.5 -33.5s21.5 -49.5 21.5 -81.5c0 -33.333 -5.33301 -59 -16 -77c-13.333 -22 -34.333 -33 -63 -33h-179v81h178c8.66699 0 15.167 2.16699 19.5 6.5
s6.5 10.5 6.5 18.5c0 13.333 -8.66699 20 -26 20c-58.667 0 -101.667 9 -129 27c-32.667 21.333 -49 57.666 -49 108.999v307c0 40 18.5 72.667 55.5 98s78.167 38 123.5 38h216c45.333 0 85.666 -12.5 120.999 -37.5s53 -57.5 53 -97.5v-308
c0 -50.667 -16 -86.667 -48 -108c-28 -18.667 -71.333 -28 -130 -28c-10 0 -16.833 -2.5 -20.5 -7.5s-5.5 -9.16699 -5.5 -12.5c0 -8.66699 2.83301 -15 8.5 -19s11.5 -6 17.5 -6h178v-81z" />
    <glyph glyph-name="partialdiff" unicode="&#x2202;" horiz-adv-x="383" 
d="M368 118c0 -40.667 -17.001 -72.3379 -51.001 -95.0049c-31.333 -20.667 -73 -31 -125 -31s-94.167 10.667 -126.5 32s-48.5 53 -48.5 95v144c0 48.667 33.5 88.834 100.5 120.501s100.5 53.834 100.5 66.501v137c0 6.66699 -2.5 12.167 -7.5 16.5s-11.167 6.5 -18.5 6.5
c-8 0 -14.167 -1.66699 -18.5 -5s-6.5 -8.66602 -6.5 -15.999v-22h-150c0 48.667 13.833 83.834 41.5 105.501s71.834 32.5 132.501 32.5c64.667 0 111 -12 139 -36c25.333 -21.333 38 -54.666 38 -99.999v-451zM217.999 112.996v211.002
c-20 -4.66699 -33.5 -10.834 -40.5 -18.501s-10.5 -16.834 -10.5 -27.501v-165c0 -7.33301 2.16699 -13 6.5 -17s10.833 -6 19.5 -6c6.66699 0 12.5 1.83301 17.5 5.5s7.5 9.5 7.5 17.5z" />
    <glyph glyph-name="Delta" unicode="&#x2206;" horiz-adv-x="521" 
d="M510 0h-500l250 699zM347 116l-87 241l-87 -241h174z" />
    <glyph glyph-name="product" unicode="&#x220f;" horiz-adv-x="586" 
d="M576 610h-70v-610h-139v610h-146v-610h-139v610h-72v90h566v-90z" />
    <glyph glyph-name="summation" unicode="&#x2211;" horiz-adv-x="471" 
d="M458 0h-448l219 379l-219 321h425v-90h-271l168 -231l-168 -289h294v-90z" />
    <glyph glyph-name="fraction" unicode="&#x2215;" horiz-adv-x="334" 
d="M318 700l-224 -700h-83l224 700h83z" />
    <glyph glyph-name="periodcentered" unicode="&#x2219;" horiz-adv-x="155" 
d="M145 336h-127v102h127v-102z" />
    <glyph glyph-name="radical" unicode="&#x221a;" horiz-adv-x="437" 
d="M432 700l-144 -700h-123l-77 274h-71v78h136l67 -238l120 586h92z" />
    <glyph glyph-name="infinity" unicode="&#x221e;" horiz-adv-x="645" 
d="M633 274c0 -54 -11.167 -96 -33.5 -126s-52.5 -45 -90.5 -45h-53c-33.333 0 -57 2.66699 -71 8c-28 10.667 -48 33.667 -60 69c-9.33301 -27.333 -22.833 -47 -40.5 -59s-47.834 -18 -90.501 -18h-53c-38 0 -68.167 14.833 -90.5 44.5s-33.5 72.167 -33.5 127.5
c0 54 11.167 96 33.5 126s52.5 45 90.5 45h53c33.333 0 57 -2.66699 71 -8c28 -10.667 48 -33.667 60 -69c9.33301 27.333 22.833 47 40.5 59s47.834 18 90.501 18h53c38 0 68.167 -14.833 90.5 -44.5s33.5 -72.167 33.5 -127.5zM518 244
c8.66699 0 15.167 2.50098 19.5 7.50098s6.5 12.5 6.5 22.5c0 8.66699 -2.16699 16 -6.5 22s-10.833 9 -19.5 9h-95c-12.667 0 -23.167 -2.83301 -31.5 -8.5s-14.833 -12.834 -19.5 -21.501c7.33301 -14 18 -23.333 32 -28c4.66699 -1.33301 11 -2.33301 19 -3h95z
M280 274.001c-7.33301 14 -18.001 23.334 -32.001 28.001c-4.66699 1.33301 -11 2.33301 -19 3h-95c-8 0 -14.333 -3 -19 -9s-7 -13.333 -7 -22c0 -10 2.16699 -17.5 6.5 -22.5s10.833 -7.5 19.5 -7.5h95c12.667 0 22.834 2.66699 30.501 8s14.5 12.666 20.5 21.999z" />
    <glyph glyph-name="integral" unicode="&#x222b;" horiz-adv-x="290" 
d="M279 629c-23.333 0 -38.666 -0.666992 -45.999 -2c-22.667 -4 -34 -12.667 -34 -26v-584c0 -58.667 -6 -95.334 -18 -110.001c-15.333 -18 -53 -27 -113 -27h-88v76c23.333 0 38.666 0.666992 45.999 2c22.667 4 34 12.667 34 26v584c0 58.667 6 95.334 18 110.001
c15.333 18 53 27 113 27h88v-76z" />
    <glyph glyph-name="approxequal" unicode="&#x2248;" horiz-adv-x="353" 
d="M339 229c-9.33301 -8.66699 -16.668 -15.001 -22.001 -19.001c-17.333 -12.667 -34 -19.667 -50 -21l-9 1h-7c-7.33301 0 -41.666 11 -102.999 33c-26.667 10 -44.667 13.667 -54 11l-10 1c-12.667 0 -27.334 -4.33301 -44.001 -13
c-5.33301 -2.66699 -12.666 -7.33398 -21.999 -14.001v79c8.66699 6 15.667 10.333 21 13c17.333 9.33301 32 14 44 14l12 -1c10 2.66699 27.667 -0.666016 53 -9.99902c62.667 -22.667 97 -34 103 -34h11c15.333 -1.33301 35.333 7 60 25
c4 2.66699 9.66699 7.33398 17 14.001v-79zM338.998 70.999c-10.667 -10 -19.002 -17.0029 -25.002 -21.0029c-20 -14 -37.333 -19.667 -52 -17c-8 -3.33301 -35.667 3.83398 -83 21.501s-76.666 24.834 -87.999 21.501c-12 3.33301 -27.667 0 -47 -10
c-6 -3.33301 -14.667 -8.66602 -26 -15.999v79c8 6 14.667 10.333 20 13c16 8.66699 30.333 13 43 13l11 -1c12 3.33301 41.333 -3.5 88 -20.5s74.334 -23.833 83.001 -20.5c14.667 -2 31.667 3.33301 51 16c6 4 14.333 11 25 21v-79z" />
    <glyph glyph-name="notequal" unicode="&#x2260;" horiz-adv-x="379" 
d="M369 57h-209l-40 -57h-101l40 57h-41v79h97l56 79h-153v79h209l41 57h101l-40 -57h40v-79h-96l-57 -79h153v-79z" />
    <glyph glyph-name="lessequal" unicode="&#x2264;" horiz-adv-x="385" 
d="M369 115l-351 129v79l351 128v-79l-243 -89l243 -89v-79zM369 0h-351v79h351v-79z" />
    <glyph glyph-name="greaterequal" unicode="&#x2265;" horiz-adv-x="381" 
d="M368 244l-351 -129v79l243 89l-243 89v79l351 -128v-79zM368 0h-351v79h351v-79z" />
    <glyph glyph-name="lozenge" unicode="&#x25ca;" horiz-adv-x="387" 
d="M366 366l-174 -293l-174 292l174 297zM348 366l-156 266l-156 -267l156 -263z" />
    <glyph glyph-name="fi" unicode="&#xf001;" horiz-adv-x="419" 
d="M398 0h-139.002v483h-62v-483h-139v483h-47v84h47c0 58.667 6 94.667 18 108c14.667 16.667 52.334 25 113.001 25h88v-76c-23.333 0 -38.666 -0.666992 -45.999 -2c-22.667 -4 -34 -12.667 -34 -26v-29h201v-567z" />
    <glyph glyph-name="fl" unicode="&#xf002;" horiz-adv-x="431" 
d="M416 0h-139.001v483h-80v-483h-139v483h-47v84h47c0 58.667 6 94.667 18 108c14.667 16.667 52.334 25 113.001 25h227v-700zM276.999 567l-0.000976562 57c-23.333 0 -38.666 -0.666992 -45.999 -2c-22.667 -4 -34 -12.667 -34 -26v-29h80z" />
    <glyph glyph-name="glyph1" horiz-adv-x="0" 
 />
    <glyph glyph-name="glyph2" 
 />
  </font>
</defs>
</svg>
